<svg width="372" height="174" viewBox="0 0 372 174" fill="none" xmlns="http://www.w3.org/2000/svg">
<path d="M26.794 107.183C27.4325 107.173 30.287 109.87 31.1915 110.493C32.0277 110.862 31.5889 111.315 32.546 111.299C34.142 111.273 40.5802 110.527 46.0069 110.436C50.1565 110.367 50.0973 110.624 50.6837 111.316C51.4654 112.26 51.5381 112.769 52.0743 114.291C52.5404 115.432 52.8739 116.321 52.876 116.449C52.4969 116.646 52.6879 116.642 52.2413 116.65C52.2423 116.714 53.1354 116.763 53.1397 116.89L53.3575 118.483C53.3657 118.993 52.7858 118.684 52.7911 119.002C52.7932 119.13 48.0053 119.21 46.7305 119.359C43.6758 119.984 42.901 119.486 33.921 120.913C28.6294 121.448 29.2005 121.247 27.6524 124.145C25.2342 128.461 21.586 135.605 21.0323 136.891C26.7771 136.731 28.1169 136.646 30.7344 136.602C32.4578 136.573 32.6515 136.698 32.9122 137.012C33.4347 137.705 34.3595 139.541 34.3702 140.179C34.3108 140.435 34.3733 140.37 34.1192 140.438L33.8614 140.315C33.7977 140.316 33.7361 140.445 33.7393 140.636C33.745 140.955 35.0183 140.743 35.1524 141.124C35.1594 141.57 34.5195 141.453 34.5225 141.644C34.5236 141.708 34.59 141.835 34.9092 141.83C35.1006 141.826 35.2929 141.887 35.295 142.014C35.2982 142.206 35.1704 142.207 35.1065 142.208C34.9789 142.211 34.8535 142.341 34.8546 142.405C34.8561 142.468 34.9849 142.53 35.1124 142.528C35.4311 142.522 35.3037 142.525 35.5577 142.457C35.6853 142.454 35.6873 142.582 35.6905 142.773L35.7071 143.73C35.7188 144.432 36.4157 144.102 36.42 144.357C36.4238 144.612 35.7199 144.497 35.5987 144.881C35.1661 145.782 30.9388 145.086 16.418 147.371C13.9594 153.091 11.0472 162.266 11.0714 163.734C11.0735 163.861 11.0749 163.925 11.1387 163.924C11.9062 163.911 28.7193 161.206 29.2247 160.878L29.4151 160.811C29.7978 160.805 29.8724 161.442 30.1915 161.437C30.5107 161.432 31.3622 162.693 31.4346 163.203C31.4389 163.458 32.0171 163.704 32.0235 164.086C32.0277 164.342 31.842 164.663 31.6505 164.666L31.3926 164.543C31.4586 164.67 31.4611 164.798 31.7803 164.792C31.9717 164.789 31.9697 164.662 32.2247 164.658C32.6737 164.778 32.8661 164.774 32.8682 164.902C32.8714 165.093 32.6817 165.224 32.2423 165.678L33.0079 165.666C33.263 165.661 33.5208 165.784 33.5235 165.912C33.5267 166.103 33.3997 166.169 33.1475 166.365L33.2686 165.98C33.0155 166.112 32.8904 166.242 32.8936 166.433C32.8947 166.497 33.0247 166.623 33.1524 166.621L33.5333 166.486C33.7247 166.483 33.9187 166.672 33.9219 166.863C33.925 167.054 33.61 167.251 33.6153 167.57C33.6196 167.825 33.75 168.014 33.9415 168.011L34.2598 167.942C34.3871 167.94 34.4518 168.002 34.4532 168.066C34.4553 168.194 34.2678 168.452 34.0167 168.711C33.2622 169.426 29.8309 170.441 25.629 171.213C25.1192 171.286 24.2295 171.556 23.5284 171.631C17.4785 172.626 13.9107 173.132 13.2159 173.59C12.836 173.788 12.2005 173.99 11.626 173.999C10.9243 174.011 11.4893 173.492 7.46784 173.559C5.29731 173.595 4.40273 173.546 4.07819 173.232L3.49713 172.859C4.39395 173.035 3.94606 172.979 4.84088 173.028C4.13015 172.529 3.80655 172.279 2.44245 170.898C1.59895 170.083 1.27323 169.705 1.26667 169.323L1.38288 168.619L1.19245 168.685C0.937138 168.689 0.6635 167.61 0.397524 166.976C0.136896 166.661 0.0033404 166.344 6.35442e-05 166.153C-0.00740235 165.706 0.645082 166.525 0.865298 164.416C1.07267 161.54 2.57954 156.154 5.69049 147.422C6.54691 145.174 7.14938 143.058 7.21002 142.866C7.20326 142.483 6.31115 142.562 6.17389 141.99C6.0387 141.545 5.33509 141.493 5.32331 140.791C5.37008 139.77 5.23963 139.58 6.70221 139.237L8.60944 138.695C9.30744 138.428 9.68623 138.166 11.4034 133.925C13.4311 129.169 17.3403 122.404 17.3155 120.872C17.3091 120.489 17.1134 120.236 16.7921 120.114C16.1498 119.869 16.3947 119.227 16.001 118.595C15.8691 118.342 15.803 118.216 15.8008 118.088C15.7966 117.833 16.4332 117.758 16.4268 117.375C16.4207 117.056 15.5665 115.539 15.5548 114.837C15.6142 114.581 15.5509 114.519 18.6055 113.958C20.1981 113.739 21.5971 113.397 21.8506 113.265C22.0422 113.262 22.7899 112.164 23.6006 111.001C25.4657 107.971 26.1556 107.194 26.794 107.183Z" fill="#EDE9DE"/>
<path fill-rule="evenodd" clip-rule="evenodd" d="M77.6534 106.526C79.1866 106.564 79.573 106.749 83.501 108.725C88.6512 111.192 88.8465 111.38 89.3116 112.458C89.5127 113.029 89.6503 113.665 89.6631 114.43C89.6866 115.834 89.3325 117.563 88.5421 119.937C87.5739 123.144 83.6189 131.061 82.1133 132.681C81.8614 132.877 81.6738 133.071 81.6749 133.135L81.7393 133.198C81.7444 133.517 81.1211 134.421 80.0616 135.97C79.5688 137.063 77.2558 139.972 76.9356 139.979L76.9903 139.467C76.9871 139.276 76.9216 139.15 76.794 139.152C76.3504 139.351 76.5394 139.22 76.2247 139.48L76.2842 139.224C75.8396 139.359 75.8415 139.486 75.3311 139.495C74.6289 139.506 72.8281 138.771 72.8184 138.197C72.9929 137.173 72.9274 137.046 73.5518 136.207C72.7996 137.049 72.9331 137.429 72.1671 137.442C71.5287 137.452 71.0134 137.206 69.793 136.78C71.7933 134.194 71.4103 134.199 74.2637 129.174C75.9352 126.019 77.909 121.838 78.9464 118.949C79.6762 116.767 80.2821 114.778 80.2725 114.204C80.2077 114.141 80.2082 114.205 80.2061 114.078C79.8224 114.085 77.1071 115.916 75.0889 117.417C72.6926 119.245 67.1655 124.762 64.7237 127.674C60.2177 133.174 58.5413 136.01 56.4346 139.874C53.0863 145.866 49.7704 153.835 49.876 160.151C49.939 163.915 51.2531 166.127 53.0089 168.012C53.9186 168.954 54.0499 169.143 54.5606 169.134L55.0079 169.127C57.9362 168.568 62.7453 165.934 66.5245 162.808C70.3644 159.489 71.8074 157.933 75.9464 153.397C77.5478 153.689 78.057 153.617 78.1251 153.872C78.1335 154.382 77.5698 155.029 76.6964 156.256C77.9497 154.831 78.196 154.253 78.7706 154.244L80.1153 154.476L80.3692 154.409L80.4346 154.471L80.3145 154.919C80.3188 155.175 80.5741 155.17 81.087 155.29C81.4699 155.283 81.6562 154.962 81.8477 154.958C81.9115 154.957 81.9111 154.957 81.9122 155.021L81.9171 155.276C81.9203 155.467 82.1126 155.528 82.4317 155.523C83.0042 155.386 83.065 155.193 83.3204 155.189C83.3842 155.188 83.449 155.251 83.4522 155.442L83.3946 155.826C83.1517 156.596 78.269 162.485 75.7559 164.952C70.4795 170.209 65.4148 172.846 60.6905 172.925C58.6476 172.959 56.4661 172.357 54.4796 171.944C51.4672 171.292 48.0645 170.2 47.1622 169.705C45.614 168.773 43.0184 166.328 43.0108 165.881C43.0097 165.818 43.0104 165.818 43.0743 165.817C43.2041 165.818 44.312 167.263 44.4395 167.261L44.502 167.197C44.4978 166.942 42.9341 165.116 42.6788 165.121L42.4883 165.188C42.4244 165.189 42.2964 165.127 42.2921 164.873C42.291 164.809 42.2907 164.808 42.3546 164.807L42.5469 164.868C42.6107 164.867 42.6105 164.867 42.6094 164.803C42.4094 164.296 42.3407 163.978 42.0215 163.983L41.8321 164.114L41.7667 164.051L41.8897 163.73C41.8747 162.837 40.9702 162.213 40.8956 157.748C40.8284 153.728 41.4194 150.91 43.6163 144.811C45.4473 139.739 47.1552 134.924 53.5762 125.563C53.8848 124.92 55.2604 123.173 56.5128 121.684C63.4552 112.953 71.6516 106.626 76.8868 106.539L77.6534 106.526ZM74.1876 158.979C74.0607 158.982 73.3857 159.933 73.3741 159.95C73.6293 159.945 73.8779 159.558 74.251 158.978L74.1876 158.979ZM75.043 133.756C74.9148 133.76 74.045 135.046 74.045 135.176C74.8652 134.588 74.9255 134.332 75.1085 133.819L75.043 133.756Z" fill="#EDE9DE"/>
<path fill-rule="evenodd" clip-rule="evenodd" d="M284.297 104.352C285.192 104.401 286.161 105.087 287.205 106.41C287.794 107.229 288.248 107.669 288.44 107.666C288.631 107.662 288.891 107.913 289.345 108.352C290.451 109.61 291.041 110.494 291.242 111.065C291.251 111.64 289.64 114.602 286.348 120.081C282.933 125.881 280.577 130.133 279.28 132.771C277.984 135.473 277.307 137.016 277.313 137.335L277.378 137.398C277.573 137.391 279.963 135.182 284.547 130.769C290.204 125.378 293.787 121.935 295.357 120.377C298.249 117.649 300.575 115.439 302.337 113.878C304.099 112.318 305.363 111.531 306.129 111.518C306.384 111.514 306.638 111.382 306.826 111.187C307.015 110.992 307.139 110.799 307.135 110.543L307.065 110.226C307.063 110.098 307.064 110.098 307.128 110.097L307.449 110.219C307.705 110.215 308.081 109.825 308.642 108.987C309.14 108.213 310.016 107.113 311.207 105.817C311.528 105.939 311.85 106.062 312.172 106.248C312.494 106.434 312.948 106.809 313.659 107.372C314.372 107.998 315.085 108.625 315.864 109.377C316.578 110.067 317.228 110.758 317.813 111.323C318.397 111.887 318.659 112.266 318.661 112.394C318.672 113.097 315.063 118.773 307.834 129.422C302.535 137.169 298.673 142.978 296.377 146.973C290.109 157.863 286.707 164.493 286.302 166.989C286.248 167.564 286.131 168.204 285.823 168.912C285.026 170.903 284.405 171.935 284.022 171.941C283.957 171.941 283.506 171.757 282.798 171.323C280.545 170.212 279.13 169.598 278.554 169.543C278.104 169.359 277.846 169.235 277.844 169.108C277.842 169.044 277.776 168.918 277.583 168.793C277.068 168.547 276.619 168.427 276.3 168.432C275.982 168.437 275.79 168.377 275.788 168.376C275.848 168.121 275.909 167.992 275.972 167.927C276.034 167.862 276.034 167.799 276.097 167.734C275.846 167.993 275.528 168.126 275.209 168.131C274.89 168.137 274.631 167.949 274.56 167.503L274.618 167.184C274.682 167.183 274.684 167.247 274.684 167.247C274.684 167.249 274.686 167.31 274.748 167.309C274.748 167.309 274.75 167.373 274.752 167.5C274.753 167.564 274.818 167.628 274.945 167.625C275.008 167.561 275.07 167.495 275.069 167.431C275.067 167.304 275.001 167.177 274.938 167.178C274.744 167.054 274.677 166.864 274.674 166.672C274.667 166.29 275.283 164.875 276.517 162.302C277.073 161.208 277.631 160.241 278.065 159.404C278.498 158.567 279.054 157.473 279.736 156.249C282.342 151.675 284.323 147.94 285.682 145.173L285.991 144.593L285.55 144.919C282.214 147.847 280.072 149.606 279.253 150.258C278.181 151.042 277.23 151.504 276.4 151.518C276.081 151.523 275.567 151.341 274.731 150.972C272.609 150.114 271.385 149.496 270.93 148.993C270.863 148.866 270.283 148.556 269.316 147.999C267.448 146.945 266.35 146.198 266.152 145.882C265.956 145.567 265.819 145.058 265.808 144.356C265.699 137.848 270.741 126.213 280.87 109.451L283.481 105.195C283.854 104.614 284.105 104.355 284.297 104.352ZM287.777 133.012C286.708 133.987 286.206 134.507 286.208 134.634L286.272 134.633L286.648 134.244C286.899 133.92 287.275 133.531 287.777 133.012ZM274.558 129.149C274.371 129.407 274.117 129.539 273.928 129.669C273.93 129.797 273.931 129.861 273.994 129.86C274.122 129.858 274.31 129.6 274.558 129.149ZM293.935 126.974C293.557 127.3 293.056 127.882 292.366 128.66C293.06 128.138 293.561 127.555 293.935 126.974ZM275.109 127.799C274.922 128.058 274.67 128.253 274.355 128.45C274.356 128.513 274.355 128.514 274.419 128.513C274.611 128.51 274.798 128.251 275.109 127.799ZM296.926 126.35C296.676 126.673 296.486 126.804 296.359 126.87C296.233 126.936 296.171 127.001 296.172 127.065L296.3 127.126L296.926 126.35ZM296.829 124.374C296.765 124.375 296.452 124.699 295.888 125.346C295.261 125.994 294.948 126.382 294.949 126.51C295.268 126.505 295.581 126.117 296.016 125.408C296.58 124.825 296.83 124.438 296.829 124.374ZM299.406 121.905C298.336 122.816 297.834 123.335 297.837 123.527L297.9 123.526L298.277 123.136C298.527 122.813 298.903 122.36 299.406 121.905Z" fill="#EDE9DE"/>
<path fill-rule="evenodd" clip-rule="evenodd" d="M110.077 106.75C112.631 106.708 115.073 107.624 119.012 110.239C120.304 111.174 122.498 112.477 123.725 113.287C127.404 115.65 128.979 118.113 129.035 121.495C129.046 122.133 129.056 122.771 128.94 123.475C127.976 130.703 124.416 139.378 119.064 147.7C114.206 155.12 106.386 164.823 101.792 168.857C99.7141 170.615 97.8784 171.603 96.2823 171.629C94.9416 171.652 93.4572 170.719 92.1729 170.293L88.6348 168.757C86.1247 167.587 84.7651 166.46 84.7491 165.503L84.8028 164.928C84.8007 164.801 84.7983 164.673 84.7344 164.674L84.6719 164.739C84.5443 164.741 84.4702 164.104 84.4542 163.147C84.1918 147.452 92.9134 126.757 104.046 112.722C106.739 109.55 106.48 109.299 106.846 108.272C107.275 107.18 108.226 106.781 110.077 106.75ZM84.9395 165.437C85.2066 166.134 85.596 166.51 85.7237 166.508C85.5237 166.001 85.5796 165.554 84.9395 165.437ZM117.114 115.121C116.284 115.134 115.851 115.972 115.468 115.978L114.891 115.795L114.636 115.864C109.388 122.844 105.578 127.95 102.176 134.516C100.443 137.8 97.6792 144.419 96.6505 147.819C94.5185 153.981 93.5276 159.677 93.5606 161.655C93.5659 161.974 93.6323 162.1 93.7598 162.098C94.8452 162.08 106.167 147.915 107.78 145.08C113.741 134.897 117.993 125.7 117.856 117.469L117.88 115.108L117.114 115.121ZM107.571 151.657C107.261 152.172 106.879 152.306 106.879 152.306C106.88 152.37 106.882 152.434 106.945 152.433C107.073 152.431 107.261 152.172 107.571 151.657ZM110.752 147.136C110.687 147.138 110.372 147.334 110.187 147.656L109.876 148.172L109.94 148.171C110.067 148.169 110.755 147.328 110.752 147.136ZM118.138 134.343C117.859 134.666 117.573 134.768 117.57 134.769L117.637 134.896C117.749 134.894 117.86 134.697 118.138 134.343ZM96.6339 131.544C96.2576 131.933 95.94 132.003 95.9415 132.13L96.0723 132.32C96.1997 132.317 96.1947 131.998 96.6339 131.544ZM108.336 113.352C107.395 114.389 106.891 114.845 106.894 114.972C106.895 115.036 106.895 115.036 106.959 115.035L108.336 113.352Z" fill="#EDE9DE"/>
<path d="M322.773 157.636C323.923 157.618 327.603 160.234 327.612 160.619C327.616 160.81 327.744 160.808 327.808 160.807L327.871 160.806C328.127 160.802 328.838 161.301 328.842 161.556L328.459 161.626C328.454 161.632 328.396 161.697 328.398 161.819C328.401 161.946 328.402 162.01 328.466 162.009C328.781 161.749 328.779 161.621 329.034 161.617C329.481 161.609 331.873 163.356 331.882 163.867C331.758 164.124 331.515 164.894 330.962 166.179C329.875 169.899 329.832 171.176 329.642 171.243L329.579 171.308C328.941 171.319 328.417 170.562 327.122 169.499C326.858 168.992 326.352 169.255 325.508 168.44C324.926 168.003 324.477 167.883 324.471 167.5C324.465 167.182 324.012 166.806 323.757 166.81C323.565 166.813 323.569 167.069 323.441 167.071C323.25 167.074 322.598 166.255 321.955 166.01C321.245 165.575 321.111 165.195 321.092 164.046C321.056 161.877 321.175 161.364 321.84 159.12C322.265 157.836 322.327 157.644 322.773 157.636Z" fill="#EDE9DE"/>
<path fill-rule="evenodd" clip-rule="evenodd" d="M140.709 107.515C141.732 107.562 145.272 109.226 145.598 109.603C145.729 109.792 145.921 109.853 146.112 109.85C147.715 110.206 148.176 111.028 148.367 111.025L148.431 111.024C148.495 111.023 149.072 111.205 149.524 111.516C150.494 112.202 151.581 112.248 151.608 113.907C151.521 116.333 151.594 120.672 151.735 129.157C151.827 134.643 152.159 142.998 152.178 144.147L152.246 144.401C152.757 144.39 154.044 137.285 157.588 127.783C160.027 120.914 161.943 117.053 165.552 111.376C166.609 109.699 166.983 109.118 167.558 109.109C168.516 109.094 173.75 112.835 175.379 114.786L176.482 115.789C175.803 117.204 175.742 117.397 173.764 121.258C169.432 129.563 167.226 135.152 163.617 148.487C160.909 158.359 159.888 162.206 159.903 163.164L159.974 163.545C159.985 164.247 159.878 165.462 159.369 165.598C158.922 165.605 157.826 164.985 156.543 164.624C155.195 164.199 153.78 163.522 153.773 163.203L153.773 163.138C153.767 162.947 152.174 163.037 150.633 162.489C149.861 162.183 148.389 161.952 147.429 161.84C145.449 161.81 144.738 161.374 143.754 159.795C141.657 156.576 140.782 150.081 140.674 143.637L140.688 140.637C140.512 137.768 140.473 135.472 140.346 135.474C140.214 135.484 138.235 139.15 136.823 142.489C134.126 149.235 128.389 165.094 128.424 167.2C128.427 167.391 128.556 167.453 128.747 167.45C129.391 167.758 129.269 168.079 129.588 168.074L130.352 167.933C131.055 167.985 131.439 168.043 131.442 168.234C131.445 168.361 130.749 168.692 130.751 168.883C130.753 169.011 130.881 169.009 131.012 169.199C131.017 169.582 129.63 170.625 128.29 170.648C127.396 170.663 125.538 170.311 123.614 169.833C120.35 169.376 119.006 169.271 118.3 169.028C118.041 168.841 117.908 168.46 117.9 168.013C117.891 167.439 118.07 166.67 118.566 165.833C119.104 163.59 124.06 146.85 128.17 136.762C128.654 135.159 129.946 132.201 131.111 129.31C132.402 126.289 135.023 118.842 136.315 115.949C137.355 113.187 139.021 109.649 139.889 108.103C140.2 107.651 140.39 107.52 140.709 107.515ZM118.868 168.635C118.869 168.699 118.999 168.761 119.254 168.756C119.573 168.751 119.765 168.748 119.764 168.684L119.698 168.622L119.315 168.564L118.868 168.635ZM147.739 161.325L148.385 161.76L148.381 161.505C148.38 161.442 148.186 161.318 147.994 161.321L147.739 161.325ZM123.398 160.71C123.27 160.713 123.21 160.905 123.213 161.096L123.154 161.416C123.277 161.095 123.531 161.027 123.527 160.835L123.398 160.71ZM125.534 154.803C125.157 155.193 123.626 159.111 123.635 159.622L123.702 159.811C123.894 159.806 125.16 155.319 125.536 154.93L125.534 154.803ZM125.839 153.905C125.647 153.908 125.397 154.231 125.401 154.486C125.404 154.613 125.468 154.676 125.596 154.674C125.723 154.672 125.91 154.35 125.971 154.158C125.968 153.967 125.903 153.904 125.839 153.905ZM126.698 151.848C126.571 151.85 126.069 152.433 126.075 152.816L126.144 153.07C126.335 153.067 126.829 152.037 126.828 151.973L126.698 151.848Z" fill="#EDE9DE"/>
<path fill-rule="evenodd" clip-rule="evenodd" d="M196.365 105.309C198.919 105.266 201.362 106.184 205.301 108.798C206.594 109.734 208.787 111.037 210.014 111.846C213.693 114.21 215.267 116.673 215.323 120.054C215.334 120.692 215.344 121.33 215.229 122.034C214.264 129.261 210.705 137.937 205.352 146.259C200.494 153.679 192.674 163.383 188.08 167.416C186.002 169.174 184.166 170.161 182.57 170.188C181.23 170.21 179.745 169.278 178.461 168.853L174.923 167.317C172.413 166.146 171.053 165.02 171.037 164.063L171.091 163.488C171.089 163.36 171.087 163.233 171.023 163.234L170.96 163.298C170.833 163.299 170.758 162.663 170.742 161.707C170.48 146.011 179.202 125.316 190.335 111.282C193.028 108.11 192.768 107.858 193.134 106.832C193.563 105.739 194.514 105.34 196.365 105.309ZM171.228 163.996C171.495 164.693 171.884 165.07 172.012 165.068C171.812 164.561 171.868 164.113 171.228 163.996ZM203.402 113.68C202.573 113.694 202.14 114.53 201.757 114.537L201.179 114.355L200.924 114.423C195.676 121.403 191.866 126.509 188.464 133.075C186.731 136.358 183.967 142.978 182.939 146.377C180.806 152.54 179.817 158.237 179.85 160.214C179.855 160.533 179.921 160.66 180.048 160.658C181.133 160.64 192.455 146.474 194.068 143.639C200.029 133.456 204.282 124.259 204.145 116.029L204.169 113.667L203.402 113.68ZM193.859 150.216C193.553 150.724 193.179 150.862 193.168 150.866C193.169 150.929 193.17 150.994 193.233 150.993C193.361 150.991 193.549 150.732 193.859 150.216ZM197.041 145.696C196.977 145.697 196.661 145.893 196.475 146.215L196.164 146.731L196.228 146.73C196.355 146.728 197.044 145.888 197.041 145.696ZM204.432 132.898C204.15 133.226 203.858 133.329 203.858 133.329L203.925 133.455C203.989 133.453 204.051 133.389 204.145 133.268L204.432 132.898ZM182.922 130.104C182.545 130.493 182.228 130.562 182.23 130.69L182.36 130.879C182.488 130.877 182.483 130.558 182.922 130.104ZM194.624 111.912C193.684 112.948 193.181 113.404 193.183 113.532C193.184 113.595 193.183 113.595 193.247 113.594L194.624 111.912Z" fill="#EDE9DE"/>
<path fill-rule="evenodd" clip-rule="evenodd" d="M343.792 153.137C345.26 153.113 347.072 154.486 351.008 156.91C351.976 157.532 352.299 157.782 352.305 158.101C351.695 159.835 349.165 165.046 349.219 168.299L349.228 168.81C349.234 169.192 349.174 169.448 349.11 169.45C348.855 169.454 348.994 170.154 348.739 170.159C348.484 170.163 347.376 168.841 345.641 168.167C344.676 167.737 344.482 167.612 344.477 167.293C344.468 166.783 344.472 167.038 344.592 166.589C344.28 167.041 344.093 167.3 343.901 167.303C343.838 167.304 343.77 167.05 343.696 166.477C343.692 166.222 343.301 165.781 342.337 165.415C341.636 165.048 340.875 164.745 340.857 164.738C340.794 164.739 340.797 164.93 340.8 165.122L340.803 165.313C340.739 165.314 340.478 164.999 340.459 163.851C340.444 162.958 340.611 161.487 340.962 159.567C341.913 155.339 342.774 153.346 343.792 153.137ZM347.797 155.815C347.607 155.882 347.669 155.817 347.608 156.009C347.61 156.073 347.675 156.199 347.804 156.261L348.19 156.382C348.317 156.38 348.315 156.253 348.439 155.996L348.184 156.064C347.993 156.067 348.116 155.81 347.797 155.815Z" fill="#EDE9DE"/>
<path fill-rule="evenodd" clip-rule="evenodd" d="M266.253 104.461C266.891 104.451 270.446 106.944 270.45 107.2C270.453 107.327 270.775 107.514 271.161 107.699C272.124 108.002 274.782 110.382 274.854 110.828C274.863 111.402 274.308 112.56 271.015 118.04C264.558 129.124 262.395 133.373 257.164 145.203C252.115 156.39 249.649 165.492 249.662 166.324L249.664 166.452C249.676 167.153 249.42 167.094 249.423 167.286L249.488 167.412C249.493 167.667 248.872 168.698 248.616 168.703C248.361 168.707 245.592 167.223 245.207 167.228L245.079 167.23C244.951 167.232 244.436 166.921 243.272 166.047C243.014 165.924 242.948 165.798 242.881 165.608L242.88 165.543C243.008 165.542 243.334 165.983 243.462 165.981C243.589 165.979 243.652 165.913 243.713 165.721L243.458 165.79C243.267 165.792 243.451 165.407 242.425 165.105L242.362 165.169C242.428 165.296 242.428 165.232 242.43 165.36C242.432 165.487 242.306 165.617 241.986 165.623C241.668 165.628 241.598 165.31 241.343 165.314C240.96 165.32 239.739 164.831 239.735 164.639C239.733 164.512 239.86 164.446 240.049 164.315C240.047 164.187 239.599 164.131 239.588 163.493C239.571 162.472 239.682 161.449 241.939 155.093C242.974 152.077 248.977 136.92 249.159 136.274C249.031 136.277 248.342 137.054 247.466 138.089C240.205 146.825 235.817 151.748 235.584 153.157C235.587 153.348 235.716 153.41 236.035 153.405L236.355 153.4L236.481 153.333C236.608 153.331 236.676 153.521 236.678 153.649C236.68 153.776 236.617 153.842 236.554 153.843L236.297 153.784L236.434 154.355C236.441 154.802 235.491 155.264 234.853 155.275C234.087 155.287 233.562 154.467 231.308 153.292L228.02 151.433C224.858 149.508 224.467 149.003 224.21 145.115C224.127 143.967 223.987 143.267 223.859 143.269C223.547 143.657 220.422 151.56 219.447 154.384C218.412 157.401 217.085 162.082 217.095 162.656C217.097 162.783 217.166 163.037 217.615 163.221C217.874 163.408 218.069 163.596 218.136 163.787C218.137 163.85 218.266 163.913 218.394 163.911L218.967 163.837C218.656 164.353 218.78 164.096 218.533 164.61C218.535 164.737 218.599 164.737 218.729 164.862C218.733 165.117 217.92 166.151 217.219 166.227C216.453 166.24 211.245 164.158 210.026 163.859C208.874 163.687 206.942 162.698 206.676 162.064C206.479 161.748 206.407 161.239 206.398 160.665C206.343 157.411 209.804 146.695 215.714 133.513C220.074 123.102 223.878 113.785 225.282 113.761C226.113 113.811 226.823 114.246 228.572 115.749C229.026 116.187 229.542 116.561 229.607 116.561C229.863 116.557 231.22 117.491 232.321 118.43C233.293 119.244 233.424 119.497 233.501 120.261C233.712 121.406 233.967 121.402 233.989 122.742C233.907 125.487 233.969 136.783 233.862 138.061C233.863 138.125 233.865 138.188 233.929 138.187C234.184 138.183 234.938 137.405 236.314 135.659C242.008 128.671 249.154 120.638 252.736 117.196C253.426 116.418 254.622 115.378 255.186 114.73C260.465 109.664 258.074 111.809 265.18 105.181C265.682 104.663 265.934 104.467 266.253 104.461ZM245.855 156.304C245.487 156.876 245.233 156.889 245.226 156.889C245.227 156.953 245.292 157.015 245.356 157.014C245.731 156.562 245.544 156.82 245.855 156.304ZM246.096 155.47C245.783 155.858 245.529 155.991 245.529 155.991C245.53 156.054 245.531 156.054 245.595 156.053C245.722 156.051 245.847 155.857 246.096 155.47ZM246.464 154.571C246.216 155.022 245.898 155.155 245.898 155.155C245.9 155.219 245.9 155.218 245.964 155.217C246.092 155.215 246.216 155.022 246.464 154.571ZM247.806 150.784C247.558 151.234 247.304 151.303 247.306 151.43L247.307 151.494C247.311 151.749 246.746 152.332 246.75 152.587L246.816 152.714C246.57 153.229 246.692 152.908 246.511 153.549L246.575 153.612L246.351 154.021C246.53 153.817 246.64 153.66 246.639 153.547L246.573 153.484C246.571 153.356 246.758 153.034 247.007 152.647C247.006 152.583 247.005 152.583 246.941 152.584C246.939 152.457 247.063 152.2 247.251 152.005C247.439 151.811 247.627 151.552 247.626 151.488L247.495 151.299L247.806 150.784ZM247.971 150.177C247.905 150.254 247.861 150.24 247.544 150.405L247.609 150.531C247.705 150.529 247.799 150.421 247.971 150.177ZM248.094 148.927C248.03 148.928 247.966 148.93 247.967 148.994C248.099 149.247 248.167 149.437 248.231 149.436C248.358 149.434 248.419 149.305 248.417 149.177C248.415 149.05 248.349 148.923 248.094 148.927ZM250.755 143.841C250.317 144.359 250.001 144.62 249.81 144.624L249.875 144.686C249.878 144.878 249.315 145.589 249.317 145.716L249.384 145.843L249.014 146.678C249.015 146.742 249.015 146.743 249.079 146.742C248.77 147.321 248.459 147.836 248.465 148.219L248.466 148.284L248.593 148.217L248.59 148.026C248.598 148.013 249.274 146.993 249.272 146.802C249.208 146.803 249.208 146.803 249.207 146.739L249.577 145.967L249.512 145.905C249.51 145.777 250.135 144.937 250.133 144.809C250.131 144.682 250.192 144.553 250.379 144.294L250.755 143.841ZM250.694 143.228C250.48 143.439 250.371 143.587 250.367 143.592C250.368 143.656 250.369 143.657 250.433 143.656C250.482 143.654 250.491 143.464 250.694 143.228ZM250.671 142.63L250.734 142.629L250.801 142.755C250.865 142.754 250.99 142.625 251.049 142.305L250.671 142.63ZM251.605 141.21C251.1 141.602 251.353 141.407 250.978 141.86L251.042 141.922C251.17 141.92 251.1 141.602 251.605 141.21ZM252.098 140.118C251.784 140.442 251.595 140.573 251.597 140.701L251.662 140.827C251.726 140.826 251.721 140.507 252.098 140.118ZM251.837 139.803L251.901 139.866C252.029 139.864 252.025 139.609 252.466 139.218L251.837 139.803ZM252.835 138.382C252.52 138.643 252.202 138.712 252.206 138.967L252.271 139.03C252.398 139.028 252.395 138.773 252.835 138.382ZM247.989 127.422C246.045 129.497 244.727 130.923 244.732 131.178C244.732 131.178 245.548 130.335 246.425 129.299C247.303 128.327 247.99 127.486 247.989 127.422ZM253.384 121.588C253.318 121.591 252.881 122.045 252.506 122.497C252.129 122.886 251.816 123.274 251.818 123.402C251.946 123.399 252.322 122.946 252.761 122.493C253.071 121.977 253.385 121.652 253.384 121.588ZM256.205 118.415C256.141 118.416 255.891 118.739 255.266 119.515C255.833 119.059 256.273 118.668 256.27 118.477C256.269 118.413 256.269 118.413 256.205 118.415ZM258.096 116.915C257.968 116.917 257.217 117.822 257.22 118.014C257.284 118.013 257.535 117.754 257.785 117.431L258.16 116.978L258.096 116.915Z" fill="#EDE9DE"/>
<path fill-rule="evenodd" clip-rule="evenodd" d="M344.466 102.964C346.447 103.059 348.183 103.732 349.936 105.426C352.143 107.559 356.565 112.399 356.567 112.527L356.568 112.59C356.572 112.782 356.706 113.162 356.967 113.477C357.693 114.527 358.039 115.802 358.11 117.349C360.544 111.746 361.742 109.301 363.198 106.8C364.563 104.417 364.935 103.772 365.382 103.764C366.02 103.753 367.834 105.255 367.842 105.702C367.844 105.829 367.973 105.89 368.164 105.887C368.611 105.88 369.075 106.894 369.458 106.887C369.715 106.884 371.983 108.951 372 109.971C372.01 110.545 371.639 111.317 370.769 112.736C370.214 113.958 368.855 116.661 367.806 118.848C356.58 142.585 358.24 138.729 356.641 142.393C355.351 145.478 354.925 146.761 354.944 147.91L354.955 148.547C354.96 148.866 354.899 148.995 354.772 148.998L354.58 149C354.452 149.003 354.452 149.003 354.453 149.067C354.457 149.259 355.038 149.695 355.041 149.886L354.98 150.015C354.464 149.768 352.019 148.66 351.3 147.651C350.709 146.704 350.322 146.455 349.489 146.278C348.208 146.044 347.426 145.1 347.411 144.207C347.387 142.739 348.448 139.36 350.264 134.963C348.522 136.778 346.263 138.887 343.699 141.141C339.544 144.72 335.651 148.678 333.65 151.264C332.15 153.139 331.713 153.721 331.457 153.726C331.266 153.729 331.198 153.539 330.939 153.289C330.03 152.41 326.869 150.485 326.857 149.783L326.974 149.142C326.968 148.823 326.774 148.635 326.582 148.638C326.391 148.641 326.265 148.772 326.013 148.967L326.196 148.517L325.689 148.653L325.623 148.59L325.62 148.399C325.617 148.207 325.224 147.64 324.26 147.273L324.197 147.338C324.263 147.464 324.263 147.401 324.265 147.528C324.141 147.785 324.267 147.72 323.95 147.853C323.887 147.854 323.821 147.791 323.82 147.727C323.81 147.089 325.109 144.578 326.674 142.702C328.922 139.665 333.062 135.192 336.714 132.068C341.373 128.097 343.438 125.509 345.352 121.584C347.758 116.566 348.607 113.872 349.145 111.629C345.395 112.713 341.535 114.82 338.328 117.809C333.673 122.035 332.448 125.182 328.362 132.909L328.361 132.845C328.234 132.848 327.985 133.298 327.794 133.301C327.538 133.304 326.62 131.728 326.615 131.535L327.001 131.656L326.999 131.591C326.674 131.214 326.867 131.338 326.415 131.027L326.419 131.218C326.42 131.282 326.361 131.603 326.106 131.607C325.978 131.609 325.913 131.546 325.911 131.418L326.026 130.714L325.962 130.652C325.648 130.976 325.588 131.168 325.46 131.17C325.268 131.174 325.134 130.793 325.13 130.538L325.126 130.283C325.119 129.836 324.204 128.576 323.82 128.582C323.693 128.584 323.11 128.146 322.267 127.331C323.364 124.185 325.257 119.048 327.313 115.951C331.669 109.113 339.869 103.041 344.466 102.964ZM349.828 143.655C349.453 144.108 349.328 144.238 349.334 144.621C349.34 145.003 349.532 145.001 349.596 144.999C349.723 144.997 349.589 144.552 349.833 143.911L349.828 143.655ZM351.081 142.166C350.647 142.939 350.462 143.325 350.467 143.644L350.468 143.708C350.781 143.32 350.908 143.254 351.081 142.166ZM350.314 142.116C349.939 142.632 349.75 142.764 349.755 143.083C349.758 143.274 349.888 143.399 350.079 143.396C350.143 143.395 350.144 143.394 350.143 143.331C350.077 143.204 350.014 143.269 350.01 143.014C350.128 142.438 350.068 142.694 350.314 142.116ZM351.568 140.754C351.441 140.757 351.319 141.141 351.077 141.975L351.079 142.039C351.145 142.033 351.639 141.199 351.634 140.88L351.568 140.754ZM352.546 138.122C352.355 138.125 351.929 139.407 351.932 139.599L351.933 139.664C352.06 139.661 352.245 139.211 352.675 138.183L352.546 138.122ZM353.656 135.805C353.529 135.808 353.343 136.13 353.222 136.514C352.972 136.837 352.912 137.093 352.913 137.158L352.914 137.222C353.17 137.217 353.656 135.805 353.656 135.805ZM354.767 133.425C354.639 133.427 354.577 133.556 354.517 133.749L354.393 134.006C354.645 133.811 354.771 133.68 354.767 133.425ZM355.005 132.401C354.878 132.467 354.752 132.532 354.757 132.851C354.76 133.042 354.761 133.106 354.825 133.105C354.889 133.103 354.949 132.911 355.069 132.463C355.069 132.463 355.069 132.4 355.005 132.401ZM327.195 131.843C327.265 132.161 327.333 132.415 327.46 132.414L327.522 132.285C327.518 132.094 327.391 132.095 327.195 131.843ZM355.5 131.499C355.436 131.5 355.374 131.629 355.25 131.822L355.19 132.079C355.443 131.883 355.568 131.689 355.565 131.561C355.564 131.498 355.564 131.497 355.5 131.499ZM356.236 129.7C356.111 129.829 356.051 130.022 356.052 130.085C356.055 130.277 356.056 130.34 356.12 130.339C356.184 130.338 356.246 130.209 356.37 130.016C356.303 129.826 356.3 129.699 356.236 129.7ZM357.726 127.058C357.409 127.191 357.219 127.321 357.22 127.385L357.349 127.447L357.726 127.058Z" fill="#EDE9DE"/>
<path d="M268.58 73.5786C269.149 73.4402 270.475 73.6492 270.588 73.5991C270.701 73.5492 270.787 73.5674 270.817 73.6108C271.087 74.0027 270.121 77.1016 270.129 78.2915C269.927 79.1765 269.657 79.7504 269.266 81.0034C267.013 81.3761 262.273 81.9968 252.898 82.853C235.517 84.4128 148.561 86.8678 142.95 89.0112C142.158 89.3619 142.465 90.0214 142.238 90.1216C142.125 90.1714 142.009 90.109 141.889 89.935L141.676 89.5181C141.616 89.4312 141.586 89.3878 141.529 89.4126C141.416 89.4627 141.423 89.6872 141.32 90.0737C141.264 90.0988 141.233 90.0553 141.113 89.8813C140.813 89.4459 140.966 88.8098 140.885 87.0845C140.962 83.9818 141.081 82.2247 141.5 81.8686C141.666 81.6817 141.835 81.6062 141.948 81.5561L142.005 81.5307C142.035 81.5743 141.819 82.0106 141.879 82.0981C142.378 81.5363 142.345 81.3803 143.476 80.8794C147.209 79.2262 243.636 76.1592 253.178 75.1157C259.295 74.566 256.21 74.9087 262.181 74.2534C264.517 73.7872 267.043 73.9184 268.58 73.5786Z" fill="#EDE9DE"/>
<path fill-rule="evenodd" clip-rule="evenodd" d="M77.4327 13.7368C78.4565 13.729 82.0805 15.2015 82.4258 15.561C82.5666 15.7427 82.7622 15.7932 82.9532 15.7798C84.5722 16.0499 85.0766 16.8459 85.2676 16.8325L85.3311 16.8276C85.395 16.8232 85.9812 16.9744 86.4493 17.2612C87.4539 17.8943 88.5419 17.8817 88.6583 19.5366C88.701 21.9643 89.0053 26.2927 89.6006 34.7583C89.9856 40.2322 90.7632 48.5572 90.8438 49.7036L90.9249 49.9536C91.4344 49.9178 92.3393 42.7538 95.3712 33.0737C97.4399 26.0841 99.146 22.126 102.446 16.2651C103.413 14.5344 103.755 13.9343 104.328 13.894C105.285 13.8281 110.712 17.2849 112.442 19.146L113.597 20.0884C112.995 21.5377 112.944 21.7337 111.175 25.6958C107.294 34.2201 105.39 39.9191 102.499 53.4272C100.322 63.4307 99.5081 67.3259 99.5753 68.2807L99.6661 68.6587C99.7153 69.3589 99.6724 70.5766 99.1719 70.7397C98.7261 70.771 97.5986 70.2109 96.2979 69.9184C94.9295 69.567 93.4796 68.9653 93.4561 68.647L93.4512 68.5825C93.4353 68.3923 91.849 68.5671 90.2813 68.102C89.4946 67.8375 88.0113 67.6857 87.0469 67.6255C85.068 67.7005 84.3359 67.304 83.2686 65.7798C81.0022 62.6766 79.7813 56.2379 79.3292 49.8091L79.1827 46.813C78.8542 43.9603 78.6928 41.6699 78.5655 41.6743C78.4381 41.6833 76.6542 45.4548 75.4219 48.8677C73.0894 55.7481 68.2078 71.8911 68.3555 73.9917C68.369 74.1826 68.5014 74.2375 68.6924 74.2241C69.3515 74.4976 69.2471 74.8246 69.5655 74.8022L70.3204 74.6216C71.0255 74.636 71.4124 74.6728 71.4258 74.8638C71.4337 74.9914 70.7562 75.3585 70.7696 75.5493C70.7786 75.6764 70.9062 75.6674 71.0469 75.8491C71.0738 76.231 69.7439 77.3479 68.4063 77.4419C67.5145 77.5045 65.6408 77.2524 63.6944 76.8774C60.4102 76.5964 59.0634 76.5633 58.3448 76.3579C58.0767 76.1849 57.9221 75.8121 57.8907 75.3667C57.8504 74.7938 57.9881 74.0161 58.4395 73.1528C58.8561 70.8846 62.9109 53.9041 66.4756 43.6108C66.8734 41.9836 68.005 38.9614 69.0137 36.0122C70.141 32.9263 72.3601 25.3503 73.4962 22.3921C74.3865 19.5791 75.8603 15.958 76.6446 14.3677C76.9317 13.8997 77.1142 13.7592 77.4327 13.7368ZM58.8907 75.936C58.8956 75.9995 59.0279 76.0545 59.2823 76.0366C59.6003 76.0143 59.791 76.0004 59.7872 75.937L59.7188 75.8774L59.3321 75.8403L58.8907 75.936ZM62.9903 67.7798C62.8629 67.7887 62.8128 67.9843 62.8262 68.1753L62.7852 68.4975C62.8903 68.1707 63.1404 68.0888 63.127 67.8979L62.9903 67.7798ZM87.3301 67.0942L87.9981 67.4946L87.9805 67.2397C87.9754 67.1761 87.7756 67.0625 87.585 67.0757L87.3301 67.0942ZM64.8077 61.7671C64.4523 62.176 63.1332 66.171 63.169 66.6802L63.2462 66.8667C63.4373 66.853 64.4612 62.3028 64.8165 61.894L64.8077 61.7671ZM65.0635 60.854C64.8725 60.8675 64.6405 61.203 64.6583 61.4575C64.6672 61.5848 64.7351 61.6441 64.8624 61.6352C64.9898 61.6263 65.1588 61.2945 65.209 61.0991C65.1956 60.9083 65.1272 60.8495 65.0635 60.854ZM65.8126 58.7544C65.6852 58.7633 65.2156 59.3715 65.2422 59.7534L65.3243 60.0034C65.5155 59.9885 65.9523 58.9372 65.9483 58.8725L65.8126 58.7544Z" fill="#EDE9DE"/>
<path d="M59.6729 17.1587C60.2475 17.1198 63.4281 19.5819 64.8145 20.188C65.7553 20.8254 66.3048 21.3629 67.5909 22.3599C67.0424 24.5734 65.7002 29.1455 62.6104 37.9975C56.8504 54.394 53.8422 67.1432 53.8897 73.2807C53.9525 74.1714 54.8528 74.2363 54.8712 74.4907C54.8801 74.618 54.7568 74.6906 54.502 74.7085L53.9249 74.685C53.7976 74.694 53.734 74.6987 53.7383 74.7622C53.7473 74.8895 54.0106 74.9991 54.4151 75.2905C54.4196 75.3542 54.3554 75.3586 54.1007 75.3764C53.4639 75.4209 52.7909 74.9569 50.7501 74.1411C47.1767 72.4733 45.185 71.4613 44.9532 70.9018C44.8079 70.6562 44.7942 70.4647 44.7852 70.3374L44.7813 70.2739C44.8464 70.2713 45.2587 70.6881 45.3858 70.6792C44.9499 69.9422 44.7537 69.8917 44.6641 68.6186C44.3692 64.4164 50.7898 42.8572 53.7344 33.7593C55.7609 27.9879 54.8165 30.9329 56.6563 25.2388C57.1321 22.9026 58.3854 20.7034 58.6602 19.1489C58.7472 18.5676 59.5661 17.4878 59.5587 17.3589C59.5497 17.2316 59.6092 17.1632 59.6729 17.1587Z" fill="#EDE9DE"/>
<path fill-rule="evenodd" clip-rule="evenodd" d="M216.037 4.00243C217.338 4.29516 221.153 5.7541 222.239 6.6372C222.93 7.35597 223.912 7.67081 223.957 8.30712C223.982 10.4803 219.602 21.0232 216.905 28.185C215.92 30.5561 214.912 33.5037 214.92 33.6333C214.92 33.6333 210.236 48.0347 208.518 54.5522C206.96 60.61 206.329 63.4694 206.418 64.7427C206.472 65.5065 206.668 65.557 207.118 65.5893C207.436 65.5669 207.491 65.4353 207.791 65.1587C207.618 65.4263 207.431 65.5038 207.449 65.7583L207.526 65.9448C207.553 66.327 206.52 67.9971 206.087 68.2202C205.705 68.247 204.513 67.6914 203.157 67.5307C202.053 67.2887 200.664 66.6199 200.652 66.4917C200.643 66.3644 200.966 66.4051 200.957 66.2778C200.884 66.1551 200.62 66.0457 199.665 66.1128C197.627 66.2559 196.585 66.0093 196.482 64.5454C196.174 60.1536 202.712 39.3548 203.097 37.5347C203.092 37.471 203.028 37.4749 202.9 37.4839L202.582 37.5063L196.203 38.7222C195.193 38.921 193.423 39.2373 192.408 39.3725C190.065 39.729 189.692 39.8833 189.372 40.8013C189.208 41.1973 188.427 43.746 187.578 46.2358C183.876 57.3063 183.077 59.6019 182.646 62.5747C182.65 62.6382 182.651 62.6377 182.714 62.6333C182.896 62.4926 183.02 62.4207 183.274 62.4028C183.402 62.394 183.533 62.4485 183.542 62.5757L183.492 62.771C183.501 62.8983 183.506 62.962 183.701 63.0122C183.892 62.9985 184.124 62.6624 184.315 62.6489C184.57 62.631 184.702 62.686 184.92 63.0542C184.947 63.4361 184.449 64.5592 184.131 64.5815C183.749 64.6089 183.671 65.3169 183.353 65.3393L183.093 65.2934C182.711 65.3207 182.751 65.8928 182.306 65.9243C181.796 65.9601 181.178 65.3639 179.281 64.7934C178.435 64.597 177.581 64.2737 177.244 64.0415C176.767 63.6274 175.794 63.4398 175.767 63.0581C175.735 62.6125 174.185 62.4009 174.108 61.3188C173.988 59.5988 179.342 43.808 179.821 42.4311C179.872 42.2357 179.972 41.8451 179.945 41.4634C179.932 41.2725 179.914 41.0174 179.773 40.8354C179.878 40.5085 179.86 40.2539 179.847 40.063C179.806 39.4901 179.525 39.1255 178.711 38.479C178.116 38.2009 177.88 37.5779 177.767 36.8823C177.74 36.5008 178.239 36.3377 178.227 36.147C178.218 36.0197 178.082 35.9007 177.741 35.605C176.91 34.704 176.483 34.0943 176.456 33.7124C176.429 33.3305 176.98 32.9714 179.688 32.3335C181.257 31.9034 182.632 31.4232 182.818 31.3462C183.183 31.0638 184.412 26.6937 184.749 26.0298C184.882 25.1889 185.794 22.6937 187.072 19.022C187.303 18.5289 187.597 17.7231 187.809 17.0532C187.004 17.1118 185.522 17.2241 184.204 17.3677C180.974 17.8504 170.026 19.6435 169.907 19.7798C169.205 20.7267 164.632 30.3216 162.42 35.2739C158.935 43.0667 155.548 53.1554 153.92 60.9458C153.216 63.6815 152.816 67.9949 152.892 69.0776C152.914 69.3959 153.114 69.5106 153.154 70.0835C153.204 70.7835 153.057 71.4329 152.483 71.4731C151.974 71.5087 150.774 70.8258 148.718 70.7143C147.176 70.6308 146.522 70.4212 146.494 70.0395L146.535 69.7163C146.522 69.5255 146.322 69.4115 146.067 69.4292C145.622 69.4605 145.211 70.0014 144.765 70.0327C144.319 70.0636 144.029 69.5729 143.365 69.2358C143.029 69.0036 142.819 68.7615 142.788 68.3159C142.744 67.6788 143.101 65.4799 143.339 64.312C143.513 63.1485 143.956 62.1578 144.402 61.2309L144.334 61.1714L144.143 61.185C144.12 60.8668 144.936 59.7217 144.923 59.5308L144.855 59.4712L144.673 59.6128C144.659 59.4218 145.347 58.2858 145.32 57.9038L145.315 57.8403C145.302 57.6494 145.653 57.1768 146.346 56.105L146.446 55.7134L145.399 56.2993C146.211 55.0909 146.393 54.9499 146.84 54.0229L146.166 54.4536C146.149 54.198 147.018 52.9228 147.005 52.7319L146.937 52.6724L146.814 52.7456L146.56 52.7632C146.546 52.5721 147.134 51.8272 147.12 51.6362L147.047 51.5132C147.034 51.3213 147.412 50.3378 147.399 50.146L147.326 50.0229C147.587 49.1731 147.883 48.8322 147.865 48.5776C147.802 48.5821 147.801 48.5817 147.797 48.5181C147.757 47.9438 148.767 44.1003 149.286 43.2964C149.527 43.0876 149.692 42.6925 149.674 42.438C149.726 40.4513 151.493 35.5296 154.608 27.9546C155.981 24.7243 157.071 22.0252 157.063 21.897L156.803 21.8511C154.341 22.3437 154.137 22.1667 151.943 22.8325C151.37 22.8728 150.61 22.9895 150.301 23.1391C149.049 23.5469 146.888 23.7632 143.648 24.1186C139.827 24.387 139.418 24.0312 139.382 23.522L139.433 23.3266C139.388 22.69 138.652 21.3349 138.192 21.1753C137.793 20.9474 137.752 20.3744 137.253 19.6421C137.108 19.3964 136.963 19.1504 136.949 18.9595L137.059 18.6958C137.049 18.5689 136.731 18.5907 136.718 18.3999C136.71 18.2723 137.195 17.9189 137.178 17.6645C137.146 17.219 136.252 16.3219 136.225 15.9399C136.207 15.6855 136.584 15.5947 137.412 15.5366L138.113 15.4878C139.515 15.3893 141.726 14.9779 141.967 14.769C150.621 13.1378 147.987 13.8983 149.552 13.4048C151.399 13.275 153.72 12.6002 162.252 11.0415C164.266 7.82973 164.641 6.78031 165.469 6.72216C166.62 6.70535 168.546 7.72064 168.583 8.22997L168.656 8.35302L168.906 8.27196C169.161 8.25414 169.378 8.6225 169.405 9.00438C169.309 9.45837 169.423 9.25866 169.132 9.66259C169.564 9.44036 169.678 9.24083 170.124 9.20946C170.443 9.18709 170.77 9.29233 170.852 9.54247C170.861 9.66949 171.499 9.62493 173.09 9.51317C181.107 8.82222 176.785 9.2537 184.86 8.49462C186.771 8.36044 187.226 8.45578 187.563 8.68798C188.026 8.91128 188.24 9.21666 188.28 9.78954C188.316 10.2987 188.324 10.4264 188.006 10.4487L186.979 10.3931L186.856 10.4653C186.865 10.5926 187.128 10.7021 187.537 11.0571C187.542 11.1207 187.477 11.1248 187.286 11.1382L185.817 11.1782C183.461 11.3437 176.853 11.9992 176.749 12.3901C176.754 12.4538 176.949 12.5047 177.204 12.4868C179.102 12.1617 182.596 11.788 185.717 11.5688C187.441 11.5117 188.26 11.326 188.751 11.9311C188.964 12.2359 189.055 12.6135 189.273 12.9819C189.29 13.2365 188.449 13.1041 188.472 13.4224C188.558 13.7358 188.48 13.5496 188.63 13.8589C188.643 14.0498 188.138 14.1487 186.801 14.2427C184.508 14.4037 182.424 14.8068 182.246 15.0112C182.252 15.0744 182.571 15.0524 183.143 15.0122C184.735 14.9004 185.176 14.805 187.655 14.5669C188.326 14.5198 188.631 14.5304 188.795 14.5913C189.616 12.4965 190.415 10.1258 190.386 9.70555L190.24 9.45946L190.568 9.56493C190.759 9.55054 190.587 8.92275 191.216 7.85595C191.859 6.0837 192.64 4.42999 193.145 4.33055C193.782 4.28601 195.037 4.8377 195.923 5.60692C196.403 6.08347 197.001 6.42418 197.067 6.42137C197.65 6.50841 198.945 7.63295 198.977 8.0786L198.982 8.14208C198.999 8.39669 199.068 8.45587 199.322 8.43798L199.764 8.34325C199.891 8.33451 199.899 8.46213 199.908 8.58934C199.962 9.35319 199.724 10.5225 196.521 19.5737C194.658 24.9497 193.17 29.2763 193.184 29.4673C193.189 29.5305 193.316 29.5211 193.443 29.5122C194.591 29.4314 198.927 28.2965 202.557 28.0415C205.609 27.7631 206.374 27.7089 206.415 27.3862C206.525 27.1227 208.51 21.6738 208.926 20.3013C210.874 15.239 214.911 5.29716 215.436 4.55614C215.668 4.21998 215.846 4.01585 216.037 4.00243ZM160.305 23.396C160.177 23.4049 159.066 24.8897 159.083 25.145C159.11 25.5269 158.161 27.5126 158.098 27.5171C157.843 27.535 157.988 27.781 157.405 28.5893C157.305 28.9802 157.068 29.2532 157.072 29.3169L157.208 29.435C157.243 29.9448 155.217 32.9646 155.252 33.4741C155.261 33.6014 154.34 35.9693 153.993 36.5054C153.706 36.9733 153.746 37.5457 153.29 38.3452C152.998 38.7495 152.903 39.2044 152.907 39.2681C152.943 39.7773 151.877 41.0039 151.891 41.1948L152.259 40.977L152.327 41.0356C151.589 42.3665 151.484 42.6941 151.502 42.9487L151.748 42.8042C151.811 42.7997 151.811 42.7994 151.815 42.8628C151.824 42.9901 150.996 43.9436 151.023 44.3257L151.105 44.5757C151.127 44.8939 150.438 46.0299 150.456 46.2847C150.474 46.5393 150.205 47.2619 149.817 48.1206L149.89 48.2436C149.898 48.3715 149.47 49.5529 149.479 49.6802C149.496 49.9355 149.054 50.925 149.013 51.2475L149.086 51.3706C149.108 51.6889 148.511 52.3068 148.547 52.8159C148.433 53.0161 148.342 53.5342 148.173 53.8657C148.063 54.1291 147.95 54.3291 147.963 54.52L148.044 54.77C148.053 54.8974 148.012 55.2198 147.839 55.4878C147.565 56.1465 147.391 57.31 147.309 57.9556C147.322 58.1465 147.217 58.4745 147.048 58.8061C146.943 59.1325 146.902 59.4544 146.906 59.519C146.929 59.8373 146.806 59.9103 146.605 60.6919C146.618 60.8828 146.864 60.7382 146.877 60.9292C146.621 61.842 146.776 61.3196 146.389 62.1782C146.393 62.2418 146.394 62.2422 146.457 62.2378L146.708 62.1558C146.73 62.474 146.201 63.1516 146.232 63.5972C146.259 63.9807 146.079 66.8692 145.818 67.7192C145.827 67.8465 145.96 67.902 146.087 67.8931C146.342 67.8751 146.488 67.2245 146.612 66.2563C146.897 63.9325 150.177 51.4223 151.387 47.6909C151.811 46.4457 152.2 44.691 153.761 40.4878C154.897 37.5294 158.319 28.8448 159.819 25.605C160.207 24.7462 160.536 23.9554 160.514 23.6372C160.5 23.4467 160.432 23.3872 160.305 23.396ZM182.266 65.352L182.206 65.4204C182.211 65.4836 182.274 65.4787 182.465 65.4653C182.656 65.4519 182.784 65.443 182.779 65.3794L182.774 65.3159L182.516 65.27L182.266 65.352ZM148.206 64.354C147.965 64.5627 147.91 64.6948 147.941 65.1401L147.96 65.394C148.188 64.9946 148.302 64.7942 148.279 64.4761L148.206 64.354ZM148.372 63.063C148.026 63.599 148.199 63.3309 147.984 63.9214C147.989 63.985 148.057 64.0439 148.12 64.0395C148.307 63.9625 148.497 63.9494 148.471 63.5679L148.372 63.063ZM154.127 42.9565C153.84 43.4245 153.68 43.8837 153.693 44.0747C152.886 46.2419 153.314 45.9564 152.457 47.4233C152.165 47.8276 151.992 48.096 151.996 48.1597L152.246 48.0776C152.31 48.0732 152.315 48.1371 152.319 48.2007C152.337 48.4553 151.694 49.3326 151.717 49.6509L151.79 49.7729C151.808 50.0276 151.023 51.6185 151.027 51.6821L151.21 51.5415L151.278 51.6001C151.301 51.9184 151.004 52.2593 150.63 53.3091L150.703 53.4321C150.725 53.7507 150.274 54.6138 150.301 54.9956L150.378 55.1821C150.395 55.4373 149.758 56.3766 149.78 56.6948L149.93 57.0044C149.965 57.5137 149.228 58.8449 149.126 60.1313C149.067 60.1994 149.089 60.5173 148.98 60.7808C148.665 61.7623 148.518 62.4127 148.54 62.7309L148.686 62.977C148.94 62.9591 149.276 60.4403 149.823 59.1225C151.216 54.3555 150.552 54.9141 151.144 54.2329C151.281 53.4557 151.714 52.3376 151.66 51.5737C151.593 50.6189 152.678 48.7509 152.802 47.7827C152.826 47.2046 153.938 44.8248 153.885 44.061C153.866 43.7973 153.963 43.4489 154.17 42.8882C154.156 42.9105 154.143 42.9344 154.127 42.9565ZM150.638 58.8735C150.41 59.2733 150.455 59.0143 150.423 59.4643C150.432 59.5917 150.505 59.7149 150.568 59.7104C150.696 59.7013 150.741 59.4423 150.728 59.2515C150.714 59.0608 150.701 58.8697 150.638 58.8735ZM151.588 55.0972C151.524 55.1024 151.318 55.8198 151.117 56.6011C150.912 57.3187 150.816 57.7733 150.829 57.9643L150.898 58.0239C151.473 56.1932 151.61 55.4157 151.588 55.0972ZM152.059 53.5923C151.931 53.6012 151.653 54.1967 151.68 54.5786L151.697 54.8335C151.925 54.4337 152.107 54.2924 152.085 53.9741L152.059 53.5923ZM152.451 51.9018C152.324 51.9111 152.274 52.1063 152.164 52.3696C152.178 52.5605 152.191 52.7514 152.318 52.7427C152.446 52.7337 152.555 52.4697 152.597 52.147C152.583 51.9563 152.515 51.8974 152.451 51.9018ZM153.018 49.9429C152.671 50.4787 152.844 50.2109 152.63 50.8013C152.634 50.8649 152.703 50.9249 152.767 50.9204C152.949 50.7797 153.135 50.7023 153.117 50.4477L153.018 49.9429ZM153.648 47.98C153.52 47.9893 153.407 48.1895 153.379 48.7026L153.451 48.8247C153.629 48.6204 153.684 48.4884 153.666 48.2339L153.648 47.98ZM154.405 46.0073C154.025 46.034 153.955 46.862 153.954 46.8706C154.145 46.8568 154.491 46.3214 154.478 46.1304L154.405 46.0073ZM155.213 43.8393C155.086 43.8483 155.031 43.9804 154.917 44.1802L154.871 44.439C155.176 44.2257 155.231 44.0939 155.213 43.8393ZM155.069 40.561C154.91 40.9081 154.685 41.3695 154.446 42.0386L154.451 42.102C154.451 42.102 154.449 42.1305 154.441 42.1792C154.613 41.7413 154.821 41.2104 155.069 40.561ZM156.596 36.1948C156.532 36.1993 156.304 36.5986 156.035 37.3208L155.925 37.5845C156.394 36.9758 156.677 36.4442 156.668 36.3169C156.664 36.2534 156.659 36.1904 156.596 36.1948ZM157.403 34.0268C157.34 34.0315 157.117 34.495 156.843 35.1538L156.733 35.4175C157.198 34.7454 157.489 34.3409 157.476 34.1499L157.403 34.0268ZM161.708 21.5063C161.057 22.2555 160.765 22.6602 160.773 22.7876C160.778 22.8511 160.851 22.9733 160.914 22.9692L161.708 21.5063ZM175.506 17.4673C175.315 17.4807 175.197 17.6164 175.201 17.6802C175.21 17.8074 175.219 17.935 175.346 17.9263C175.473 17.9173 175.592 17.7806 175.701 17.5171C175.697 17.4538 175.633 17.4583 175.506 17.4673ZM176.799 16.7368C176.735 16.7413 176.753 16.996 176.767 17.187C176.78 17.3779 176.857 17.5641 176.984 17.5552C177.048 17.5504 177.103 17.4186 177.094 17.2915C177.076 17.037 176.99 16.7237 176.799 16.7368ZM178.696 16.4116C178.06 16.4563 178.068 16.5835 178.023 16.8423C178.04 17.0969 178.249 17.3381 178.44 17.3247L178.564 17.2524C178.627 17.2477 178.686 17.1793 178.677 17.0522L178.605 16.9302C178.6 16.8665 178.842 16.6572 178.828 16.4663C178.828 16.4663 178.823 16.4028 178.696 16.4116ZM188.567 15.1577C187.487 15.3634 184.922 15.4405 182.759 15.9341L181.362 16.0962C181.171 16.1096 180.998 16.3776 181.021 16.6958C181.043 17.0141 181.116 17.1374 181.243 17.1284C181.498 17.11 182.099 16.5564 182.354 16.5386C182.417 16.5341 182.481 16.5296 182.485 16.5933C182.49 16.6569 182.877 16.6932 183.577 16.644C186.226 16.3309 187.366 16.1237 188.192 16.064C188.315 15.7795 188.44 15.4741 188.567 15.1577ZM180.152 16.1811C179.647 16.2806 179.388 16.2352 179.428 16.8081C179.441 16.9989 179.578 17.1173 179.769 17.104C180.023 17.0861 180.324 16.8086 180.365 16.4858C180.347 16.2318 180.28 16.1723 180.152 16.1811ZM180.135 15.0308C179.825 15.1803 179.699 15.1898 179.703 15.2534C179.708 15.2572 179.777 15.3122 179.962 15.2993C180.28 15.2769 180.407 15.2674 180.398 15.1401L180.135 15.0308ZM175.971 12.2534C175.662 12.4027 175.339 12.3616 175.353 12.5522C175.362 12.6795 175.616 12.6623 175.807 12.6489C175.998 12.6355 176.116 12.4985 176.171 12.3667C176.166 12.3032 176.098 12.2445 175.971 12.2534Z" fill="#EDE9DE"/>
<path d="M266.457 0.0131718C267.349 -0.0494535 268.127 0.0875952 268.699 0.942859C270.112 2.82655 271.863 7.69287 272.27 9.83934L272.224 10.0991C271.887 9.86686 271.992 9.53913 271.715 9.23876C271.524 9.25219 271.504 9.89381 271.453 10.9849C271.008 10.1206 270.977 9.67501 269.513 9.77782C265.564 10.0552 254.189 15.7792 250.817 19.7261C249.925 20.6843 249.021 22.4114 249.053 22.8569C258.985 29.3876 261.641 30.7356 266.565 37.938C269.712 42.6424 270.96 44.9219 271.121 47.2134C271.524 52.9421 264.576 61.5536 251.73 65.4624C249.477 66.1963 247.779 66.6356 246.505 66.7251C245.932 66.7653 245.418 66.7381 244.963 66.6421C244.249 66.5003 242.699 65.3932 238.576 62.2925C233.163 58.131 232.281 57.4252 232.133 55.3247C232.095 52.9609 232.121 54.2378 232.261 51.6694C232.366 51.3421 232.452 50.7605 232.443 50.6333C232.963 46.183 236.654 36.7764 238.692 36.6333C239.521 36.5757 241.816 38.2693 241.86 38.9058C241.701 39.3647 241.747 39.1059 241.719 39.6196C241.755 40.1288 242.704 40.8927 243.023 40.8706C243.277 40.8527 243.265 40.6624 243.638 40.5083L243.527 40.772C243.556 41.1537 245.824 41.5699 245.883 42.397C245.901 42.6515 245.677 43.1154 245.294 44.0376C243.209 48.9814 242.668 53.1136 242.472 57.605L243.914 57.1841C243.949 57.171 247.659 55.7673 248.57 55.1304L250.905 53.7505C257.361 49.9708 263.004 43.7532 263.159 39.5845C263.105 38.8208 262.359 38.2334 258.741 35.9292C249.895 30.2818 249.554 29.9859 246.125 24.9175C242.188 18.9897 242.11 18.8024 242.025 17.5933C241.94 16.3838 242.224 14.9559 242.639 14.479C242.821 14.3384 242.998 14.1346 242.989 14.0073L242.922 13.9477C242.895 13.5657 245.022 11.05 246.352 9.93309C252.157 5.1117 262.189 0.313107 266.457 0.0131718Z" fill="#EDE9DE"/>
<path d="M230.667 5.14989C231.241 5.11081 234.422 7.57211 235.809 8.17821C236.75 8.81576 237.3 9.35298 238.586 10.3501C238.038 12.5635 236.695 17.1361 233.605 25.9888C227.845 42.3848 224.836 55.1334 224.884 61.271C224.947 62.1621 225.847 62.2273 225.865 62.4819C225.874 62.6091 225.751 62.6818 225.496 62.6997L224.919 62.6763C224.792 62.6852 224.728 62.6898 224.732 62.7534C224.742 62.8806 225.005 62.9905 225.409 63.2817C225.413 63.345 225.35 63.3498 225.096 63.3677C224.459 63.4124 223.786 62.9474 221.744 62.1313C218.17 60.4633 216.179 59.4515 215.947 58.8921C215.802 58.6466 215.788 58.4559 215.779 58.3286L215.775 58.2651C215.84 58.2623 216.253 58.6793 216.38 58.6704C215.944 57.9334 215.748 57.8829 215.658 56.6099C215.363 52.4087 221.784 30.8489 224.729 21.7505C226.755 15.979 225.811 18.9234 227.65 13.229C228.126 10.8929 229.38 8.69359 229.654 7.13915C229.742 6.55723 230.562 5.47639 230.553 5.34911C230.544 5.22194 230.603 5.15436 230.667 5.14989Z" fill="#EDE9DE"/>
</svg>
