<svg width="2000" height="480" viewBox="0 0 2000 480" fill="none" xmlns="http://www.w3.org/2000/svg">
<path d="M1946.99 278.154C1953.58 278.154 1959.88 279.031 1965.89 280.786C1972.05 282.395 1977.32 284.955 1981.72 288.465C1986.26 291.829 1989.85 296.071 1992.49 301.19C1995.27 306.163 1996.67 311.941 1996.67 318.523C1996.67 324.812 1995.64 330.005 1993.59 334.1C1991.68 338.196 1989.12 341.779 1985.89 344.851C1982.82 347.922 1979.3 350.774 1975.34 353.407C1971.53 356.04 1967.8 358.892 1964.13 361.964C1960.03 365.328 1957.03 368.911 1955.12 372.714C1953.36 376.517 1952.48 381.125 1952.48 386.536V392.241H1933.8V387.414C1933.8 378.638 1935.12 371.544 1937.76 366.132C1940.54 360.72 1944.64 355.821 1950.07 351.433C1953.29 348.654 1956.37 346.24 1959.3 344.192C1962.23 342.145 1964.72 339.951 1966.77 337.611C1968.97 335.27 1970.65 332.711 1971.83 329.932C1973.15 327.006 1973.81 323.496 1973.81 319.4C1973.81 315.598 1973.07 312.233 1971.61 309.308C1970.14 306.237 1968.09 303.677 1965.45 301.629C1962.96 299.582 1960.03 298.046 1956.66 297.022C1953.44 295.998 1949.92 295.486 1946.11 295.486C1940.98 295.486 1936.44 296.291 1932.48 297.899C1928.53 299.508 1925.23 301.775 1922.59 304.701C1919.95 307.48 1917.9 310.844 1916.44 314.793C1914.97 318.596 1914.02 322.691 1913.58 327.079H1892.48C1893.21 319.035 1894.9 312.014 1897.53 306.017C1900.32 299.874 1903.98 294.755 1908.52 290.659C1913.21 286.418 1918.71 283.273 1925.01 281.225C1931.46 279.177 1938.78 278.154 1946.99 278.154ZM1930.72 410.012H1955.34V434.804H1930.72V410.012Z" fill="#EDE9DE"/>
<path d="M1834.58 334.758C1829.16 334.758 1824.32 335.636 1820.07 337.391C1815.97 339.146 1812.38 341.56 1809.3 344.631C1806.22 347.557 1803.73 350.994 1801.83 354.943C1799.92 358.892 1798.68 362.914 1798.09 367.01H1870.63C1869.89 362.329 1868.5 358.088 1866.45 354.285C1864.54 350.336 1862.05 346.898 1858.98 343.973C1856.05 341.048 1852.53 338.781 1848.43 337.172C1844.32 335.563 1839.71 334.758 1834.58 334.758ZM1834.58 318.523C1846.3 318.523 1856.41 321.375 1864.91 327.079C1873.56 332.637 1880 340.097 1884.25 349.458C1886.75 354.431 1888.5 359.843 1889.53 365.693C1890.56 371.398 1890.77 377.395 1890.19 383.684H1797.43C1797.58 388.95 1798.6 393.923 1800.51 398.603C1802.41 403.284 1805.05 407.379 1808.42 410.89C1811.79 414.4 1815.75 417.179 1820.29 419.227C1824.98 421.274 1830.18 422.298 1835.9 422.298C1843.66 422.298 1850.48 420.543 1856.34 417.033C1862.35 413.522 1866.89 408.403 1869.97 401.675H1889.75C1887.84 407.379 1885.13 412.498 1881.62 417.033C1878.1 421.567 1874 425.37 1869.31 428.441C1864.62 431.513 1859.49 433.853 1853.92 435.462C1848.5 437.217 1842.78 438.095 1836.78 438.095C1828.13 438.095 1820.14 436.632 1812.82 433.707C1805.64 430.782 1799.41 426.686 1794.13 421.421C1788.86 416.155 1784.68 409.866 1781.6 402.552C1778.67 395.239 1777.21 387.121 1777.21 378.199C1777.21 370.008 1778.6 362.256 1781.38 354.943C1784.32 347.63 1788.27 341.34 1793.25 336.075C1798.38 330.663 1804.46 326.421 1811.5 323.35C1818.53 320.132 1826.23 318.523 1834.58 318.523Z" fill="#EDE9DE"/>
<path d="M1711.59 318.742C1718.33 318.742 1724.63 319.693 1730.49 321.594C1736.5 323.35 1741.85 326.056 1746.54 329.712C1751.37 333.223 1755.47 337.684 1758.84 343.095C1762.21 348.361 1764.71 354.431 1766.32 361.306H1746.1C1744.92 357.356 1743.31 353.773 1741.26 350.555C1739.21 347.337 1736.64 344.631 1733.57 342.437C1730.64 340.243 1727.34 338.561 1723.68 337.391C1720.01 336.075 1716.06 335.417 1711.81 335.417C1705.65 335.417 1700.16 336.587 1695.32 338.927C1690.63 341.267 1686.67 344.412 1683.45 348.361C1680.23 352.31 1677.74 356.918 1675.98 362.183C1674.37 367.302 1673.56 372.714 1673.56 378.419C1673.56 384.123 1674.44 389.608 1676.2 394.873C1677.96 399.993 1680.37 404.527 1683.45 408.476C1686.67 412.425 1690.63 415.57 1695.32 417.91C1700.16 420.104 1705.65 421.201 1711.81 421.201C1716.06 421.201 1720.01 420.616 1723.68 419.446C1727.34 418.276 1730.64 416.594 1733.57 414.4C1736.64 412.06 1739.21 409.354 1741.26 406.282C1743.31 403.064 1744.92 399.481 1746.1 395.532H1766.32C1763.09 409.427 1756.57 420.031 1746.75 427.344C1736.94 434.511 1725.21 438.095 1711.59 438.095C1703.38 438.095 1695.76 436.632 1688.73 433.707C1681.69 430.635 1675.61 426.394 1670.48 420.982C1665.35 415.57 1661.25 409.207 1658.17 401.894C1655.24 394.581 1653.78 386.756 1653.78 378.419C1653.78 369.935 1655.24 362.11 1658.17 354.943C1661.25 347.63 1665.28 341.267 1670.26 335.855C1675.39 330.443 1681.47 326.275 1688.51 323.35C1695.54 320.278 1703.23 318.742 1711.59 318.742Z" fill="#EDE9DE"/>
<path d="M1595.55 318.523C1602.29 318.523 1608.23 319.62 1613.35 321.814C1618.48 323.862 1622.81 326.86 1626.32 330.809C1629.99 334.612 1632.7 339.146 1634.46 344.412C1636.36 349.531 1637.31 355.162 1637.31 361.306V434.804H1616.43V363.938C1616.43 359.843 1615.92 356.113 1614.89 352.749C1613.87 349.239 1612.26 346.167 1610.06 343.534C1608.01 340.901 1605.3 338.854 1601.93 337.391C1598.7 335.928 1594.74 335.197 1590.06 335.197C1585.07 335.197 1580.68 336.294 1576.87 338.488C1573.06 340.682 1569.83 343.607 1567.2 347.264C1564.7 350.774 1562.8 354.797 1561.48 359.331C1560.16 363.719 1559.5 368.253 1559.5 372.934V434.804H1538.62V321.814H1556.65L1557.96 338.049C1562.07 331.614 1567.42 326.787 1574.01 323.569C1580.6 320.205 1587.78 318.523 1595.55 318.523Z" fill="#EDE9DE"/>
<path d="M1463.87 334.758C1458.45 334.758 1453.61 335.636 1449.36 337.391C1445.26 339.146 1441.67 341.56 1438.59 344.631C1435.51 347.557 1433.02 350.994 1431.12 354.943C1429.21 358.892 1427.97 362.914 1427.38 367.01H1499.92C1499.19 362.329 1497.79 358.088 1495.74 354.285C1493.84 350.336 1491.35 346.898 1488.27 343.973C1485.34 341.048 1481.82 338.781 1477.72 337.172C1473.61 335.563 1469 334.758 1463.87 334.758ZM1463.87 318.523C1475.59 318.523 1485.7 321.375 1494.2 327.079C1502.85 332.637 1509.3 340.097 1513.55 349.458C1516.04 354.431 1517.8 359.843 1518.82 365.693C1519.85 371.398 1520.07 377.395 1519.48 383.684H1426.72C1426.87 388.95 1427.9 393.923 1429.8 398.603C1431.71 403.284 1434.34 407.379 1437.71 410.89C1441.08 414.4 1445.04 417.179 1449.58 419.227C1454.27 421.274 1459.47 422.298 1465.19 422.298C1472.96 422.298 1479.77 420.543 1485.63 417.033C1491.64 413.522 1496.18 408.403 1499.26 401.675H1519.04C1517.14 407.379 1514.43 412.498 1510.91 417.033C1507.39 421.567 1503.29 425.37 1498.6 428.441C1493.91 431.513 1488.78 433.853 1483.21 435.462C1477.79 437.217 1472.08 438.095 1466.07 438.095C1457.42 438.095 1449.44 436.632 1442.11 433.707C1434.93 430.782 1428.7 426.686 1423.43 421.421C1418.15 416.155 1413.97 409.866 1410.9 402.552C1407.97 395.239 1406.5 387.121 1406.5 378.199C1406.5 370.008 1407.89 362.256 1410.68 354.943C1413.61 347.63 1417.56 341.34 1422.55 336.075C1427.68 330.663 1433.76 326.421 1440.79 323.35C1447.82 320.132 1455.52 318.523 1463.87 318.523Z" fill="#EDE9DE"/>
<path d="M1343.02 318.523C1349.32 318.523 1355.25 319.254 1360.82 320.717C1366.54 322.033 1371.52 324.154 1375.77 327.079C1380.16 330.005 1383.75 333.734 1386.54 338.269C1389.47 342.803 1391.3 348.215 1392.03 354.504H1372.69C1371.23 347.483 1367.86 342.437 1362.58 339.366C1357.31 336.294 1350.56 334.758 1342.36 334.758C1338.84 334.758 1335.62 335.124 1332.69 335.855C1329.76 336.587 1327.19 337.61 1324.99 338.927C1322.8 340.243 1321.11 341.925 1319.94 343.973C1318.77 345.875 1318.18 348.068 1318.18 350.555C1318.18 354.358 1319.21 357.356 1321.26 359.55C1323.45 361.744 1326.17 363.5 1329.39 364.816C1332.76 365.986 1336.35 366.937 1340.16 367.668C1344.12 368.253 1347.93 368.838 1351.59 369.423C1357.16 370.301 1362.51 371.471 1367.64 372.934C1372.76 374.396 1377.23 376.444 1381.04 379.077C1385 381.71 1388.15 385.074 1390.5 389.169C1392.84 393.265 1394.01 398.384 1394.01 404.527C1394.01 410.378 1392.62 415.497 1389.84 419.885C1387.2 424.127 1383.61 427.637 1379.07 430.416C1374.67 433.049 1369.61 434.95 1363.9 436.12C1358.18 437.437 1352.32 438.095 1346.31 438.095C1339.28 438.095 1332.69 437.217 1326.53 435.462C1320.38 433.853 1315.03 431.367 1310.49 428.003C1306.09 424.638 1302.5 420.47 1299.72 415.497C1297.08 410.524 1295.54 404.673 1295.1 397.945H1315.32C1315.62 402.333 1316.64 406.063 1318.4 409.134C1320.16 412.06 1322.43 414.473 1325.21 416.375C1328.14 418.276 1331.44 419.665 1335.1 420.543C1338.91 421.421 1342.94 421.859 1347.19 421.859C1350.56 421.859 1353.86 421.64 1357.09 421.201C1360.31 420.616 1363.24 419.665 1365.88 418.349C1368.51 417.033 1370.57 415.351 1372.03 413.303C1373.64 411.255 1374.45 408.696 1374.45 405.624C1374.45 401.675 1373.28 398.457 1370.93 395.97C1368.59 393.484 1365.58 391.509 1361.92 390.047C1358.4 388.438 1354.45 387.195 1350.05 386.317C1345.8 385.439 1341.63 384.635 1337.52 383.904C1332.69 383.026 1327.92 381.929 1323.24 380.613C1318.55 379.15 1314.37 377.248 1310.71 374.908C1307.04 372.422 1304.04 369.277 1301.69 365.474C1299.5 361.671 1298.4 357.064 1298.4 351.652C1298.4 345.801 1299.72 340.828 1302.35 336.733C1305.14 332.491 1308.65 329.054 1312.9 326.421C1317.15 323.642 1321.92 321.668 1327.19 320.497C1332.61 319.181 1337.89 318.523 1343.02 318.523Z" fill="#EDE9DE"/>
<path d="M1226.89 334.758C1221.47 334.758 1216.63 335.636 1212.38 337.391C1208.28 339.146 1204.69 341.56 1201.61 344.631C1198.54 347.557 1196.05 350.994 1194.14 354.943C1192.24 358.892 1190.99 362.914 1190.4 367.01H1262.94C1262.21 362.329 1260.82 358.088 1258.76 354.285C1256.86 350.336 1254.37 346.898 1251.29 343.973C1248.36 341.048 1244.84 338.781 1240.74 337.172C1236.64 335.563 1232.02 334.758 1226.89 334.758ZM1226.89 318.523C1238.61 318.523 1248.73 321.375 1257.22 327.079C1265.87 332.637 1272.32 340.097 1276.57 349.458C1279.06 354.431 1280.82 359.843 1281.84 365.693C1282.87 371.398 1283.09 377.395 1282.5 383.684H1189.74C1189.89 388.95 1190.92 393.923 1192.82 398.603C1194.73 403.284 1197.36 407.379 1200.73 410.89C1204.1 414.4 1208.06 417.179 1212.6 419.227C1217.29 421.274 1222.5 422.298 1228.21 422.298C1235.98 422.298 1242.79 420.543 1248.65 417.033C1254.66 413.522 1259.2 408.403 1262.28 401.675H1282.06C1280.16 407.379 1277.45 412.498 1273.93 417.033C1270.41 421.567 1266.31 425.37 1261.62 428.441C1256.93 431.513 1251.8 433.853 1246.23 435.462C1240.81 437.217 1235.1 438.095 1229.09 438.095C1220.44 438.095 1212.46 436.632 1205.13 433.707C1197.95 430.782 1191.72 426.686 1186.45 421.421C1181.17 416.155 1177 409.866 1173.92 402.552C1170.99 395.239 1169.52 387.121 1169.52 378.199C1169.52 370.008 1170.91 362.256 1173.7 354.943C1176.63 347.63 1180.59 341.34 1185.57 336.075C1190.7 330.663 1196.78 326.421 1203.81 323.35C1210.85 320.132 1218.54 318.523 1226.89 318.523Z" fill="#EDE9DE"/>
<path d="M1158.23 318.523C1159.26 318.523 1160.21 318.523 1161.09 318.523C1161.97 318.523 1162.7 318.596 1163.29 318.742C1164.02 318.742 1164.68 318.815 1165.27 318.962V338.269C1164.68 338.122 1164.02 337.976 1163.29 337.83C1162.56 337.83 1161.75 337.83 1160.87 337.83C1160.14 337.684 1159.26 337.611 1158.23 337.611C1153.4 337.611 1148.93 338.634 1144.82 340.682C1140.87 342.73 1137.35 345.728 1134.27 349.677C1131.34 353.627 1129.07 358.307 1127.46 363.719C1125.85 369.131 1125.04 375.054 1125.04 381.49V434.804H1104.16V321.814H1122.18L1124.16 345.728C1125.48 341.925 1127.17 338.342 1129.22 334.978C1131.42 331.614 1133.91 328.761 1136.69 326.421C1139.62 323.935 1142.92 322.033 1146.58 320.717C1150.25 319.254 1154.13 318.523 1158.23 318.523Z" fill="#EDE9DE"/>
<path d="M1027.86 335.417C1021.7 335.417 1016.13 336.587 1011.15 338.927C1006.32 341.267 1002.21 344.412 998.843 348.361C995.472 352.31 992.908 356.918 991.149 362.183C989.391 367.302 988.512 372.714 988.512 378.419C988.512 384.123 989.391 389.535 991.149 394.654C992.908 399.773 995.472 404.308 998.843 408.257C1002.21 412.206 1006.32 415.351 1011.15 417.691C1016.13 420.031 1021.7 421.201 1027.86 421.201C1034.01 421.201 1039.43 420.104 1044.12 417.91C1048.96 415.57 1052.99 412.425 1056.21 408.476C1059.44 404.527 1061.85 399.993 1063.47 394.873C1065.08 389.608 1065.88 384.123 1065.88 378.419C1065.88 372.714 1065.08 367.302 1063.47 362.183C1061.85 356.918 1059.44 352.31 1056.21 348.361C1053.13 344.412 1049.18 341.267 1044.34 338.927C1039.65 336.587 1034.16 335.417 1027.86 335.417ZM1030.27 318.523C1039.07 318.523 1046.91 320.132 1053.79 323.35C1060.68 326.421 1066.47 330.663 1071.16 336.075C1075.85 341.487 1079.36 347.849 1081.71 355.162C1084.2 362.329 1085.45 370.081 1085.45 378.419C1085.45 386.609 1084.2 394.362 1081.71 401.675C1079.36 408.842 1075.77 415.131 1070.94 420.543C1066.25 425.955 1060.46 430.27 1053.57 433.488C1046.83 436.559 1039.07 438.095 1030.27 438.095C1020.75 438.095 1012.4 436.12 1005.22 432.171C998.183 428.076 992.542 422.737 988.292 416.155V480H968.07V321.814H986.094L987.413 340.243C991.809 333.369 997.67 328.03 1005 324.227C1012.32 320.424 1020.75 318.523 1030.27 318.523Z" fill="#EDE9DE"/>
<path d="M519.735 334.758C514.313 334.758 509.477 335.636 505.227 337.391C501.124 339.146 497.534 341.56 494.457 344.631C491.38 347.557 488.888 350.994 486.983 354.943C485.079 358.892 483.833 362.914 483.247 367.01H555.783C555.05 362.329 553.658 358.088 551.606 354.285C549.701 350.336 547.21 346.898 544.133 343.973C541.202 341.048 537.685 338.781 533.582 337.172C529.479 335.563 524.863 334.758 519.735 334.758ZM519.735 318.523C531.458 318.523 541.569 321.375 550.068 327.079C558.714 332.637 565.161 340.097 569.411 349.458C571.902 354.431 573.66 359.843 574.686 365.693C575.712 371.398 575.932 377.395 575.345 383.684H482.587C482.734 388.95 483.76 393.923 485.665 398.603C487.57 403.284 490.207 407.379 493.578 410.89C496.948 414.4 500.905 417.179 505.447 419.227C510.136 421.274 515.338 422.298 521.053 422.298C528.82 422.298 535.634 420.543 541.495 417.033C547.503 413.522 552.046 408.403 555.123 401.675H574.906C573.001 407.379 570.29 412.498 566.773 417.033C563.256 421.567 559.153 425.37 554.464 428.441C549.775 431.513 544.646 433.853 539.078 435.462C533.656 437.217 527.941 438.095 521.933 438.095C513.287 438.095 505.301 436.632 497.974 433.707C490.793 430.782 484.566 426.686 479.29 421.421C474.015 416.155 469.839 409.866 466.761 402.552C463.831 395.239 462.365 387.121 462.365 378.199C462.365 370.008 463.757 362.256 466.542 354.943C469.472 347.63 473.429 341.34 478.411 336.075C483.54 330.663 489.621 326.421 496.655 323.35C503.689 320.132 511.382 318.523 519.735 318.523Z" fill="#EDE9DE"/>
<path d="M403.919 318.523C410.66 318.523 416.595 319.62 421.723 321.814C426.852 323.862 431.175 326.86 434.692 330.809C438.355 334.612 441.066 339.146 442.825 344.412C444.73 349.531 445.682 355.162 445.682 361.306V434.804H424.801V363.938C424.801 359.843 424.288 356.113 423.262 352.749C422.236 349.239 420.624 346.167 418.426 343.534C416.375 340.901 413.664 338.854 410.294 337.391C407.07 335.928 403.113 335.197 398.424 335.197C393.442 335.197 389.046 336.294 385.236 338.488C381.426 340.682 378.202 343.607 375.564 347.264C373.073 350.774 371.168 354.797 369.849 359.331C368.53 363.719 367.871 368.253 367.871 372.934V434.804H346.989V321.814H365.013L366.332 338.049C370.435 331.614 375.784 326.787 382.378 323.569C388.972 320.205 396.153 318.523 403.919 318.523Z" fill="#EDE9DE"/>
<path d="M302.341 303.823V281.225H323.663V303.823H302.341ZM302.561 434.804V321.814H323.223V434.804H302.561Z" fill="#EDE9DE"/>
<path d="M257.908 434.804V281.225H278.789V434.804H257.908Z" fill="#EDE9DE"/>
<path d="M194.846 318.523C201.587 318.523 207.521 319.62 212.65 321.814C217.779 323.862 222.102 326.86 225.619 330.809C229.282 334.612 231.993 339.146 233.752 344.412C235.657 349.531 236.609 355.162 236.609 361.306V434.804H215.727V363.938C215.727 359.843 215.215 356.113 214.189 352.749C213.163 349.239 211.551 346.167 209.353 343.534C207.302 340.901 204.591 338.854 201.22 337.391C197.996 335.928 194.04 335.197 189.351 335.197C184.369 335.197 179.972 336.294 176.162 338.488C172.352 340.682 169.129 343.607 166.491 347.264C164 350.774 162.095 354.797 160.776 359.331C159.457 363.719 158.798 368.253 158.798 372.934V434.804H137.916V321.814H155.94L157.259 338.049C161.362 331.614 166.711 326.787 173.305 323.569C179.899 320.205 187.079 318.523 194.846 318.523Z" fill="#EDE9DE"/>
<path d="M59.5674 335.417C53.5594 335.417 48.1375 336.587 43.3018 338.927C38.466 341.267 34.2897 344.412 30.7728 348.361C27.4025 352.31 24.7648 356.844 22.8598 361.964C21.1014 367.083 20.2221 372.495 20.2221 378.199C20.2221 383.757 21.1014 389.169 22.8598 394.435C24.7648 399.554 27.4025 404.161 30.7728 408.257C34.2897 412.206 38.466 415.351 43.3018 417.691C48.1375 419.885 53.5594 420.982 59.5674 420.982C65.5754 420.982 70.9973 419.812 75.8331 417.471C80.6688 415.131 84.7718 411.987 88.1422 408.037C91.5125 403.942 94.0769 399.335 95.8354 394.215C97.7404 389.096 98.6929 383.757 98.6929 378.199C98.6929 372.641 97.7404 367.302 95.8354 362.183C94.0769 356.918 91.4393 352.31 87.9224 348.361C84.552 344.412 80.449 341.267 75.6133 338.927C70.9241 336.587 65.5754 335.417 59.5674 335.417ZM59.5674 318.523C68.0666 318.523 75.9063 320.059 83.0867 323.13C90.4135 326.056 96.7146 330.224 101.99 335.636C107.412 341.048 111.588 347.41 114.519 354.724C117.596 361.891 119.135 369.716 119.135 378.199C119.135 386.536 117.669 394.362 114.739 401.675C111.808 408.988 107.632 415.351 102.21 420.762C96.9344 426.174 90.6333 430.416 83.3064 433.488C75.9796 436.559 68.0666 438.095 59.5674 438.095C51.0682 438.095 43.1552 436.559 35.8284 433.488C28.5015 430.416 22.2004 426.247 16.9251 420.982C11.6497 415.57 7.4734 409.207 4.39612 401.894C1.46537 394.581 0 386.683 0 378.199C0 369.716 1.46537 361.817 4.39612 354.504C7.4734 347.191 11.6497 340.901 16.9251 335.636C22.2004 330.224 28.5015 326.056 35.8284 323.13C43.1552 320.059 51.0682 318.523 59.5674 318.523Z" fill="#EDE9DE"/>
<path d="M1992.97 37.2977C1993.99 37.2977 1994.94 37.2977 1995.82 37.2977C1996.7 37.2977 1997.44 37.3708 1998.02 37.5171C1998.75 37.5171 1999.41 37.5902 2000 37.7365V57.0435C1999.41 56.8973 1998.75 56.751 1998.02 56.6047C1997.29 56.6047 1996.48 56.6047 1995.6 56.6047C1994.87 56.4585 1993.99 56.3853 1992.97 56.3853C1988.13 56.3853 1983.66 57.4092 1979.56 59.4569C1975.6 61.5046 1972.08 64.5031 1969.01 68.4523C1966.08 72.4014 1963.81 77.0819 1962.19 82.4937C1960.58 87.9056 1959.78 93.8293 1959.78 100.265V153.579H1938.89V40.5887H1956.92L1958.9 64.5031C1960.22 60.7002 1961.9 57.1167 1963.95 53.7526C1966.15 50.3885 1968.64 47.5363 1971.43 45.196C1974.36 42.7095 1977.65 40.8081 1981.32 39.4917C1984.98 38.029 1988.86 37.2977 1992.97 37.2977Z" fill="#EDE9DE"/>
<path d="M1896.35 40.5887H1917.23V153.579H1899.42L1898.11 137.343C1894 143.779 1888.65 148.679 1882.06 152.043C1875.47 155.261 1868.21 156.87 1860.3 156.87C1853.7 156.87 1847.84 155.773 1842.71 153.579C1837.59 151.385 1833.19 148.386 1829.53 144.583C1826.01 140.781 1823.3 136.32 1821.39 131.2C1819.49 125.935 1818.54 120.23 1818.54 114.087V40.5887H1839.42V111.454C1839.42 115.55 1839.93 119.353 1840.96 122.863C1841.98 126.227 1843.59 129.226 1845.79 131.858C1847.99 134.345 1850.7 136.319 1853.92 137.782C1857.15 139.245 1861.1 139.976 1865.79 139.976C1870.78 139.976 1875.17 138.952 1878.98 136.905C1882.79 134.711 1885.94 131.858 1888.43 128.348C1891.07 124.691 1893.05 120.596 1894.37 116.062C1895.69 111.527 1896.35 106.92 1896.35 102.24V40.5887Z" fill="#EDE9DE"/>
<path d="M1742.39 54.1914C1736.38 54.1914 1730.96 55.3615 1726.12 57.7018C1721.28 60.042 1717.11 63.1867 1713.59 67.1359C1710.22 71.0851 1707.58 75.6193 1705.68 80.7386C1703.92 85.8579 1703.04 91.2697 1703.04 96.9741C1703.04 102.532 1703.92 107.944 1705.68 113.21C1707.58 118.329 1710.22 122.936 1713.59 127.032C1717.11 130.981 1721.28 134.126 1726.12 136.466C1730.96 138.66 1736.38 139.757 1742.39 139.757C1748.39 139.757 1753.82 138.587 1758.65 136.246C1763.49 133.906 1767.59 130.761 1770.96 126.812C1774.33 122.717 1776.89 118.109 1778.65 112.99C1780.56 107.871 1781.51 102.532 1781.51 96.9741C1781.51 91.416 1780.56 86.0773 1778.65 80.958C1776.89 75.6924 1774.26 71.0851 1770.74 67.1359C1767.37 63.1867 1763.27 60.042 1758.43 57.7018C1753.74 55.3615 1748.39 54.1914 1742.39 54.1914ZM1742.39 37.2977C1750.88 37.2977 1758.72 38.8335 1765.9 41.9051C1773.23 44.8304 1779.53 48.999 1784.81 54.4108C1790.23 59.8226 1794.41 66.1852 1797.34 73.4985C1800.41 80.6655 1801.95 88.4907 1801.95 96.9741C1801.95 105.311 1800.49 113.136 1797.56 120.45C1794.63 127.763 1790.45 134.126 1785.03 139.537C1779.75 144.949 1773.45 149.191 1766.12 152.262C1758.8 155.334 1750.88 156.87 1742.39 156.87C1733.89 156.87 1725.97 155.334 1718.65 152.262C1711.32 149.191 1705.02 145.022 1699.74 139.757C1694.47 134.345 1690.29 127.982 1687.21 120.669C1684.28 113.356 1682.82 105.457 1682.82 96.9741C1682.82 88.4907 1684.28 80.5923 1687.21 73.2791C1690.29 65.9658 1694.47 59.6764 1699.74 54.4108C1705.02 48.999 1711.32 44.8304 1718.65 41.9051C1725.97 38.8335 1733.89 37.2977 1742.39 37.2977Z" fill="#EDE9DE"/>
<path d="M1565.94 40.5887H1588.36L1623.75 132.517L1616.05 153.579H1611L1565.94 40.5887ZM1655.84 40.5887H1678.04L1627.48 169.814C1625.58 175.372 1623.45 180.126 1621.11 184.075C1618.76 188.171 1615.98 191.535 1612.76 194.167C1609.68 196.8 1605.94 198.775 1601.55 200.091C1597.3 201.408 1592.31 202.066 1586.6 202.066C1584.84 202.066 1583.23 201.993 1581.76 201.846C1580.44 201.7 1579.2 201.481 1578.03 201.188V184.295C1578.76 184.587 1579.86 184.807 1581.32 184.953C1582.79 185.099 1584.4 185.172 1586.16 185.172C1591.58 185.172 1595.98 183.636 1599.35 180.565C1602.72 177.639 1605.14 174.202 1606.6 170.253L1614.08 151.165L1621.11 132.736L1655.84 40.5887Z" fill="#EDE9DE"/>
<path d="M1326.23 68.6717C1322.93 54.6302 1318.75 50.681 1308.86 48.487V43.8797H1362.06V48.487C1348.21 50.681 1345.13 54.6302 1348.65 68.4523L1362.94 124.399L1389.97 73.279L1389.31 68.8911C1387.55 54.8496 1384.04 50.681 1374.15 48.487V43.8797H1428.66V48.487C1413.93 50.681 1409.97 54.8496 1412.17 68.8911L1420.74 123.521L1450.86 66.9165C1457.67 54.4108 1455.47 50.681 1441.63 48.487V43.8797H1481.41V48.487C1471.52 50.681 1466.46 54.4108 1459.65 66.9165L1413.05 153.579H1404.26L1391.51 85.7847L1355.9 153.579H1347.11L1326.23 68.6717Z" fill="#EDE9DE"/>
<path d="M1243.08 157.089C1215.6 157.089 1195.82 135.807 1202.41 99.1679C1209.23 60.3344 1236.26 40.3692 1263.74 40.3692C1291.21 40.3692 1311.22 60.3344 1304.4 99.1679C1297.81 135.807 1270.55 157.089 1243.08 157.089ZM1225.49 98.9485C1218.9 136.246 1229.45 150.507 1244.18 150.507C1258.9 150.507 1274.73 136.246 1281.32 98.9485C1287.48 63.8448 1277.37 46.9512 1262.64 46.9512C1247.91 46.9512 1231.65 63.8448 1225.49 98.9485Z" fill="#EDE9DE"/>
<path d="M1109.32 153.579V148.971C1119.21 146.777 1123.17 142.609 1125.58 128.567L1136.13 68.891C1138.55 54.8495 1136.35 50.6809 1126.46 48.4869V43.8796H1162.51L1159.21 62.7478H1160.31C1169.33 47.3899 1181.2 40.3692 1192.62 40.3692C1202.08 40.3692 1207.79 45.196 1206.25 53.0943C1205.15 59.2375 1200.32 64.0642 1194.6 64.0642C1186.69 64.0642 1184.93 55.0689 1177.46 55.0689C1170.2 55.0689 1161.41 63.6254 1155.48 84.0295L1147.56 128.567C1145.15 142.609 1147.35 146.777 1157.24 148.971V153.579H1109.32Z" fill="#EDE9DE"/>
<path d="M1030.62 201.188C999.185 201.188 986.656 190.218 989.074 176.396C991.272 164.549 1003.36 158.186 1015.01 155.115L1015.23 154.456C1002.7 152.921 1000.72 145.242 1002.04 138.66C1003.14 131.639 1007.32 124.179 1020.07 118.036L1023.14 116.5C1014.57 109.919 1009.74 98.5098 1012.37 82.9325C1017.21 55.5078 1040.51 40.3693 1061.61 40.3693H1071.5C1089.97 40.3693 1095.24 30.277 1106.23 30.277C1111.95 30.277 1114.8 33.7873 1113.7 40.3693C1112.39 46.9512 1108.43 50.681 1099.2 50.681C1093.26 50.681 1089.09 48.0482 1082.49 45.8542V46.293C1092.16 52.875 1097.44 64.7225 1094.58 81.1774C1089.75 108.383 1066.67 123.082 1045.34 123.082C1038.97 123.082 1033.04 121.766 1027.76 119.353L1022.92 121.766C1018.31 124.179 1016.55 126.812 1016.11 129.006C1015.67 131.858 1017.43 134.272 1022.7 134.272H1061.39C1083.37 134.272 1096.12 145.461 1092.6 165.426C1088.65 188.024 1068.2 201.188 1030.62 201.188ZM1011.71 173.325C1008.86 189.121 1020.07 194.606 1036.11 194.606C1058.97 194.606 1070.84 185.392 1073.26 172.008C1075.02 161.697 1069.52 154.676 1053.48 154.676H1033.69C1022.05 154.676 1013.69 162.135 1011.71 173.325ZM1033.48 83.1519C1029.3 107.505 1034.79 116.5 1046.66 116.5C1059.19 116.5 1068.64 107.944 1073.48 80.5192C1077.88 56.166 1072.38 46.9512 1060.29 46.9512C1047.98 46.9512 1038.31 55.9465 1033.48 83.1519Z" fill="#EDE9DE"/>
<path d="M843.609 54.1914C837.601 54.1914 832.179 55.3615 827.343 57.7018C822.507 60.042 818.331 63.1867 814.814 67.1359C811.444 71.0851 808.806 75.6193 806.901 80.7386C805.143 85.8579 804.263 91.2697 804.263 96.9741C804.263 102.532 805.143 107.944 806.901 113.21C808.806 118.329 811.444 122.936 814.814 127.032C818.331 130.981 822.507 134.126 827.343 136.466C832.179 138.66 837.601 139.757 843.609 139.757C849.617 139.757 855.039 138.587 859.874 136.246C864.71 133.906 868.813 130.761 872.183 126.812C875.554 122.717 878.118 118.109 879.877 112.99C881.782 107.871 882.734 102.532 882.734 96.9741C882.734 91.416 881.782 86.0773 879.877 80.958C878.118 75.6924 875.481 71.0851 871.964 67.1359C868.593 63.1867 864.49 60.042 859.655 57.7018C854.965 55.3615 849.617 54.1914 843.609 54.1914ZM843.609 37.2977C852.108 37.2977 859.948 38.8335 867.128 41.9051C874.455 44.8304 880.756 48.999 886.031 54.4108C891.453 59.8226 895.629 66.1852 898.56 73.4985C901.638 80.6655 903.176 88.4907 903.176 96.9741C903.176 105.311 901.711 113.136 898.78 120.45C895.849 127.763 891.673 134.126 886.251 139.537C880.976 144.949 874.675 149.191 867.348 152.262C860.021 155.334 852.108 156.87 843.609 156.87C835.11 156.87 827.197 155.334 819.87 152.262C812.543 149.191 806.242 145.022 800.966 139.757C795.691 134.345 791.515 127.982 788.437 120.669C785.507 113.356 784.041 105.457 784.041 96.9741C784.041 88.4907 785.507 80.5923 788.437 73.2791C791.515 65.9658 795.691 59.6764 800.966 54.4108C806.242 48.999 812.543 44.8304 819.87 41.9051C827.197 38.8335 835.11 37.2977 843.609 37.2977Z" fill="#EDE9DE"/>
<path d="M725.984 7.24013H746.865V40.5887H771.484V57.2629H746.865V123.521C746.865 128.494 748.111 132.297 750.602 134.93C753.093 137.563 757.05 138.879 762.472 138.879C764.963 138.879 767.014 138.733 768.626 138.44C770.238 138.002 771.191 137.782 771.484 137.782V155.115C770.018 155.261 768.04 155.553 765.549 155.992C763.058 156.577 760.127 156.87 756.757 156.87C746.646 156.87 738.953 154.237 733.677 148.971C728.548 143.56 725.984 135.661 725.984 125.276V57.2629H706.861V40.5887H713.895C717.851 40.5887 720.855 39.6379 722.907 37.7365C724.958 35.835 725.984 32.6903 725.984 28.3024V7.24013Z" fill="#EDE9DE"/>
<path d="M537.516 54.4108C531.655 54.4108 526.379 55.5078 521.69 57.7018C517.147 59.7495 513.264 62.6017 510.04 66.2583C506.817 69.915 504.399 74.1567 502.787 78.9834C501.175 83.6639 500.369 88.7101 500.369 94.1219C500.369 99.5337 501.175 104.653 502.787 109.48C504.545 114.16 506.963 118.256 510.04 121.766C513.264 125.276 517.147 128.055 521.69 130.103C526.379 132.005 531.508 132.955 537.077 132.955C542.791 132.955 547.92 131.932 552.463 129.884C557.006 127.836 560.816 125.057 563.893 121.547C566.97 117.89 569.241 113.721 570.707 109.041C572.319 104.214 573.125 99.1681 573.125 93.9025C573.125 88.4907 572.319 83.4445 570.707 78.764C569.095 73.9373 566.75 69.7687 563.673 66.2583C560.596 62.6017 556.859 59.7495 552.463 57.7018C548.067 55.5078 543.085 54.4108 537.516 54.4108ZM533.779 37.2977C542.279 37.2977 549.972 38.9067 556.859 42.1245C563.893 45.3424 569.754 50.6079 574.444 57.9212L575.762 40.5887H592.907V145.242C592.907 154.456 591.588 162.574 588.951 169.595C586.46 176.762 582.796 182.686 577.96 187.366C573.125 192.193 567.336 195.85 560.596 198.336C553.855 200.823 546.308 202.066 537.956 202.066C531.215 202.066 524.841 201.188 518.833 199.433C512.825 197.824 507.403 195.338 502.567 191.974C497.731 188.756 493.628 184.587 490.258 179.468C487.034 174.495 484.836 168.644 483.664 161.916H503.226C504.252 166.011 505.718 169.522 507.623 172.447C509.674 175.372 512.092 177.786 514.876 179.687C517.807 181.589 521.104 182.905 524.767 183.636C528.431 184.514 532.314 184.953 536.417 184.953C542.279 184.953 547.481 184.148 552.023 182.539C556.566 181.077 560.376 178.737 563.453 175.519C566.677 172.301 569.095 168.352 570.707 163.671C572.465 158.991 573.344 153.506 573.344 147.216V131.2C568.802 137.636 563.087 142.463 556.2 145.68C549.459 148.752 542.059 150.288 533.999 150.288C526.086 150.288 518.833 148.825 512.238 145.9C505.791 142.975 500.222 138.952 495.533 133.833C490.991 128.714 487.4 122.79 484.763 116.062C482.272 109.187 481.026 101.801 481.026 93.9025C481.026 86.443 482.272 79.2759 484.763 72.4015C487.254 65.527 490.771 59.5301 495.313 54.4108C499.856 49.1452 505.351 44.9767 511.799 41.9051C518.247 38.8335 525.573 37.2977 533.779 37.2977Z" fill="#EDE9DE"/>
<path d="M422.58 37.2977C429.32 37.2977 435.255 38.3947 440.384 40.5887C445.513 42.6364 449.835 45.6349 453.352 49.584C457.016 53.387 459.727 57.9212 461.485 63.1867C463.39 68.306 464.343 73.9373 464.343 80.0804V153.579H443.461V82.7132C443.461 78.6178 442.948 74.888 441.922 71.5239C440.897 68.0135 439.285 64.9419 437.087 62.3092C435.035 59.6764 432.324 57.6287 428.954 56.166C425.73 54.7033 421.774 53.972 417.084 53.972C412.102 53.972 407.706 55.069 403.896 57.263C400.086 59.457 396.862 62.3823 394.225 66.0389C391.733 69.5493 389.828 73.5716 388.51 78.1058C387.191 82.4938 386.531 87.028 386.531 91.7085V153.579H365.65V40.5887H383.674L384.993 56.8242C389.096 50.3885 394.444 45.5617 401.039 42.3439C407.633 38.9798 414.813 37.2977 422.58 37.2977Z" fill="#EDE9DE"/>
<path d="M322.833 22.598V0H344.155V22.598H322.833ZM323.053 153.579V40.5887H343.715V153.579H323.053Z" fill="#EDE9DE"/>
<path d="M194.998 40.5887H217.419L252.807 132.517L245.114 153.579H240.059L194.998 40.5887ZM284.899 40.5887H307.099L256.544 169.814C254.639 175.372 252.514 180.126 250.17 184.075C247.825 188.171 245.041 191.535 241.817 194.167C238.74 196.8 235.003 198.775 230.607 200.091C226.357 201.408 221.375 202.066 215.66 202.066C213.902 202.066 212.29 201.993 210.824 201.846C209.506 201.7 208.26 201.481 207.088 201.188V184.295C207.82 184.587 208.919 184.807 210.385 184.953C211.85 185.099 213.462 185.172 215.22 185.172C220.642 185.172 225.038 183.636 228.409 180.565C231.779 177.639 234.197 174.202 235.662 170.253L243.136 151.165L250.17 132.736L284.899 40.5887Z" fill="#EDE9DE"/>
<path d="M175.861 37.2977C176.886 37.2977 177.839 37.2977 178.718 37.2977C179.597 37.2977 180.33 37.3709 180.916 37.5171C181.649 37.5171 182.308 37.5903 182.894 37.7366V57.0436C182.308 56.8973 181.649 56.7511 180.916 56.6048C180.183 56.6048 179.377 56.6048 178.498 56.6048C177.766 56.4585 176.886 56.3854 175.861 56.3854C171.025 56.3854 166.555 57.4093 162.452 59.457C158.496 61.5047 154.979 64.5031 151.902 68.4523C148.971 72.4015 146.7 77.082 145.088 82.4938C143.476 87.9056 142.67 93.8294 142.67 100.265V153.579H121.788V40.5887H139.812L141.791 64.5031C143.109 60.7002 144.795 57.1167 146.846 53.7526C149.044 50.3885 151.535 47.5363 154.32 45.1961C157.25 42.7096 160.547 40.8081 164.211 39.4917C167.874 38.0291 171.758 37.2977 175.861 37.2977Z" fill="#EDE9DE"/>
<path d="M1.75846 0H128.147V18.2101H76.0529V153.579H53.8525V18.2101H1.75846V0Z" fill="#EDE9DE"/>
</svg>
