<svg width="316" height="148" viewBox="0 0 316 148" fill="none" xmlns="http://www.w3.org/2000/svg">
<path d="M315.138 46.0769C275.56 67.3475 257.369 82.3013 278.196 106.442C221.516 107.512 191.789 113.498 170.593 147.721C137.651 123.043 108.354 126.978 55.3604 145.734C66.4603 115.663 44.8664 107.802 0 101.644C39.6335 78.1251 59.5097 63.0896 36.9421 41.2791C94.1563 38.7263 122.82 32.7244 144.546 0C174.746 23.5685 204.475 18.8358 259.778 1.98715C245.794 29.9952 270.264 37.315 315.138 46.0769Z" fill="#F2911B"/>
<path d="M215.767 83.6209C214.011 83.3604 212.93 83.2001 212.814 83.0449C212.714 82.9748 212.174 82.8947 212.144 82.7245L212.156 82.5468C212.126 82.3767 212.076 82.3416 211.949 82.3641C211.736 82.4016 211.661 82.7219 211.406 82.7669C211.235 82.797 211.093 82.7344 211.078 82.6493L211.07 82.6067C211.055 82.5216 211.013 82.5292 210.885 82.5517L210.545 82.6117C210.46 82.6267 210.417 82.6342 210.41 82.5916L210.507 82.399C210.189 82.5866 209.999 82.7517 209.914 82.7667C209.872 82.7742 209.864 82.7317 209.857 82.6891C209.804 82.3913 209.964 81.3103 210.455 79.1181C211.99 72.3991 212.113 71.8511 212.075 71.6384C212.068 71.5958 212.06 71.5533 211.975 71.5683C211.422 71.6658 202.523 76.9198 202.065 77.3077C200.933 79.3496 201.499 78.3286 200.46 80.398C200.167 80.9761 199.769 81.7043 199.686 81.982C198.147 85.1925 197.694 86.1059 197.354 86.1659C197.226 86.1884 197.126 86.1183 196.976 86.0132C196.47 85.883 194.693 85.7576 194.641 85.4598L194.661 85.3247C194.616 85.0694 194.161 84.9743 193.635 84.9792C193.38 85.0242 193.245 85.0042 193.237 84.9616L193.23 84.9191C193.215 84.834 193.115 84.7639 192.859 84.8089C192.689 84.8389 192.591 85.0316 192.379 85.0691C192.336 85.0766 192.329 85.0341 192.321 84.9915C192.224 84.4384 193.58 82.1814 193.52 81.841C193.513 81.7985 193.463 81.7634 193.378 81.7785C193.208 81.8085 193.223 81.8935 193.245 82.0212C192.952 81.8535 192.802 81.7483 192.795 81.7058L193.065 81.7459C193.107 81.7384 193.1 81.6958 193.092 81.6533C193.077 81.5682 192.905 81.3354 192.735 81.3654C192.564 81.3954 192.254 81.6256 192.126 81.6481C191.914 81.6856 191.491 81.2777 191.446 81.0224C191.408 80.8097 191.614 80.7296 191.591 80.602C191.468 80.4043 191.411 80.3267 191.326 80.3417C191.143 80.5494 191.116 80.642 190.988 80.6645C190.86 80.687 190.803 80.6094 190.78 80.4818L190.765 80.3967C190.728 80.184 190.427 79.9737 189.935 79.6658C190.525 79.0353 190.658 78.7926 191.737 77.9444C192.92 76.946 197.671 73.7835 198.431 73.123C198.91 72.6 207.052 57.8288 209.781 53.3998C210.311 52.4289 211.64 50.2644 212.206 49.2435C213.077 47.4668 213.24 47.3942 214.226 45.7728C215.705 42.9676 217.943 39.985 218.023 39.4444C218.141 39.1166 219.733 36.9497 220.073 36.8897C220.243 36.8597 220.158 36.8747 220.343 36.9297C220.556 36.8922 220.676 36.0814 220.967 35.9864C221.35 35.9189 222.383 36.3069 222.641 36.5247C222.741 36.5947 222.748 36.6373 222.834 36.6223L222.876 36.6148C222.961 36.5998 223.519 37.0278 223.647 37.0053C223.774 36.9828 224.73 37.4283 225.481 37.954C225.12 39.6406 224.943 40.3738 224.334 42.8938C220.628 58.1986 219.351 63.6439 219.419 64.0268C219.631 63.9893 220.587 64.4348 220.61 64.5625C220.617 64.605 220.732 64.7602 220.96 64.8078C221.138 64.8203 221.281 64.8829 221.288 64.9254L221.26 65.018C221.283 65.1457 221.798 65.5812 221.828 65.7513C221.858 65.9215 221.773 65.9365 221.533 66.0666L221.398 66.0466L221.363 66.0966C221.578 66.3219 221.471 66.2092 221.608 66.4921L218.42 68.0632C217.25 72.8753 216.577 77.5124 216.196 81.5714C216.028 83.3557 215.98 83.5834 215.767 83.6209ZM212.913 78.3778C212.99 78.3202 213.06 78.2201 213.053 78.1776C213.038 78.0925 213.03 78.0499 212.945 78.0649C212.825 78.13 212.848 78.2576 212.828 78.3928L212.913 78.3778ZM213.028 77.7872C213.098 77.6871 213.203 77.537 213.196 77.4944C213.188 77.4519 213.138 77.4168 213.096 77.4243C212.968 77.4468 212.948 77.582 212.97 77.7096L213.028 77.7872ZM213.023 77.2617C213.108 77.2466 213.318 76.9464 213.303 76.8613L213.253 76.8262C213.126 76.8488 213.013 76.9563 212.93 77.2341C212.938 77.2767 212.98 77.2692 213.023 77.2617ZM213.166 76.5785C213.421 76.5335 213.574 75.4099 213.914 73.8584C214.205 72.2718 214.102 72.6847 214.545 70.7203L214.563 70.3224L214.513 70.2874C214.315 70.41 214.268 70.6377 214.275 70.6802C214.32 70.9355 214.02 71.471 213.932 71.969C213.855 72.0265 213.827 72.1191 213.835 72.1617L213.9 72.2818C213.922 72.4094 213.809 72.517 213.669 72.7172L213.677 72.7597L213.839 72.6872C213.882 72.6797 213.925 72.6722 213.932 72.7147L213.694 73.1076C213.617 73.1651 213.582 73.2152 213.597 73.3003C213.662 73.4204 213.612 73.3853 213.754 73.4479C213.777 73.5756 213.369 73.9984 213.384 74.0835L213.391 74.1261L213.589 74.0035C213.632 73.996 213.632 73.996 213.639 74.0385C213.662 74.1661 213.549 74.2737 213.354 74.6591L213.361 74.7016L213.474 74.594C213.516 74.5865 213.524 74.6291 213.524 74.6291C213.546 74.7567 213.406 74.9569 213.203 75.2997L213.366 75.2272C213.409 75.2197 213.409 75.2197 213.416 75.2622C213.431 75.3473 213.291 75.5475 213.096 75.9328L213.216 75.8678C213.258 75.8603 213.308 75.8953 213.316 75.9379C213.346 76.108 213.198 76.2657 213.073 76.5509C213.081 76.5935 213.123 76.586 213.166 76.5785ZM207.937 67.3235C213.27 64.2336 213.916 64.1636 214.134 63.1602C214.369 62.5045 215.007 59.409 215.744 56.1208C216.092 54.6119 216.392 53.3306 216.37 53.203C216.242 53.2255 215.213 54.8545 212.745 59.0183C210.705 62.6242 207.899 67.1108 207.937 67.3235ZM215.953 62.5323C216.318 62.1169 216.551 61.9443 216.514 61.7316C216.506 61.689 216.506 61.689 216.464 61.6965C216.421 61.704 216.273 61.8617 216.176 62.0543L215.953 62.5323ZM216.434 61.5263C216.419 61.4413 216.601 61.2336 216.804 60.8908C216.529 61.0709 216.354 61.3211 216.369 61.4062C216.384 61.4913 216.434 61.5263 216.434 61.5263ZM216.386 61.0083C216.471 60.9933 216.892 60.3928 216.877 60.3077C216.834 60.3152 216.644 60.4803 216.546 60.673C216.441 60.8231 216.336 60.9733 216.344 61.0158L216.386 61.0083ZM216.817 59.9673C216.859 59.9598 216.972 59.8522 216.977 59.632C216.969 59.5895 216.962 59.5469 216.919 59.5544C216.849 59.6545 216.822 59.7471 216.794 59.8397L216.817 59.9673ZM217.373 57.8953C217.415 57.8878 217.478 57.7452 217.525 57.5175L217.433 57.4899C217.398 57.54 217.335 57.6826 217.343 57.7252L217.373 57.8953Z" fill="#140F0F"/>
<path d="M159.473 93.0646C159.005 93.1471 159.328 92.7393 156.648 93.2119C155.201 93.4669 154.598 93.5294 154.348 93.3542L153.92 93.1664C154.538 93.1891 154.233 93.199 154.836 93.1365C154.308 92.8787 154.065 92.746 153.007 91.9676C152.356 91.5121 152.098 91.2943 152.053 91.0391L152.056 90.5561L151.936 90.6211C151.766 90.6511 151.468 89.9579 151.223 89.5625C151.015 89.3797 150.892 89.182 150.87 89.0544C150.817 88.7566 151.34 89.2346 151.263 87.8007C151.096 85.8562 151.529 82.095 152.678 75.9265C153.012 74.3324 153.189 72.8535 153.209 72.7183C153.164 72.4631 152.576 72.6106 152.424 72.2428C152.286 71.96 151.811 71.9999 151.728 71.5319C151.651 70.8437 151.543 70.7311 152.484 70.3459L153.7 69.7805C154.138 69.5278 154.364 69.3126 155.06 66.2947C155.909 62.8989 157.801 57.9592 157.621 56.9381C157.576 56.6829 157.418 56.5352 157.191 56.4876C156.735 56.3925 156.83 55.937 156.5 55.5566C156.385 55.4014 156.328 55.3238 156.313 55.2387C156.283 55.0686 156.7 54.951 156.655 54.6958C156.618 54.483 155.885 53.5595 155.802 53.0915C155.815 52.9138 155.765 52.8788 157.747 52.1784C158.788 51.8632 159.686 51.4855 159.842 51.3704C159.969 51.3479 160.352 50.5346 160.77 49.6713C161.694 47.4467 162.072 46.8536 162.497 46.7786C162.923 46.7036 165.117 48.2029 165.788 48.5233C166.386 48.6811 166.141 49.0314 166.779 48.9189C167.842 48.7313 172.064 47.5482 175.681 46.9106C178.446 46.423 178.433 46.6007 178.899 47.0011C179.522 47.5493 179.624 47.8821 180.145 48.8432C180.578 49.5564 180.895 50.1145 180.91 50.1996C180.678 50.3723 180.805 50.3498 180.507 50.4023C180.515 50.4448 181.118 50.3823 181.133 50.4674L181.448 51.5085C181.508 51.8489 181.088 51.7037 181.125 51.9164C181.14 52.0015 177.95 52.5641 177.114 52.7992C175.139 53.5422 174.569 53.2918 168.72 55.2004C165.241 56.1209 165.602 55.9257 164.876 58.0277C163.719 61.1707 162.042 66.3357 161.809 67.2541C165.63 66.5364 166.516 66.3363 168.26 66.0287C169.409 65.8262 169.552 65.8888 169.759 66.0715C170.182 66.4794 170.995 67.6082 171.071 68.0336C171.058 68.2113 171.093 68.1613 170.93 68.2338L170.745 68.1787C170.703 68.1862 170.675 68.2788 170.698 68.4065C170.735 68.6192 171.563 68.3415 171.694 68.5818C171.746 68.8796 171.306 68.8695 171.328 68.9971C171.336 69.0397 171.393 69.1173 171.606 69.0798C171.734 69.0573 171.869 69.0773 171.884 69.1624C171.906 69.29 171.821 69.305 171.779 69.3125C171.693 69.3275 171.623 69.4276 171.631 69.4701C171.638 69.5127 171.731 69.5402 171.816 69.5252C172.029 69.4877 171.944 69.5027 172.106 69.4302C172.191 69.4152 172.206 69.5003 172.229 69.6279L172.341 70.266C172.424 70.734 172.854 70.4388 172.884 70.609C172.914 70.7791 172.432 70.7766 172.391 71.0468C172.199 71.695 169.301 71.6795 159.841 74.7513C158.807 78.8378 157.837 85.2816 158.01 86.2601C158.025 86.3452 158.032 86.3877 158.075 86.3802C158.585 86.2902 169.532 82.6931 169.835 82.4204L169.955 82.3553C170.21 82.3103 170.328 82.7283 170.54 82.6908C170.753 82.6532 171.456 83.4066 171.559 83.7394C171.589 83.9096 172.002 84.0123 172.047 84.2675C172.077 84.4377 171.987 84.6729 171.859 84.6954L171.674 84.6404C171.731 84.718 171.746 84.803 171.959 84.7655C172.087 84.743 172.072 84.6579 172.242 84.6279C172.555 84.6605 172.682 84.638 172.697 84.7231C172.72 84.8507 172.607 84.9583 172.362 85.3086L172.872 85.2186C173.043 85.1886 173.228 85.2437 173.243 85.3288C173.265 85.4564 173.188 85.514 173.04 85.6716L173.08 85.4013C172.925 85.5164 172.855 85.6165 172.877 85.7441C172.885 85.7867 172.985 85.8568 173.07 85.8418L173.31 85.7117C173.438 85.6892 173.588 85.7943 173.611 85.9219C173.633 86.0496 173.443 86.2147 173.48 86.4274C173.51 86.5976 173.618 86.7102 173.746 86.6877L173.951 86.6077C174.036 86.5926 174.086 86.6277 174.093 86.6702C174.108 86.7553 174.011 86.948 173.871 87.1482C173.443 87.7062 171.258 88.7494 168.532 89.7125C168.2 89.8151 167.634 90.0903 167.174 90.2153C163.237 91.5236 160.907 92.2415 160.492 92.6218C160.259 92.7945 159.856 92.9971 159.473 93.0646Z" fill="#140F0F"/>
<path d="M128.46 97.3047C127.397 97.4923 124.444 96.9163 123.4 96.9687C122.392 96.971 121.496 96.8658 121.473 96.7382C121.466 96.6956 121.551 96.6806 121.679 96.6581L122.579 96.5431C121.483 96.2977 120.893 96.1825 120.698 95.0764C120.458 93.715 121.294 91.2426 121.82 90.492C121.602 90.7497 121.532 90.8498 121.489 90.8573C121.554 90.2317 122.365 89.6061 122.32 89.3509C122.305 89.2658 122.263 89.2733 122.22 89.2808C122.092 89.3033 122.107 89.3884 121.91 89.511C121.825 89.526 121.767 89.4484 121.695 89.2857C121.665 89.1156 122.39 88.505 122.436 88.0146C122.21 88.2297 122.105 88.3799 122.063 88.3874C122.02 88.3949 122.02 88.3949 122.013 88.3523C121.983 88.1822 122.641 87.1888 122.618 87.0611C122.576 87.0686 122.456 87.1337 122.315 87.3339L122.238 87.3914C122.215 87.2638 123.119 85.9201 123.096 85.7924C123.054 85.7999 122.941 85.9075 122.724 86.1652L122.576 86.3229C122.951 85.4671 123.309 85.0092 123.279 84.839L123.187 84.8114L122.981 84.8915C122.951 84.7213 123.477 83.9706 123.455 83.843L123.447 83.8005L123.152 84.1157C123.129 83.9881 123.695 82.9672 123.657 82.7545C123.6 82.6769 123.565 82.7269 123.557 82.6844C123.482 82.2589 124.251 80.8952 124.206 80.6399C124.198 80.5974 124.191 80.5548 124.106 80.5698L123.83 80.75C124.151 80.0793 124.494 79.5363 124.419 79.1109C124.404 79.0258 124.396 78.9833 124.354 78.9908L124.156 79.1134C124.148 79.0708 124.246 78.8781 124.541 78.5629L124.424 78.8907C124.727 78.618 124.867 78.4178 124.852 78.3327C124.689 78.4052 124.724 78.3552 124.619 78.5053L124.612 78.4628C124.597 78.3777 124.877 77.9773 124.847 77.8072C124.824 77.6795 124.712 77.7871 124.674 77.5744C124.654 76.9638 124.709 76.7786 124.664 76.5233C124.597 76.1405 124.284 76.1079 124.224 75.7675C124.179 75.5123 124.334 75.3972 124.737 75.1945C125.31 74.9619 125.373 74.8192 126.061 72.5045C126.895 69.7694 126.998 69.3565 128.134 66.3486C129.539 62.3723 130.105 60.6056 130.06 60.3504L130.052 60.3078C130.009 60.3153 129.471 60.4979 127.767 61.281C126.423 61.8689 125.775 62.0368 125.813 62.2495C125.828 62.3346 125.27 62.6523 125.285 62.7374C125.307 62.865 126.268 63.0904 126.298 63.2606L126.221 63.3181L125.823 63.3005C125.695 63.323 125.66 63.3731 125.667 63.4156C125.697 63.5858 125.62 63.6433 125.577 63.6508C125.535 63.6583 125.485 63.6233 125.477 63.5808L125.475 63.318C125.445 63.1478 125.195 62.9726 125.024 63.0026C124.939 63.0176 124.904 63.0677 124.892 63.2453C124.907 63.3304 125.247 63.2704 125.262 63.3555C125.277 63.4406 125.242 63.4906 125.199 63.4981C124.902 63.5506 124.526 62.915 123.578 61.7662C123.075 61.153 122.895 60.8777 122.858 60.665C122.875 60.2671 123.008 60.0244 122.963 59.7691C122.948 59.684 122.89 59.6064 122.805 59.6214C122.677 59.6439 121.802 58.6578 121.742 58.3175C121.644 57.7644 123.175 56.7561 124.294 56.0152C125.969 54.9067 129.107 54.2016 129.107 54.2016C129.107 54.2016 133.564 53.1086 136.755 52.546C138.244 52.2834 139.485 52.1084 140.088 52.046C140.571 52.0485 141.309 52.0061 141.785 51.9661C144 51.8388 146.487 52.0143 147.613 52.4299C148.697 52.853 149.392 53.5638 150.581 55.3282C151.114 56.1116 151.654 56.9375 151.747 56.965C152.162 57.3304 152.995 59.0698 153.123 59.793C153.415 61.4522 151.944 63.5541 147.929 67.1572C147.056 67.9253 136.255 74.5909 136.255 74.5909C136.255 74.5909 145.531 81.2537 145.887 82.1177C146.102 82.5738 146.052 83.1128 145.627 84.597C145.433 85.1953 145.275 85.9736 145.262 86.2251C145.224 86.6683 144.557 88.8226 144.413 89.0378C144.389 89.0736 144.293 89.0613 144.221 89.0131C144.042 88.8927 144.114 88.9408 143.994 88.8086C143.815 88.6882 143.73 89.0473 143.515 88.9027C143.276 88.6383 142.835 88.1335 141.615 87.3144C140.755 86.7362 139.775 86.0257 139.572 85.7854L136.216 82.7117C135.296 81.8337 131.4 78.9562 130.217 78.1611L130.202 80.8109C128.837 86.0084 128.775 86.1511 128.051 90.0073C127.665 92.0493 127.467 94.4092 127.632 95.3451C127.73 95.8982 128.23 96.2486 128.698 96.1661C128.996 96.1136 128.826 96.1436 129.151 95.9985L129.159 96.041C128.963 96.4264 128.901 96.569 128.916 96.6541C128.931 96.7392 129.349 96.6216 129.356 96.6642C129.371 96.7493 128.971 97.2147 128.46 97.3047ZM123.641 59.3863C124.169 58.8984 124.422 58.5906 124.55 58.5681C124.55 58.5681 124.825 58.388 125.128 58.1152C125.508 57.785 125.756 57.6974 125.756 57.6974C126.264 57.3446 126.397 57.1019 126.567 57.0719C126.609 57.0644 126.609 57.0644 126.617 57.1069C126.532 57.1219 126.291 57.252 126.186 57.4022C126.031 57.5173 125.919 57.6249 125.833 57.6399L125.733 57.5698C125.303 57.865 125.085 58.1227 124.872 58.1602C124.66 58.1978 123.914 58.9434 123.701 58.9809L123.616 58.9959C123.573 59.0034 123.546 59.096 123.591 59.3513L123.641 59.3863ZM126.799 56.8992C127.055 56.8542 125.846 57.8473 125.846 57.8473L125.803 57.8548C125.59 57.8923 126.812 56.7216 126.757 56.9067L126.799 56.8992ZM126.116 57.8874C126.709 57.5196 126.737 57.427 126.842 57.2769C126.834 57.2343 126.834 57.2343 126.792 57.2418C126.579 57.2793 126.108 57.8448 126.116 57.8874ZM140.537 67.2763C140.839 67.0036 140.887 66.7758 141.057 66.7458L141.157 66.8159C141.37 66.7784 141.445 66.4581 141.831 65.9076C141.473 66.3655 141.34 66.6082 141.127 66.6457L141.035 66.6182C140.95 66.6332 140.844 66.7833 140.747 66.976L140.537 67.2763ZM142.066 65.9977C142.236 65.9677 142.299 65.8251 142.326 65.7325C142.319 65.6899 142.319 65.6899 142.233 65.7049C142.106 65.7274 141.986 65.7925 141.966 65.9276C141.973 65.9702 142.023 66.0052 142.066 65.9977ZM142.744 65.6149L143.087 65.0719C142.892 65.4573 142.679 65.4948 142.694 65.5799C142.701 65.6224 142.701 65.6224 142.744 65.6149ZM143.412 64.9268C143.497 64.9118 143.56 64.7692 143.805 64.4189C143.595 64.7191 143.362 64.8918 143.362 64.8918C143.37 64.9343 143.37 64.9343 143.412 64.9268ZM142.996 53.8582C143.124 53.8357 143.209 53.8207 143.201 53.7781L143.016 53.723L142.783 53.8957L142.996 53.8582ZM142.158 53.8305C142.243 53.8155 142.413 53.7855 142.405 53.743L142.355 53.7079L142.178 53.6954L142.015 53.7679L141.987 53.8605L142.158 53.8305ZM141.272 54.0306C141.357 54.0156 141.717 53.8205 141.702 53.7354C141.695 53.6928 141.695 53.6928 141.652 53.7003C141.334 53.888 141.432 53.6953 141.222 53.9956C141.229 54.0381 141.229 54.0381 141.272 54.0306ZM140.774 53.943C140.859 53.9279 140.986 53.9054 140.979 53.8629C140.921 53.7853 140.871 53.7503 140.786 53.7653L140.518 53.988L140.774 53.943ZM134.145 68.842C134.655 68.7519 147.322 58.4909 147.15 57.5124C147.127 57.3848 147.112 57.2997 147.027 57.3147C142.517 57.3641 142.885 57.2115 140.375 57.6541L139.659 57.8242L138.538 57.9341C137.542 59.9961 134.02 68.3815 134.102 68.8495L134.145 68.842ZM139.965 54.0855C140.093 54.063 140.178 54.048 140.171 54.0054L140.163 53.9629L139.978 53.9078C139.823 54.0229 139.9 53.9654 139.753 54.123L139.965 54.0855ZM137.092 54.4605C138.241 54.2579 139.425 54.0053 139.46 53.9553C139.46 53.9553 138.466 54.0427 137.19 54.2678C135.914 54.4928 134.908 54.758 134.823 54.773C134.838 54.858 135.944 54.663 137.092 54.4605ZM131.366 55.821L132.117 55.6009C132.11 55.5584 131.932 55.5458 131.592 55.6058C131.379 55.6433 131.209 55.6734 131.231 55.801C131.239 55.8435 131.281 55.836 131.366 55.821ZM130.701 56.0261C130.693 55.9836 130.593 55.9135 130.466 55.936L130.14 56.0811C130.148 56.1237 130.233 56.1087 130.403 56.0786L130.701 56.0261ZM132.59 73.4589C132.851 73.1936 133.068 72.9359 133.238 72.9059C133.621 72.8384 134.287 71.8875 134.755 71.805C135.01 71.76 135.276 71.2746 135.403 71.2521C135.488 71.237 135.488 71.2371 135.538 71.2721C135.581 71.2646 135.616 71.2145 135.651 71.1645C135.791 70.9643 138.021 69.4306 138.209 69.0027C138.272 68.8601 138.342 68.76 138.384 68.7525C138.449 68.8726 138.414 68.9226 138.542 68.9001C138.797 68.8551 139.07 68.4122 139.668 67.8242L139.718 67.8593C140.164 67.6491 140.354 67.484 140.324 67.3138C140.309 67.2287 140.266 67.2362 140.224 67.2437C140.096 67.2662 140.069 67.3588 139.836 67.5314L139.736 67.4614L139.16 68.177L139.067 68.1495C138.94 68.172 138.354 68.5823 138.354 68.5823C138.354 68.5823 138.227 68.6048 138.121 68.7549C137.911 69.0552 137.486 69.1302 137.275 69.4305C137.17 69.5806 137.015 69.6957 136.973 69.7032L136.838 69.6832C136.71 69.7057 136.515 70.091 136.387 70.1135L136.209 70.101C136.082 70.1235 135.809 70.5664 135.554 70.6114C135.341 70.6489 135.076 71.1344 134.905 71.1644L134.77 71.1444C134.6 71.1744 134.462 71.6373 134.165 71.6898C133.782 71.7573 132.718 72.6906 132.715 73.1736L132.59 73.4589ZM128.421 56.7791C128.591 56.7491 128.676 56.7341 128.669 56.6915L128.483 56.6364C128.328 56.7515 128.413 56.7365 128.243 56.7665C128.251 56.8091 128.293 56.8016 128.421 56.7791ZM129.087 56.574C129.299 56.5365 129.582 56.3989 129.61 56.3063L129.227 56.3738C129.057 56.4038 128.894 56.4763 128.901 56.5189C128.916 56.604 128.959 56.5965 129.087 56.574ZM128.091 73.0679C128.296 72.9878 128.621 72.8427 128.889 71.8743C129.58 69.8223 130.319 67.5426 130.672 66.5592C130.804 66.3165 130.902 66.1238 130.887 66.0387L130.837 66.0037C130.822 65.9186 130.94 65.5908 131.155 65.0703C130.902 65.378 130.306 66.9746 130.221 66.9896C130.051 67.0196 129.988 67.1622 129.953 67.2122L130.116 67.1397C130.201 67.1247 130.251 67.1597 130.259 67.2023C130.281 67.3299 130.204 67.3875 130.161 67.395C130.034 67.4175 129.823 67.7177 129.743 68.2583L129.828 68.2433L129.821 68.2007C129.821 68.2007 129.793 68.2933 129.645 68.451C129.505 68.6511 129.4 68.8013 129.408 68.8438C129.45 68.8363 129.45 68.8363 129.458 68.8788C129.363 69.3343 129.2 69.4068 129.237 69.6196C129.26 69.7472 129.295 69.6971 129.31 69.7822C129.332 69.9099 129.177 70.025 129.135 70.0325L129.182 69.8047C129.02 69.8773 128.942 69.9348 128.957 70.0199L128.972 70.105C129.017 70.3603 128.424 71.4738 128.454 71.644L128.461 71.6865C128.171 72.5273 128.011 72.8626 128.041 73.0328L128.091 73.0679ZM124.755 89.2286C124.945 89.0635 125.015 88.9634 125 88.8783L124.943 88.8007C124.858 88.8157 124.838 88.9508 124.81 89.0434L124.755 89.2286ZM125.036 88.0825C125.121 88.0675 125.141 87.9323 125.238 87.7397C125.308 87.6396 125.343 87.5895 125.336 87.547L125.278 87.4694C124.981 87.5219 125.036 88.0825 125.036 88.0825ZM125.296 87.0715C125.381 87.0565 125.659 86.3934 125.636 86.2657L125.629 86.2232C125.544 86.2382 125.208 86.8238 125.246 87.0365L125.296 87.0715ZM125.259 85.3673C125.491 85.1947 125.371 85.2597 125.454 84.9819C125.369 84.9969 125.244 85.2822 125.259 85.3673ZM125.364 85.9629C125.722 85.505 125.954 85.3324 125.917 85.1196C125.859 85.0421 125.902 85.0345 125.817 85.0496C125.774 85.0571 125.627 85.2147 125.536 85.4499L125.364 85.9629ZM125.889 84.4665C125.932 84.459 125.967 84.4089 126.072 84.2588L126.225 83.8809C126.182 83.8884 126.12 84.0311 126.022 84.2238L125.889 84.4665ZM126.23 82.915C126.273 82.9075 126.308 82.8574 126.413 82.7073C126.568 82.5922 126.58 82.4145 126.573 82.372L126.558 82.2869C126.515 82.2944 126.418 82.4871 126.355 82.6297L126.23 82.915ZM126.546 81.7188C126.588 81.7113 126.658 81.6112 126.763 81.4611C126.833 81.361 126.938 81.2109 126.931 81.1683L126.831 81.0982C126.788 81.1057 126.726 81.2484 126.671 81.4335L126.546 81.7188Z" fill="#140F0F"/>
<path d="M115.116 98.5172C114.711 98.5885 114.25 98.3356 112.888 97.9489C110.49 97.1183 109.147 96.6028 108.962 96.2595C108.852 96.1116 108.831 95.9901 108.817 95.909L108.809 95.8685C108.85 95.8614 109.143 96.1022 109.224 96.088C108.895 95.6445 108.767 95.6253 108.624 94.8148C108.152 92.1402 110.81 77.8824 112.082 71.8499C112.99 68.0127 112.584 69.9647 113.378 66.1893C113.525 64.6591 114.179 63.1648 114.251 62.1494C114.267 61.7704 114.719 61.0222 114.705 60.9411C114.691 60.8601 114.724 60.8124 114.764 60.8053C115.128 60.7411 117.33 62.1079 118.258 62.4039C118.903 62.7498 119.291 63.0575 120.181 63.6109C119.979 65.0672 119.427 68.0894 118.046 73.9741C115.463 84.8757 114.396 93.2538 114.84 97.187C114.94 97.7543 115.52 97.7355 115.549 97.8976C115.563 97.9787 115.489 98.0335 115.327 98.062L114.956 98.0857C114.875 98.0999 114.835 98.1071 114.842 98.1476C114.856 98.2286 115.032 98.2812 115.311 98.441C115.318 98.4815 115.278 98.4887 115.116 98.5172Z" fill="#140F0F"/>
<path d="M101.132 102.694C100.877 102.739 100.036 102.448 99.1129 102.436C98.3521 102.35 97.3687 101.997 97.3537 101.912C97.3387 101.827 97.5589 101.832 97.5439 101.747C97.4863 101.67 97.3012 101.614 96.663 101.727C95.3016 101.967 94.5834 101.874 94.4109 100.896C93.8933 97.9604 96.8257 83.4938 96.956 82.2425C96.9485 82.2 96.906 82.2075 96.8209 82.2225L96.6082 82.26L92.4013 83.5282C91.7356 83.7333 90.5669 84.071 89.8937 84.2335C88.342 84.6387 88.1018 84.7688 87.9515 85.4094C87.8689 85.6872 87.5233 87.4589 87.1277 89.1956C85.4174 96.9106 85.0418 98.5122 84.9614 100.544C84.9689 100.587 84.9689 100.587 85.0115 100.579C85.1241 100.472 85.2017 100.414 85.3719 100.384C85.457 100.369 85.5495 100.397 85.5646 100.482L85.5445 100.617C85.5595 100.702 85.567 100.744 85.7022 100.765C85.8298 100.742 85.9624 100.499 86.0901 100.477C86.2603 100.447 86.3528 100.474 86.5255 100.707C86.5705 100.962 86.3151 101.753 86.1024 101.791C85.8471 101.836 85.8446 102.319 85.6319 102.356L85.4542 102.344C85.1989 102.389 85.2664 102.771 84.9686 102.824C84.6283 102.884 84.1704 102.526 82.8541 102.276C82.271 102.203 81.6729 102.045 81.4302 101.913C81.0799 101.667 80.4117 101.61 80.3667 101.354C80.3142 101.057 79.2557 101.024 79.1281 100.301C78.9256 99.152 81.4146 88.1413 81.64 87.1803C81.66 87.0452 81.7001 86.7749 81.6551 86.5197C81.6326 86.392 81.6026 86.2219 81.495 86.1092C81.5426 85.8815 81.5125 85.7113 81.49 85.5837C81.4225 85.2008 81.2073 84.9756 80.6143 84.5976C80.1939 84.4524 79.9912 84.0495 79.8662 83.589C79.8212 83.3337 80.1465 83.1886 80.124 83.061C80.109 82.9759 80.0089 82.9058 79.7587 82.7306C79.1357 82.1825 78.8054 81.802 78.7604 81.5468C78.7154 81.2915 79.0607 81.0113 80.8376 80.3909C81.8637 79.9907 82.7546 79.5704 82.8748 79.5053C83.1 79.2901 83.6185 76.2597 83.7987 75.7892C83.8288 75.2136 84.267 73.4695 84.868 70.907C85.0132 70.4866 85.191 69.7534 85.2786 69.2554C85.7968 67.7164 86.508 64.7836 86.4405 64.4007L86.3254 64.2455L86.5531 64.2931C86.6807 64.2706 86.5206 63.8601 86.8686 63.0969C87.1765 61.8582 87.5846 60.6896 87.9175 60.587C88.3429 60.512 89.2262 60.7949 89.8768 61.2505C90.2347 61.5383 90.6626 61.7261 90.7051 61.7186C91.103 61.7361 92.0539 62.4019 92.1064 62.6997L92.1139 62.7423C92.1439 62.9125 92.1939 62.9475 92.3641 62.9175L92.6544 62.8224C92.7395 62.8074 92.7545 62.8925 92.7695 62.9776C92.8595 63.4881 92.7818 64.2914 91.2644 70.6126C90.3905 74.3637 89.6944 77.3816 89.7169 77.5093C89.7244 77.5518 89.8095 77.5368 89.8946 77.5218C90.6604 77.3868 93.4984 76.3161 95.9234 75.8885C97.958 75.4859 98.4685 75.3959 98.4735 75.1756C98.5286 74.9905 99.4801 71.1818 99.6629 70.2283C100.617 66.6824 102.632 59.7032 102.933 59.1677C103.065 58.925 103.171 58.7749 103.298 58.7523C104.194 58.8576 106.864 59.5712 107.657 60.0893C108.173 60.5248 108.856 60.6675 108.931 61.093C109.101 62.5545 106.898 69.9616 105.588 74.9739C105.092 76.6405 104.622 78.6975 104.637 78.7826C104.637 78.7826 102.501 88.8099 101.804 93.3193C101.183 97.5084 100.96 99.4779 101.11 100.329C101.2 100.839 101.335 100.859 101.641 100.849C101.853 100.812 101.881 100.719 102.064 100.512C101.966 100.704 101.846 100.769 101.876 100.939L101.941 101.06C101.986 101.315 101.408 102.513 101.132 102.694ZM85.0438 102.504C85.1714 102.481 85.2565 102.466 85.249 102.424L85.2415 102.381L85.0638 102.369L84.9011 102.441L84.8661 102.491C84.8736 102.534 84.9161 102.526 85.0438 102.504Z" fill="#140F0F"/>
</svg>
