<svg width="2000" height="600" viewBox="0 0 2000 600" fill="none" xmlns="http://www.w3.org/2000/svg">
<path d="M1172.21 235.808C1115.81 235.808 1061.03 273.485 1061.03 332.262C1061.03 375.968 1096.75 403.397 1156.08 403.397C1220.11 403.397 1248.75 362.094 1248.75 335.276L1190.35 321.11C1186.04 338.893 1177.62 347.609 1163.09 347.635C1149.55 347.659 1139.41 335.603 1138.03 321.11C1136.33 303.412 1147.48 289.545 1163.09 288.397C1175.64 287.474 1188.07 297.032 1190.35 306.36L1254.68 297.298C1254.68 276.499 1226.16 235.808 1172.21 235.808Z" fill="#BFB9B7"/>
<path fill-rule="evenodd" clip-rule="evenodd" d="M1378.51 235.808C1331.27 235.808 1282.18 260.817 1267.49 297.298L1310.25 306.36C1349.15 288.397 1366.43 281.615 1386.58 284.337C1393.19 285.23 1402.35 291.223 1394.52 300.152C1386.58 309.195 1370.32 307.167 1349.15 309.195C1307.5 313.185 1255.52 328.946 1255.52 363.61C1255.52 388.024 1274.24 401.891 1310.25 401.891C1342.79 401.891 1368.72 387.422 1383.12 365.72H1383.4L1383.98 368.432C1387.44 387.723 1402.41 401.891 1433.81 401.891C1453.68 401.891 1473.72 397.36 1486.97 388.318L1479.19 344.913C1479.19 344.913 1468.87 349.366 1464.5 347.635C1460.46 346.032 1460.62 338.592 1460.62 338.592L1466.07 301.216C1472.98 256.003 1431.8 235.808 1378.51 235.808ZM1346.56 358.477C1369.02 358.477 1384.27 346.73 1386.29 333.769L1386.58 332.865C1386.58 332.865 1366 327.732 1352.17 329.993C1341.64 331.715 1330.69 336.477 1330.69 347.635C1330.69 352.759 1336.19 358.477 1346.56 358.477Z" fill="#BFB9B7"/>
<path d="M1573.64 236.654C1525.83 236.654 1477.79 252.989 1477.79 297.298C1477.79 323.22 1500.26 334.372 1531.37 338.592L1560.74 342.511C1575.72 344.922 1584.93 347.634 1584.93 352.759C1584.93 358.184 1570.81 362.094 1560.74 362.094C1533.05 362.094 1507.13 351.1 1491.57 344.913L1498.49 388.317C1506.7 394.488 1539.07 401.89 1565.88 401.89C1618.88 401.89 1651.76 385.915 1651.76 343.114C1651.76 315.081 1625.26 302.422 1592.14 297.298L1561.32 292.776C1546.91 290.365 1540.58 288.556 1540.58 284.337C1540.58 278.911 1552.39 276.499 1567.66 276.499C1587.24 276.499 1612.47 283.647 1622.27 292.991L1660 270.686C1646.17 250.19 1610.79 236.654 1573.64 236.654Z" fill="#BFB9B7"/>
<path d="M848.284 343.716C842.524 379.585 862.11 401.89 898.401 401.89C927.78 401.89 952.839 385.915 968.104 360.897H968.392L973 397.972H1036.08L1059.7 241.233H985.098L973 321.11C970.409 339.195 959.175 349.745 943.622 349.745C930.085 349.745 923.459 341.003 925.763 326.234L938.725 241.233H863.837L848.284 343.716Z" fill="#BFB9B7"/>
<path d="M751.554 397.972H826.441L860.716 180H785.829L751.554 397.972Z" fill="#BFB9B7"/>
<path d="M666.436 235.95C623.707 239.85 573.561 252.989 573.561 297.298C573.561 323.22 596.028 334.372 627.135 338.592L656.514 342.511C671.491 344.922 680.708 347.634 680.708 352.759C680.708 358.184 670.915 360.294 650.465 360.294C628.287 360.294 604.38 353.663 591.707 342.812L553.976 366.021C566.073 389.833 606.972 402.493 649.889 402.493C702.886 402.493 747.531 385.915 747.531 343.114C747.531 315.081 721.032 302.422 687.909 297.298L657.089 292.776C642.688 290.365 636.352 288.556 636.351 284.337C636.351 278.911 648.161 276.499 663.426 276.499C683.012 276.499 714.984 286.145 724.777 295.489L760.78 273.184C746.955 252.687 706.293 232.311 666.436 235.95Z" fill="#BFB9B7"/>
<path d="M470.269 316.89C467.965 332.865 456.732 342.209 442.33 342.209C425.048 342.209 414.392 329.851 414.68 309.053L340.08 329.55C338.064 376.269 374.356 404 437.434 404C502.24 404 545.445 372.954 553.222 320.808L574.535 180H491.007L470.269 316.89Z" fill="#BFB9B7"/>
<path d="M1000 8C1275.59 8 1524.78 41.5212 1704.81 95.5303C1794.87 122.55 1867.18 154.565 1916.79 189.752C1966.6 225.086 1992 262.457 1992 300C1992 337.543 1966.6 374.914 1916.79 410.248C1867.18 445.435 1794.87 477.45 1704.81 504.47C1524.78 558.479 1275.59 592 1000 592C724.412 592 475.223 558.479 295.192 504.47C205.126 477.45 132.822 445.435 83.2129 410.248C33.3966 374.914 8 337.543 8 300C8 262.457 33.3966 225.086 83.2129 189.752C132.822 154.565 205.126 122.55 295.192 95.5303C475.223 41.5212 724.412 8 1000 8Z" stroke="#BFB9B7" stroke-width="16"/>
</svg>
