<svg width="2000" height="580" viewBox="0 0 2000 580" fill="none" xmlns="http://www.w3.org/2000/svg">
<path d="M1402.36 328.742C1418.54 326.204 1442.6 331.948 1442.7 331.973L1442.36 332.99C1440 347.571 1422.12 360.786 1395.77 360.786C1383.61 360.786 1377.17 354.353 1377.17 348.589C1377.17 336.036 1390 330.68 1402.36 328.742Z" fill="#EEEEEE"/>
<path fill-rule="evenodd" clip-rule="evenodd" d="M1000 0C1552.28 0 2000 129.837 2000 290C2000 450.163 1552.28 580 1000 580C447.715 580 0 450.163 0 290C0 129.837 447.715 0 1000 0ZM392.778 314.001C390.076 331.973 376.901 342.485 360.012 342.485C339.744 342.485 327.245 328.582 327.583 305.185L240.094 328.243C237.729 380.803 280.292 412 354.269 412C430.273 412 480.943 377.073 490.063 318.409L515.061 160H417.1L392.778 314.001ZM1196.19 222.783C1130.05 222.783 1065.8 265.171 1065.8 331.295C1065.8 380.464 1107.69 411.322 1177.28 411.322C1252.38 411.322 1285.96 364.856 1285.96 334.686L1217.47 318.748C1212.41 338.755 1202.54 348.56 1185.49 348.589C1169.62 348.616 1157.74 335.053 1156.1 318.748C1154.11 298.839 1167.19 283.238 1185.49 281.946C1200.21 280.908 1214.8 291.661 1217.47 302.154L1292.91 291.96C1292.91 268.562 1259.47 222.783 1196.19 222.783ZM725.093 264.832C708.878 241.774 661.192 218.851 614.448 222.943C564.337 227.331 505.525 242.113 505.525 291.96C505.526 321.122 531.874 333.669 568.355 338.416L602.811 342.824C620.376 345.537 631.187 348.589 631.187 354.354C631.186 360.457 619.701 362.831 595.718 362.831C569.707 362.831 541.67 355.371 526.807 343.163L482.556 369.273C496.743 396.062 544.71 410.305 595.041 410.305C657.195 410.305 709.554 391.654 709.555 343.503C709.555 311.967 678.477 297.725 639.631 291.96L603.486 286.873C586.597 284.16 579.166 282.126 579.165 277.379C579.165 271.275 593.015 268.562 610.918 268.562C633.888 268.562 671.384 279.413 682.869 289.925L725.093 264.832ZM822.39 344.181C815.634 384.533 838.604 409.627 881.166 409.627C915.621 409.627 945.01 391.654 962.913 363.509H963.25L968.655 405.218H1042.63L1070.33 228.888H982.843L968.655 318.748C965.615 339.094 952.441 350.963 934.2 350.963C918.324 350.963 910.554 341.128 913.256 324.513L928.457 228.888H840.63L822.39 344.181ZM1433.24 222.783C1377.85 222.783 1320.27 250.919 1303.05 291.96L1353.19 302.154C1398.81 281.946 1419.08 274.317 1442.7 277.379C1450.46 278.384 1461.21 285.125 1452.01 295.171C1442.7 305.344 1423.64 303.063 1398.81 305.344C1349.96 309.832 1289.01 327.565 1289 366.561C1289 394.027 1310.96 409.627 1353.19 409.627C1391.36 409.627 1421.76 393.35 1438.65 368.935H1438.99L1439.66 371.986C1443.72 393.688 1461.28 409.627 1498.1 409.627C1521.41 409.627 1544.91 404.53 1560.45 394.357L1551.33 345.527C1551.25 345.557 1539.2 350.531 1534.1 348.589C1529.36 346.785 1529.54 338.416 1529.54 338.416L1535.93 296.367C1544.04 245.503 1495.74 222.783 1433.24 222.783ZM1658.72 223.735C1602.64 223.735 1546.31 242.113 1546.31 291.96C1546.31 321.122 1572.65 333.669 1609.14 338.416L1643.59 342.824C1661.16 345.537 1671.97 348.589 1671.97 354.354C1671.97 360.457 1655.4 364.855 1643.59 364.855C1611.12 364.855 1580.71 352.488 1562.47 345.527L1570.58 394.357C1580.21 401.299 1618.17 409.627 1649.62 409.627C1711.78 409.627 1750.33 391.654 1750.33 343.503C1750.33 311.967 1719.26 297.725 1680.41 291.96L1644.27 286.873C1627.38 284.16 1619.95 282.126 1619.95 277.379C1619.95 271.275 1633.8 268.562 1651.7 268.562C1674.67 268.562 1704.26 276.602 1715.75 287.114L1760 262.021C1743.79 238.963 1702.29 223.735 1658.72 223.735ZM711.229 405.218H799.056L839.253 160H751.426L711.229 405.218Z" fill="#EEEEEE"/>
</svg>
