<svg width="2000" height="572" viewBox="0 0 2000 572" fill="none" xmlns="http://www.w3.org/2000/svg">
<path d="M1000 6C1275.75 6 1525.17 37.9729 1705.46 89.5361C1795.64 115.329 1868.19 145.93 1918.05 179.646C1968.13 213.504 1994 249.554 1994 286C1994 322.446 1968.13 358.496 1918.05 392.354C1868.19 426.07 1795.64 456.671 1705.46 482.464C1525.17 534.027 1275.75 566 1000 566C724.253 566 474.834 534.027 294.543 482.464C204.357 456.671 131.81 426.07 81.9463 392.354C31.8747 358.496 6 322.446 6 286C6 249.554 31.8747 213.504 81.9463 179.646C131.81 145.93 204.357 115.329 294.543 89.5361C474.834 37.9729 724.253 6 1000 6Z" stroke="#EEEEEE" stroke-width="12"/>
<path fill-rule="evenodd" clip-rule="evenodd" d="M1676.8 257.2C1632.86 257.2 1604.8 261.568 1604.8 273.2C1604.8 286.818 1641.39 288.995 1672 292.4C1754.84 300.911 1800 307.876 1800 338.8C1800 375.681 1736.59 385.2 1676.8 385.2C1602.61 385.2 1558.08 363.426 1555.2 330.8H1596.8C1597.52 341.581 1608.01 359.6 1676.8 359.6C1745.95 359.6 1756.8 345.325 1756.8 338.8C1756.8 325.182 1716.79 321.223 1662.4 316.4C1581.72 308.74 1561.6 294.477 1561.6 273.2C1561.6 241.425 1626.02 231.6 1676.8 231.6C1750.99 231.6 1794.28 250.765 1796.8 278H1755.2C1754.12 264.382 1721.1 257.2 1676.8 257.2ZM1501.6 366V351.6V346.8C1494.4 354.46 1444.75 383.6 1372 383.6C1325.54 383.6 1306.4 367.6 1306.4 367.6C1275.87 343.202 1288.32 286 1464.8 286C1475.96 286 1487.39 285.433 1500 286C1495.32 263.304 1466.14 257.2 1431.2 257.2C1380.06 257.2 1320.8 271.6 1320.8 271.6L1312.8 247.6C1322.52 245.33 1378.78 231.6 1432.8 231.6C1488.27 231.6 1540 245.18 1540 298.8L1540.8 378H1501.6V366ZM1340 332.4C1322.35 349.422 1354.27 358 1385.6 358C1392.44 358 1400.28 358.567 1406.4 358C1449.98 353.744 1500 333.264 1500 310C1411.4 308.297 1357.65 315.378 1340 332.4ZM1152.8 358C1196.02 358 1224.83 347.176 1236 327.6H1279.2C1263.71 366.751 1207.55 383.6 1152.8 383.6C1090.13 383.6 1024.8 360.885 1024.8 308.4C1024.8 255.915 1089.77 231.6 1152.8 231.6C1207.91 231.6 1264.07 249.016 1279.2 287.6H1236C1224.47 268.024 1195.66 257.2 1152.8 257.2C1096.97 257.2 1066.4 277.193 1066.4 308.4C1066.4 339.891 1096.97 358 1152.8 358ZM968 362.8V343.6C968 343.6 943.195 385.2 867.2 385.2C811.976 385.2 769.6 358.694 769.6 311.6V234.8H808V286.471C808 316.544 802.648 359.6 873.6 359.6C911.057 359.6 968 335.965 968 298.8V234.8H1006.4V378H968V362.8ZM708.8 186H747.2V378H708.8V186ZM561.6 292.4C644.438 300.911 689.6 309.476 689.6 340.4C689.6 377.281 627.787 385.2 568 385.2C493.806 385.2 452.481 363.426 449.6 330.8H489.6C490.32 341.581 499.209 359.6 568 359.6C637.152 359.6 648 346.925 648 340.4C648 326.782 607.985 321.223 553.6 316.4C472.923 308.74 456 294.477 456 273.2C456 241.425 517.217 231.6 568 231.6C642.194 231.6 683.879 249.165 686.4 276.4H644.8C643.719 262.782 612.3 257.2 568 257.2C524.06 257.2 497.6 261.568 497.6 273.2C497.6 286.818 530.986 288.995 561.6 292.4ZM316.8 386C242.966 386 200 357.889 200 302H240C240.72 333.491 264.576 359.6 316.8 359.6C369.384 359.6 391.28 332.691 392 301.2V186H430.4V301.2C430.4 357.089 390.634 386 316.8 386Z" fill="#EEEEEE"/>
</svg>
