<svg width="2000" height="580" viewBox="0 0 2000 580" fill="none" xmlns="http://www.w3.org/2000/svg">
<path fill-rule="evenodd" clip-rule="evenodd" d="M1646.42 262.493C1607.45 262.493 1581.58 266.13 1581.58 276.072C1581.58 287.712 1613.84 289.651 1640.99 292.561C1714.45 299.836 1755.01 305.655 1755.01 332.087C1755.01 363.609 1699.44 370.399 1646.42 370.399C1580.62 370.399 1540.69 353.91 1538.14 326.024H1575.83C1576.47 335.239 1585.41 348.576 1646.42 348.576C1707.74 348.576 1717.32 338.876 1717.32 333.299C1717.32 321.659 1681.87 318.022 1633.64 313.9C1562.09 307.353 1544.21 294.986 1544.21 276.8C1544.21 249.641 1601.38 240.669 1646.42 240.669C1712.21 240.669 1750.22 257.401 1752.46 280.68H1714.77C1713.81 269.04 1685.7 262.493 1646.42 262.493ZM1473.99 356.335C1474.58 349.234 1474.7 344.234 1474.7 339.763L1474.63 340.088C1468.24 346.636 1423.84 370.399 1359.32 370.399C1318.12 370.399 1301.51 357.305 1301.51 357.305C1273.72 336.451 1285.54 287.227 1442.05 287.227C1451.95 287.227 1462.81 287.469 1473.99 287.954C1469.84 268.555 1442.37 262.736 1411.38 262.736C1366.03 262.736 1312.69 275.102 1312.69 275.102L1306.62 254.006C1315.24 252.066 1364.75 240.669 1412.66 240.669C1461.85 240.669 1509.12 252.551 1509.12 298.381V367.005H1473.99V356.335ZM1331.53 326.752C1315.88 341.301 1343.35 347.605 1371.14 347.605C1377.21 347.605 1383.28 347.363 1388.71 346.878C1427.35 343.241 1473.99 327.964 1473.99 308.08C1395.41 306.626 1347.18 312.203 1331.53 326.752ZM1153.68 348.576C1192.01 348.576 1217.88 338.876 1227.78 322.145H1265.79C1252.05 355.608 1202.23 370.399 1153.68 370.399C1098.1 370.399 1038.37 350.273 1038.37 305.413C1038.37 260.553 1097.78 240.669 1153.68 240.669C1202.55 240.669 1252.37 255.704 1265.79 288.682H1227.78C1217.56 271.95 1191.69 262.493 1153.68 262.493C1104.17 262.493 1075.1 278.74 1075.1 305.413C1075.1 332.329 1104.17 348.576 1153.68 348.576ZM972.329 353.425C972.811 345.339 973.016 342.054 973.016 338.175L972.969 337.179C972.969 337.179 944.542 370.399 877.147 370.399C826.043 370.399 788.033 349.06 788.033 308.808V244.064H823.168V287.712C823.168 313.415 822.849 348.576 885.771 348.576C918.989 348.576 972.329 329.662 972.329 297.896V244.064H1007.46V367.005H972.329V353.425ZM717.174 186.11H752.309V367.005H717.174V186.11ZM571.896 292.561C645.359 299.836 685.923 305.655 685.923 332.087C685.923 363.609 630.347 370.399 577.326 370.399C511.529 370.399 471.604 353.91 469.048 326.024H506.738C507.377 335.239 516.32 348.576 577.326 348.576C638.652 348.576 648.234 338.876 648.234 333.299C648.234 321.659 612.78 318.022 564.55 313.9C493.003 307.353 475.117 294.986 475.117 276.8C475.117 249.641 532.29 240.669 577.326 240.669C643.123 240.669 681.132 257.401 683.368 280.68H645.678C644.72 269.04 616.613 262.493 577.326 262.493C538.359 262.493 512.487 266.13 512.487 276.072C512.487 287.712 544.747 289.651 571.896 292.561ZM337.505 372.096H336.866C271.388 372.096 233.059 349.06 233.059 301.291H269.152C269.791 328.207 290.871 347.605 337.185 347.605C383.818 347.605 404.579 328.207 405.218 301.291V186.11H441.311V301.291C441.311 349.06 402.982 372.096 337.505 372.096Z" fill="#EEEEEE"/>
<path d="M438.868 188.459H407.661V301.318L407.66 301.344C407.326 315.42 401.696 327.702 389.939 336.403C378.261 345.045 360.812 349.955 337.185 349.955C313.714 349.955 296.268 345.044 284.554 336.406C273.408 328.186 267.689 316.764 266.814 303.64H235.535C236.143 325.625 245.331 341.803 261.791 352.67C278.979 364.018 304.359 369.747 336.865 369.747H337.505C370.011 369.747 395.392 364.018 412.579 352.67C429.62 341.419 438.868 324.477 438.868 301.291V188.459ZM510.044 276.072C510.045 272.415 512.484 269.689 515.888 267.738C519.278 265.795 524.052 264.345 529.821 263.25C541.402 261.052 557.807 260.144 577.326 260.144C597.074 260.144 614.159 261.786 626.505 264.952C632.665 266.531 637.798 268.528 641.508 270.995C644.502 272.987 646.757 275.422 647.684 278.33H680.519C678.382 269.002 669.474 260.507 653.257 254.119C635.653 247.184 610.051 243.018 577.326 243.018C554.929 243.018 529.634 245.254 510.023 250.804C500.206 253.582 491.991 257.142 486.279 261.533C480.613 265.887 477.56 270.923 477.56 276.8C477.56 280.949 478.57 284.638 481.027 287.997C483.509 291.388 487.597 294.618 494.059 297.597C507.055 303.587 529.037 308.29 564.765 311.56C588.842 313.618 609.909 315.567 624.96 318.477C632.465 319.928 638.678 321.654 643.069 323.853C647.379 326.012 650.676 329.029 650.676 333.299C650.676 337.722 646.814 342.073 636.528 345.265C626.097 348.501 608.063 350.925 577.326 350.925C546.72 350.925 528.794 347.592 518.356 342.883C513.099 340.51 509.646 337.746 507.466 334.797C505.861 332.624 505.009 330.432 504.595 328.373H471.837C473.999 339.957 483.556 349.578 500.431 356.508C518.531 363.941 544.591 368.05 577.326 368.05C603.789 368.05 630.656 366.349 650.837 360.805C660.929 358.032 669.148 354.351 674.805 349.602C680.387 344.916 683.48 339.199 683.48 332.087C683.48 326.155 681.246 321.457 676.784 317.513C672.225 313.483 665.262 310.179 655.745 307.387C636.695 301.799 608.448 298.543 571.646 294.898L571.625 294.897C558.168 293.454 543.12 292.224 531.511 289.89C525.714 288.725 520.536 287.242 516.755 285.198C512.99 283.163 510.044 280.234 510.044 276.072ZM1072.66 305.413C1072.66 291.087 1080.54 279.647 1094.61 271.911C1108.58 264.234 1128.7 260.144 1153.68 260.144C1191.01 260.144 1217.76 269.198 1229.14 286.332H1262.06C1255.02 272.285 1240.64 261.7 1222.11 254.486C1202.23 246.746 1177.88 243.018 1153.68 243.018C1125.98 243.018 1097.56 247.953 1076.16 258.317C1054.79 268.668 1040.81 284.197 1040.81 305.413C1040.81 326.626 1054.87 342.218 1076.28 352.632C1097.72 363.057 1126.14 368.05 1153.68 368.05C1177.72 368.05 1201.99 364.383 1221.87 356.643C1240.41 349.424 1254.88 338.774 1262.05 324.494H1229.16C1223.73 332.897 1214.53 339.396 1202.25 343.833C1189.39 348.478 1173.03 350.925 1153.68 350.925C1128.7 350.925 1108.58 346.835 1094.61 339.126C1080.53 331.355 1072.66 319.852 1072.66 305.413ZM1506.68 298.381C1506.68 287.331 1503.84 278.457 1498.93 271.325C1494.01 264.18 1486.93 258.646 1478.24 254.437C1460.79 245.987 1437.13 243.018 1412.66 243.018C1368.49 243.018 1322.88 252.782 1309.65 255.738L1314.42 272.304C1314.45 272.296 1314.49 272.289 1314.53 272.28C1316.09 271.94 1318.36 271.453 1321.23 270.871C1326.96 269.706 1335.08 268.155 1344.62 266.603C1363.68 263.502 1388.51 260.387 1411.38 260.387C1426.98 260.387 1441.92 261.845 1453.57 265.859C1465.23 269.877 1474.06 276.646 1476.38 287.481L1477.01 290.437L1473.88 290.301C1462.73 289.818 1451.91 289.576 1442.05 289.576C1403.04 289.576 1373.15 292.644 1350.69 297.535C1328.21 302.431 1313.33 309.124 1304.21 316.267C1295.13 323.379 1291.87 330.825 1292.18 337.451C1292.48 343.934 1296.23 350.144 1302.41 354.988L1303.01 355.453L1303.04 355.47L1303.06 355.487L1303.07 355.498C1303.09 355.513 1303.13 355.541 1303.18 355.579C1303.29 355.657 1303.46 355.779 1303.7 355.94C1304.18 356.262 1304.93 356.738 1305.97 357.318C1308.06 358.479 1311.29 360.057 1315.8 361.646C1324.83 364.821 1338.99 368.05 1359.32 368.05C1391.27 368.05 1418.23 362.165 1437.96 355.483C1447.83 352.142 1455.88 348.606 1461.83 345.519C1467.87 342.386 1471.54 339.822 1472.84 338.481L1473.9 339.437L1477.14 339.763C1477.14 344.267 1477.02 349.304 1476.43 356.425V364.655H1506.68V298.381ZM1579.13 276.072C1579.13 272.415 1581.57 269.689 1584.98 267.738C1588.37 265.795 1593.14 264.345 1598.91 263.25C1610.49 261.052 1626.9 260.144 1646.42 260.144C1666.16 260.144 1683.25 261.786 1695.59 264.952C1701.75 266.531 1706.89 268.528 1710.6 270.995C1713.59 272.987 1715.85 275.422 1716.77 278.33H1749.61C1747.47 269.002 1738.56 260.507 1722.35 254.119C1704.74 247.185 1679.14 243.018 1646.42 243.018C1624.02 243.018 1598.72 245.254 1579.11 250.804C1569.29 253.582 1561.08 257.142 1555.37 261.533C1549.7 265.887 1546.65 270.923 1546.65 276.8C1546.65 280.949 1547.66 284.638 1550.12 287.997C1552.6 291.388 1556.69 294.618 1563.15 297.597C1576.14 303.587 1598.13 308.29 1633.85 311.56C1657.93 313.618 1679 315.567 1694.05 318.477C1701.55 319.928 1707.77 321.654 1712.16 323.853C1716.47 326.012 1719.77 329.029 1719.77 333.299C1719.77 337.722 1715.9 342.073 1705.62 345.265C1695.19 348.501 1677.15 350.925 1646.42 350.925C1615.81 350.925 1597.88 347.592 1587.45 342.883C1582.19 340.51 1578.73 337.746 1576.56 334.797C1574.95 332.624 1574.1 330.432 1573.68 328.373H1540.93C1543.09 339.957 1552.64 349.578 1569.52 356.508C1587.62 363.941 1613.68 368.05 1646.42 368.05C1672.88 368.05 1699.74 366.349 1719.93 360.805C1730.02 358.032 1738.24 354.351 1743.89 349.602C1749.48 344.916 1752.57 339.199 1752.57 332.087C1752.57 326.155 1750.34 321.457 1745.87 317.513C1741.31 313.483 1734.35 310.179 1724.83 307.387C1705.78 301.799 1677.54 298.543 1640.74 294.898L1640.71 294.897C1627.26 293.454 1612.21 292.224 1600.6 289.89C1594.8 288.725 1589.63 287.242 1585.84 285.198C1582.08 283.163 1579.13 280.234 1579.13 276.072ZM754.752 183.761V369.354H714.731V183.761H754.752ZM719.617 364.655H749.866V188.459H719.617V364.655ZM820.725 246.413H790.476V308.808C790.477 328.108 799.535 342.798 814.797 352.754C830.156 362.773 851.904 368.05 877.147 368.05C910.406 368.05 933.955 359.858 949.144 351.736C956.745 347.671 962.266 343.616 965.87 340.598C967.671 339.089 968.993 337.839 969.856 336.977C970.287 336.546 970.603 336.212 970.807 335.992C970.908 335.882 970.982 335.8 971.028 335.748C971.05 335.723 971.067 335.704 971.076 335.694C971.08 335.689 971.084 335.684 971.084 335.684L975.117 330.971L975.456 338.067L975.459 338.12V338.175C975.459 342.124 975.249 345.479 974.773 353.48V364.655H1005.02V246.413H974.773V297.896C974.773 315.16 960.325 328.432 942.629 337.235C924.797 346.105 902.773 350.925 885.771 350.925C853.853 350.925 837.204 341.982 828.801 329.026C821.092 317.142 820.739 302.384 820.725 290.128V246.413ZM1378.84 309.085C1402.86 306.032 1434.7 305.003 1474.03 305.732L1476.43 305.776V308.08C1476.43 313.993 1472.96 319.262 1467.73 323.77C1462.48 328.293 1455.17 332.301 1446.8 335.733C1430.03 342.605 1408.46 347.379 1388.94 349.216L1388.93 349.218C1383.42 349.711 1377.27 349.955 1371.14 349.955C1357.16 349.955 1342.95 348.382 1334.1 344.8C1329.77 343.047 1326.01 340.525 1324.87 336.813C1323.67 332.891 1325.71 328.897 1329.84 325.062C1334.12 321.082 1340.45 317.863 1348.57 315.263C1356.72 312.653 1366.84 310.612 1378.84 309.085ZM1471.29 310.383C1433.28 309.751 1402.61 310.803 1379.49 313.743C1367.66 315.247 1357.87 317.238 1350.12 319.721C1342.34 322.212 1336.77 325.147 1333.23 328.44C1329.53 331.88 1329.14 334.131 1329.55 335.484C1330.03 337.046 1331.94 338.828 1335.99 340.47C1343.91 343.676 1357.33 345.256 1371.14 345.256C1377.14 345.256 1383.13 345.017 1388.47 344.54C1407.6 342.74 1428.67 338.057 1444.88 331.41C1453 328.083 1459.77 324.317 1464.47 320.269C1468.29 316.978 1470.56 313.665 1471.29 310.383ZM1077.55 305.413C1077.55 317.889 1084.21 327.968 1097.04 335.05C1109.98 342.192 1129.15 346.226 1153.68 346.226C1172.65 346.226 1188.39 343.823 1200.53 339.435C1212.67 335.047 1221.07 328.733 1225.66 320.983L1226.36 319.795H1269.38L1268.06 323.007C1260.85 340.564 1244.28 352.986 1223.7 360.998C1203.1 369.02 1178.18 372.748 1153.68 372.748C1125.64 372.748 1096.4 367.679 1074.08 356.825C1051.74 345.961 1035.93 329.06 1035.93 305.413C1035.93 281.769 1051.66 264.926 1073.96 254.12C1096.25 243.327 1125.48 238.32 1153.68 238.32C1178.34 238.32 1203.34 242.11 1223.94 250.131C1244.51 258.14 1261.01 270.501 1268.06 287.826L1269.37 291.031H1226.38L1225.67 289.872C1216.16 274.296 1191.52 264.842 1153.68 264.842C1129.15 264.842 1109.98 268.876 1097.04 275.99C1084.2 283.046 1077.55 293.066 1077.55 305.413ZM443.754 301.291C443.754 325.875 433.837 344.334 415.344 356.544C396.998 368.656 370.476 374.446 337.505 374.446H336.865C303.894 374.446 277.371 368.656 259.025 356.544C240.533 344.334 230.616 325.874 230.616 301.291V298.941H271.539L271.594 301.237C271.899 314.066 277.04 324.944 287.527 332.677C298.091 340.467 314.342 345.256 337.185 345.256C360.191 345.256 376.439 340.466 386.96 332.68C397.401 324.952 402.47 314.077 402.775 301.237V183.761H443.754V301.291ZM1511.56 369.354H1471.54V356.241L1471.55 356.148C1471.92 351.734 1472.1 348.145 1472.19 344.992C1470.07 346.4 1467.36 347.987 1464.15 349.655C1457.96 352.865 1449.68 356.497 1439.58 359.915C1419.4 366.751 1391.89 372.748 1359.32 372.748C1338.45 372.748 1323.71 369.43 1314.13 366.058C1309.34 364.373 1305.84 362.678 1303.52 361.383C1302.36 360.736 1301.5 360.19 1300.91 359.796C1300.61 359.599 1300.39 359.439 1300.23 359.324C1300.15 359.267 1300.09 359.221 1300.05 359.187C1300.03 359.176 1300.02 359.166 1300.01 359.157L1299.32 358.633C1292.35 353.164 1287.68 345.804 1287.3 337.664C1286.9 329.195 1291.16 320.424 1301.12 312.623C1311.05 304.854 1326.73 297.937 1349.61 292.952C1372.52 287.962 1402.8 284.877 1442.05 284.877C1450.99 284.877 1460.7 285.076 1470.72 285.469C1468.03 278.496 1461.48 273.575 1451.92 270.282C1441.05 266.536 1426.77 265.085 1411.38 265.085C1388.91 265.085 1364.39 268.152 1345.44 271.235C1335.97 272.775 1327.92 274.315 1322.24 275.469C1319.4 276.046 1317.15 276.526 1315.61 276.862C1314.84 277.03 1314.25 277.161 1313.86 277.251C1313.66 277.295 1313.51 277.33 1313.41 277.352C1313.36 277.364 1313.32 277.372 1313.3 277.378C1313.28 277.381 1313.28 277.383 1313.27 277.384C1313.27 277.385 1313.26 277.386 1313.26 277.386H1313.26L1310.96 277.919L1303.59 252.275L1306.06 251.718C1314.68 249.78 1364.44 238.32 1412.66 238.32C1437.38 238.32 1461.96 241.293 1480.44 250.241C1489.71 254.731 1497.52 260.761 1503 268.732C1508.5 276.718 1511.56 286.517 1511.56 298.381V369.354ZM825.611 287.711C825.611 300.723 825.598 315.21 832.946 326.539C840.114 337.59 854.768 346.226 885.771 346.226C901.988 346.226 923.242 341.589 940.384 333.061C957.663 324.466 969.887 312.398 969.887 297.896V241.714H1009.91V369.354H969.887V353.358L969.891 353.291C970.175 348.521 970.359 345.447 970.464 342.952C970.034 343.329 969.573 343.727 969.078 344.141C965.246 347.352 959.448 351.602 951.518 355.843C935.644 364.331 911.282 372.748 877.147 372.748C851.286 372.748 828.477 367.356 812.055 356.643C795.537 345.867 785.591 329.761 785.59 308.808V241.714H825.611V287.711ZM514.93 276.072C514.93 277.729 516.017 279.409 519.149 281.102C522.265 282.786 526.849 284.152 532.511 285.29C543.819 287.564 558.475 288.759 572.166 290.226C608.818 293.856 637.577 297.145 657.171 302.893C666.978 305.769 674.747 309.331 680.09 314.054C685.529 318.862 688.366 324.803 688.366 332.087C688.366 340.736 684.512 347.689 678.017 353.142C671.597 358.531 662.607 362.458 652.179 365.323C631.316 371.054 603.884 372.748 577.326 372.748C544.264 372.748 517.463 368.612 498.512 360.829C479.563 353.047 468.004 341.389 466.615 326.231L466.381 323.676H509.024L509.176 325.868C509.311 327.824 509.877 329.947 511.449 332.075C513.032 334.218 515.748 336.515 520.432 338.629C529.877 342.891 546.926 346.226 577.326 346.226C607.915 346.226 625.335 343.8 635.027 340.793C644.862 337.741 645.79 334.453 645.79 333.299C645.79 331.75 644.657 329.947 640.812 328.021C637.048 326.136 631.384 324.512 623.996 323.083C609.262 320.235 588.486 318.305 564.333 316.241L564.318 316.239C528.51 312.962 505.779 308.208 491.947 301.833C484.995 298.628 480.139 294.947 477.032 290.7C473.9 286.42 472.674 281.745 472.674 276.8C472.674 269.098 476.768 262.828 483.228 257.862C489.643 252.932 498.537 249.157 508.643 246.297C528.877 240.571 554.688 238.32 577.326 238.32C610.399 238.32 636.7 242.52 655.109 249.771C673.429 256.988 684.557 267.516 685.8 280.464L686.047 283.029H643.421L643.243 280.865C643.083 278.93 641.787 276.894 638.729 274.86C635.671 272.826 631.142 271.004 625.246 269.492C613.476 266.474 596.864 264.842 577.326 264.842C557.879 264.842 541.863 265.754 530.767 267.86C525.197 268.917 521.067 270.24 518.389 271.775C515.725 273.302 514.93 274.758 514.93 276.072ZM1584.02 276.072C1584.02 277.729 1585.11 279.409 1588.24 281.102C1591.35 282.786 1595.94 284.152 1601.6 285.29C1612.91 287.564 1627.56 288.759 1641.26 290.226C1677.91 293.856 1706.67 297.146 1726.26 302.893C1736.07 305.769 1743.84 309.331 1749.18 314.054C1754.62 318.862 1757.46 324.803 1757.46 332.087C1757.46 340.736 1753.6 347.689 1747.11 353.142C1740.69 358.531 1731.7 362.458 1721.27 365.323C1700.41 371.054 1672.97 372.748 1646.42 372.748C1613.35 372.748 1586.55 368.612 1567.6 360.829C1548.65 353.047 1537.09 341.389 1535.7 326.231L1535.47 323.676H1578.11L1578.26 325.868C1578.4 327.824 1578.97 329.947 1580.54 332.075C1582.12 334.218 1584.84 336.515 1589.52 338.629C1598.97 342.891 1616.02 346.226 1646.42 346.226C1677 346.226 1694.42 343.8 1704.12 340.793C1713.95 337.741 1714.88 334.453 1714.88 333.299C1714.88 331.75 1713.75 329.947 1709.9 328.021C1706.14 326.136 1700.47 324.512 1693.09 323.083C1678.35 320.235 1657.58 318.305 1633.42 316.241L1633.41 316.239C1597.6 312.962 1574.87 308.208 1561.04 301.833C1554.08 298.628 1549.23 294.947 1546.12 290.7C1542.99 286.42 1541.76 281.745 1541.76 276.8C1541.76 269.098 1545.86 262.828 1552.32 257.862C1558.73 252.932 1567.63 249.157 1577.73 246.297C1597.97 240.571 1623.78 238.32 1646.42 238.32C1679.49 238.32 1705.79 242.52 1724.2 249.771C1742.52 256.988 1753.65 267.516 1754.89 280.464L1755.14 283.029H1712.51L1712.33 280.865C1712.17 278.93 1710.88 276.894 1707.82 274.86C1704.76 272.826 1700.23 271.004 1694.33 269.492C1682.57 266.474 1665.95 264.842 1646.42 264.842C1626.97 264.842 1610.95 265.754 1599.86 267.86C1594.29 268.917 1590.16 270.24 1587.48 271.775C1584.81 273.302 1584.02 274.758 1584.02 276.072Z" fill="#EEEEEE"/>
<path d="M994.036 0C1455.6 4.57552e-05 1843.69 89.894 1955.59 211.753C1984.45 238.36 2000 266.64 2000 295.959C2000 452.831 1554.95 580 1005.96 580C544.405 580 156.321 490.109 44.416 368.253C15.5483 341.644 0 313.362 0 284.041C0.000423888 127.169 445.046 0 994.036 0ZM992.928 12C451.136 12 11.9277 133.331 11.9277 283C11.9277 421.919 390.307 536.421 877.892 552.154C915.977 553.426 954.734 554.082 994.036 554.082C1064.97 554.082 1134.12 551.949 1200.76 547.904C1610.79 523.471 1925.49 428.234 1968.82 310.815C1972.34 301.8 1974.07 292.861 1974.07 284.041C1974.07 281.52 1973.93 278.99 1973.65 276.45C1961.05 129.807 1526.79 12 992.928 12Z" fill="#EEEEEE"/>
</svg>
