<svg width="280" height="80" viewBox="0 0 280 80" fill="none" xmlns="http://www.w3.org/2000/svg">
<path d="M140 0.799805C178.607 0.799805 213.53 5.27241 238.775 12.4854C251.403 16.0934 261.565 20.3739 268.551 25.0928C275.564 29.8306 279.2 34.8832 279.2 40C279.2 45.1168 275.564 50.1694 268.551 54.9072C261.565 59.6261 251.403 63.9066 238.775 67.5146C213.53 74.7276 178.607 79.2002 140 79.2002C101.393 79.2002 66.4699 74.7276 41.2246 67.5146C28.5967 63.9066 18.435 59.6261 11.4492 54.9072C4.43559 50.1694 0.799805 45.1168 0.799805 40C0.799805 34.8832 4.43559 29.8306 11.4492 25.0928C18.435 20.3739 28.5967 16.0934 41.2246 12.4854C66.4699 5.27241 101.393 0.799805 140 0.799805Z" stroke="#222222" stroke-width="1.6"/>
<path d="M60 42.0254C60 45.3773 58.6042 47.8944 56.0014 49.5592C53.4191 51.2107 49.6857 52 45.0449 52H44.9551C40.3142 52 36.5809 51.2107 33.9986 49.5592C31.3958 47.8944 30 45.3773 30 42.0254V41.7049H35.7602L35.7677 42.0181C35.8106 43.7672 36.5346 45.2505 38.0106 46.3049C39.4975 47.367 41.7851 48.0201 45.0002 48.0201C48.2383 48.0201 50.5253 47.3668 52.0061 46.3052C53.4758 45.2515 54.1894 43.7687 54.2323 42.0181V26H60V42.0254Z" fill="#222222"/>
<path d="M79.9934 33C84.7609 33 88.5524 33.5935 91.2061 34.6184C93.8469 35.6383 95.4509 37.1264 95.6302 38.9564L95.6659 39.3189H89.5213L89.4954 39.0132C89.4724 38.7397 89.2856 38.4519 88.8447 38.1644C88.4039 37.877 87.751 37.6195 86.901 37.4058C85.2044 36.9792 82.8098 36.7486 79.9934 36.7486C77.1899 36.7486 74.8809 36.8773 73.2813 37.175C72.4785 37.3244 71.8831 37.5114 71.4971 37.7283C71.1131 37.9441 70.9986 38.15 70.9986 38.3357C70.9986 38.5699 71.1554 38.8072 71.607 39.0465C72.056 39.2845 72.7167 39.4779 73.5328 39.6387C75.1629 39.96 77.2759 40.1287 79.2496 40.3362C84.5329 40.8491 88.6786 41.3142 91.5031 42.1265C92.9168 42.5331 94.0369 43.0366 94.807 43.704C95.5912 44.3836 96 45.2232 96 46.2527C96 47.4751 95.4446 48.4581 94.5083 49.2288C93.5828 49.9905 92.2868 50.5455 90.7835 50.9504C87.7761 51.7605 83.8218 52 79.9934 52C75.2273 52 71.3638 51.4152 68.6319 50.3152C65.9003 49.2153 64.2339 47.5676 64.0336 45.4252L64 45.0638H70.1471L70.1691 45.3737C70.1887 45.6502 70.27 45.9503 70.4966 46.251C70.7249 46.5539 71.1165 46.8787 71.7917 47.1774C73.1533 47.7798 75.611 48.2511 79.9934 48.2511C84.4028 48.2511 86.9141 47.9082 88.3112 47.4832C89.7283 47.052 89.8626 46.5876 89.8627 46.4243C89.8627 46.2053 89.6991 45.9502 89.1449 45.678C88.6023 45.4116 87.7858 45.1821 86.7212 44.9802C84.5972 44.5776 81.6021 44.3049 78.1203 44.0132L78.1182 44.0128C72.9563 43.5497 69.6795 42.878 67.6856 41.9769C66.6834 41.524 65.9834 41.0034 65.5355 40.4032C65.084 39.7983 64.9071 39.1373 64.9071 38.4385C64.9072 37.35 65.4973 36.4637 66.4286 35.7619C67.3533 35.0651 68.6354 34.5315 70.0921 34.1273C73.009 33.318 76.7299 33 79.9934 33Z" fill="#222222"/>
<path d="M106 52H100V26H106V52Z" fill="#222222"/>
<path d="M115.709 40.3185C115.709 42.1059 115.707 44.0958 116.755 45.6521C117.778 47.1701 119.869 48.3564 124.291 48.3564C126.605 48.3564 129.637 47.7196 132.082 46.5482C134.547 45.3674 136.291 43.7097 136.291 41.7177V34H142V51.5334H136.291V49.3361L136.291 49.3271C136.332 48.6719 136.358 48.2496 136.373 47.9069C136.312 47.9587 136.246 48.0131 136.175 48.07C135.629 48.511 134.802 49.0952 133.67 49.6777C131.406 50.8437 127.93 52 123.061 52C119.372 52 116.118 51.2589 113.775 49.7873C111.419 48.307 110 46.0945 110 43.2164V34H115.709V40.3185Z" fill="#222222"/>
<path d="M162.14 33C165.521 33 168.948 33.5357 171.772 34.6693C174.592 35.8013 176.854 37.5484 177.82 39.9971L177.998 40.45H172.106L172.009 40.2863C170.705 38.0848 167.328 36.7486 162.14 36.7486C158.778 36.7486 156.15 37.3188 154.376 38.3243C152.617 39.3216 151.705 40.7378 151.705 42.4828C151.705 44.2462 152.618 45.6706 154.377 46.6716C156.151 47.681 158.778 48.2511 162.14 48.2511C164.741 48.2511 166.898 47.9115 168.562 47.2913C170.227 46.6711 171.378 45.7788 172.007 44.6834L172.103 44.5156H178L177.819 44.9696C176.832 47.4511 174.56 49.2066 171.739 50.3389C168.915 51.4727 165.499 52 162.14 52C158.297 52 154.289 51.2832 151.23 49.7491C148.167 48.2137 146 45.8249 146 42.4828C146 39.141 148.156 36.7602 151.214 35.233C154.268 33.7075 158.275 33 162.14 33Z" fill="#222222"/>
<path fill-rule="evenodd" clip-rule="evenodd" d="M199.889 33C203.416 33 206.922 33.4202 209.559 34.6848C210.882 35.3195 211.996 36.1717 212.778 37.2985C213.562 38.4271 214 39.812 214 41.4889V51.5199H208.29V49.6666L208.292 49.6535C208.344 49.0297 208.37 48.5224 208.382 48.0767C208.08 48.2757 207.694 48.5 207.235 48.7357C206.353 49.1893 205.171 49.7028 203.731 50.1859C200.85 51.1521 196.926 52 192.28 52C189.301 52 187.198 51.5309 185.831 51.0543C185.148 50.8161 184.65 50.5766 184.319 50.3936C184.153 50.3022 184.03 50.2248 183.946 50.1691C183.904 50.1412 183.871 50.1185 183.849 50.1023C183.838 50.0943 183.829 50.0879 183.823 50.0831C183.821 50.0815 183.817 50.079 183.817 50.079L183.72 50.0047C182.724 49.2316 182.058 48.1914 182.004 47.0409C181.947 45.844 182.555 44.6043 183.976 43.5018C185.392 42.4036 187.63 41.4262 190.895 40.7217C194.163 40.0164 198.483 39.5803 204.082 39.5803C205.357 39.5803 206.743 39.6082 208.172 39.6638C207.789 38.6783 206.854 37.9827 205.491 37.5172C203.94 36.9878 201.902 36.7829 199.707 36.7829C196.5 36.7829 193.002 37.2163 190.298 37.652C188.948 37.8696 187.8 38.0873 186.989 38.2504C186.583 38.3319 186.262 38.4 186.043 38.4474C185.934 38.4711 185.85 38.4898 185.793 38.5025C185.765 38.5088 185.743 38.5133 185.729 38.5166C185.722 38.5182 185.717 38.5195 185.713 38.5203L185.709 38.521L185.708 38.5214L185.38 38.5967L184.328 34.9723L184.681 34.8935C185.91 34.6196 193.009 33 199.889 33ZM208.254 43.1851C202.831 43.0957 198.455 43.2444 195.156 43.66C193.469 43.8726 192.072 44.154 190.966 44.505C189.857 44.8571 189.063 45.272 188.557 45.7375C188.029 46.2235 187.974 46.5416 188.033 46.7328C188.101 46.9535 188.373 47.2057 188.952 47.4378C190.081 47.891 191.995 48.1142 193.965 48.1142C194.822 48.1142 195.676 48.0801 196.438 48.0128C199.167 47.7583 202.173 47.0965 204.486 46.1571C205.644 45.6869 206.61 45.1544 207.281 44.5823C207.826 44.1173 208.15 43.6489 208.254 43.1851Z" fill="#222222"/>
<path d="M233.993 33C238.761 33 242.552 33.5935 245.206 34.6184C247.847 35.6383 249.451 37.1264 249.63 38.9564L249.666 39.3189H243.521L243.495 39.0132C243.472 38.7396 243.285 38.4519 242.844 38.1644C242.404 37.877 241.751 37.6194 240.901 37.4058C239.205 36.9792 236.81 36.7486 233.993 36.7486C231.19 36.7486 228.881 36.8773 227.282 37.175C226.479 37.3244 225.883 37.5114 225.497 37.7283C225.113 37.9442 224.999 38.15 224.999 38.3357C224.999 38.5699 225.155 38.8072 225.607 39.0465C226.056 39.2845 226.717 39.4778 227.533 39.6387C229.163 39.96 231.276 40.1287 233.249 40.3362C238.533 40.8491 242.678 41.3142 245.503 42.1265C246.917 42.5331 248.037 43.0365 248.807 43.704C249.591 44.3836 250 45.2232 250 46.2527C250 47.4751 249.445 48.4581 248.508 49.2288C247.583 49.9906 246.287 50.5455 244.784 50.9504C241.776 51.7605 237.822 52 233.993 52C229.227 52 225.364 51.4152 222.632 50.3152C219.9 49.2153 218.234 47.5676 218.034 45.4252L218 45.0638H224.147L224.169 45.3737C224.189 45.6502 224.27 45.9503 224.497 46.251C224.725 46.5538 225.116 46.8787 225.792 47.1774C227.153 47.7798 229.611 48.2511 233.993 48.2511C238.403 48.2511 240.914 47.9082 242.311 47.4832C243.728 47.052 243.863 46.5876 243.863 46.4243C243.863 46.2053 243.699 45.9502 243.145 45.678C242.602 45.4116 241.786 45.1821 240.721 44.9802C238.597 44.5776 235.602 44.3049 232.12 44.0132L232.118 44.0128C226.956 43.5497 223.679 42.878 221.686 41.9769C220.683 41.524 219.983 41.0034 219.535 40.4032C219.084 39.7983 218.907 39.1373 218.907 38.4385C218.907 37.35 219.497 36.4637 220.429 35.7619C221.353 35.0651 222.636 34.5315 224.092 34.1273C227.009 33.3181 230.73 33 233.993 33Z" fill="#222222"/>
</svg>
