<svg width="2000" height="250" viewBox="0 0 2000 250" fill="none" xmlns="http://www.w3.org/2000/svg">
<path fill-rule="evenodd" clip-rule="evenodd" d="M1846 89.288C1791.08 89.288 1756 94.7049 1756 109.128C1756 126.014 1801.73 128.714 1840 132.936C1943.55 143.49 2000 152.127 2000 190.472C2000 236.205 1920.73 248.008 1846 248.008C1753.26 248.008 1697.6 221.008 1694 180.552H1746C1746.9 193.92 1760.01 216.264 1846 216.264C1932.44 216.264 1946 198.564 1946 190.472C1946 173.586 1895.98 168.676 1828 162.696C1727.15 153.197 1702 135.512 1702 109.128C1702 69.7274 1782.52 57.544 1846 57.544C1938.74 57.544 1992.84 81.308 1996 115.08H1944C1942.65 98.194 1901.38 89.288 1846 89.288ZM1627 224.2V206.344V200.392C1618 209.891 1555.94 246.024 1465 246.024C1406.92 246.024 1383 226.184 1383 226.184C1344.83 195.93 1360.4 125 1581 125C1594.96 125 1609.24 124.297 1625 125C1619.15 96.8567 1582.67 89.288 1539 89.288C1475.07 89.288 1401 107.144 1401 107.144L1391 77.384C1403.16 74.5693 1473.47 57.544 1541 57.544C1610.33 57.544 1675 74.3833 1675 140.872L1676 239.08H1627V224.2ZM1425 182.536C1402.94 203.644 1442.83 214.28 1482 214.28C1490.55 214.28 1500.35 214.984 1508 214.28C1562.48 209.003 1625 183.607 1625 154.76C1514.25 152.649 1447.06 161.429 1425 182.536ZM1191 214.28C1245.03 214.28 1281.04 200.858 1295 176.584H1349C1329.64 225.131 1259.43 246.024 1191 246.024C1112.66 246.024 1031 217.858 1031 152.776C1031 87.6943 1112.21 57.544 1191 57.544C1259.88 57.544 1330.09 79.1401 1349 126.984H1295C1280.59 102.71 1244.57 89.288 1191 89.288C1121.22 89.288 1083 114.079 1083 152.776C1083 191.825 1121.22 214.28 1191 214.28ZM960 220.232V196.424C960 196.424 928.994 248.008 834 248.008C764.97 248.008 712 215.141 712 156.744V61.512H760V125.584C760 162.875 753.31 216.264 842 216.264C888.821 216.264 960 186.957 960 140.872V61.512H1008V239.08H960V220.232ZM636 1H684V239.08H636V1ZM452 132.936C555.548 143.49 612 154.111 612 192.456C612 238.189 534.734 248.008 460 248.008C367.257 248.008 315.602 221.008 312 180.552H362C362.9 193.92 374.011 216.264 460 216.264C546.44 216.264 560 200.548 560 192.456C560 175.57 509.982 168.676 442 162.696C341.154 153.197 320 135.512 320 109.128C320 69.7274 396.521 57.544 460 57.544C552.743 57.544 604.848 79.324 608 113.096H556C554.649 96.21 515.375 89.288 460 89.288C405.075 89.288 372 94.7049 372 109.128C372 126.014 413.733 128.714 452 132.936ZM146 249C53.7079 249 0 214.143 0 144.84H50C50.9002 183.889 80.7199 216.264 146 216.264C211.73 216.264 239.1 182.897 240 143.848V1H288V143.848C288 213.151 238.292 249 146 249Z" fill="#EEEEEE"/>
</svg>
