<svg width="2000" height="580" viewBox="0 0 2000 580" fill="none" xmlns="http://www.w3.org/2000/svg">
<path d="M1170.38 226.811C1112.94 226.811 1057.14 263.816 1057.14 321.543C1057.14 364.468 1093.52 391.408 1153.95 391.408C1219.17 391.408 1248.34 350.842 1248.34 324.503L1188.86 310.59C1184.46 328.056 1175.89 336.616 1161.09 336.641C1147.3 336.665 1136.98 324.824 1135.56 310.59C1133.83 293.208 1145.19 279.588 1161.09 278.461C1173.87 277.554 1186.53 286.942 1188.86 296.103L1254.37 287.203C1254.37 266.776 1225.33 226.811 1170.38 226.811Z" fill="#BFB9B7"/>
<path fill-rule="evenodd" clip-rule="evenodd" d="M1376.24 226.811C1328.13 226.811 1278.13 251.374 1263.17 287.203L1306.71 296.103C1346.34 278.461 1363.94 271.8 1384.45 274.473C1391.19 275.351 1400.52 281.236 1392.54 290.007C1384.45 298.888 1367.9 296.896 1346.34 298.888C1303.92 302.806 1250.98 318.286 1250.98 352.331C1250.98 376.31 1270.05 389.928 1306.71 389.928C1339.86 389.928 1366.26 375.718 1380.93 354.403H1381.23L1381.81 357.067C1385.33 376.014 1400.59 389.928 1432.56 389.928C1452.8 389.928 1473.21 385.479 1486.7 376.598L1478.78 333.968C1478.78 333.968 1468.27 338.342 1463.82 336.641C1459.71 335.067 1459.86 327.76 1459.86 327.76L1465.42 291.051C1472.46 246.645 1430.51 226.811 1376.24 226.811ZM1343.7 347.29C1366.58 347.29 1382.11 335.753 1384.16 323.023L1384.45 322.135C1384.45 322.135 1363.5 317.094 1349.42 319.314C1338.69 321.006 1327.54 325.682 1327.54 336.641C1327.54 341.674 1333.14 347.29 1343.7 347.29Z" fill="#BFB9B7"/>
<path d="M1572.04 227.642C1523.35 227.642 1474.42 243.686 1474.42 287.203C1474.42 312.662 1497.3 323.616 1528.99 327.76L1558.91 331.609C1574.16 333.977 1583.55 336.641 1583.55 341.674C1583.55 347.002 1569.16 350.842 1558.91 350.842C1530.71 350.842 1504.3 340.045 1488.46 333.968L1495.5 376.598C1503.86 382.658 1536.83 389.928 1564.15 389.928C1618.12 389.928 1651.61 374.238 1651.61 332.201C1651.61 304.669 1624.62 292.236 1590.88 287.203L1559.49 282.762C1544.83 280.394 1538.37 278.618 1538.37 274.473C1538.37 269.145 1550.4 266.776 1565.95 266.776C1585.9 266.776 1611.6 273.796 1621.57 282.973L1660 261.067C1645.92 240.936 1609.89 227.642 1572.04 227.642Z" fill="#BFB9B7"/>
<path d="M845.759 332.793C839.892 368.021 859.84 389.928 896.802 389.928C926.723 389.928 952.245 374.238 967.793 349.667H968.086L972.78 386.079H1037.02L1061.08 232.14H985.1L972.78 310.59C970.139 328.352 958.699 338.713 942.858 338.713C929.071 338.713 922.323 330.128 924.67 315.622L937.871 232.14H861.6L845.759 332.793Z" fill="#BFB9B7"/>
<path d="M749.224 386.079H825.495L860.404 172H784.133L749.224 386.079Z" fill="#BFB9B7"/>
<path d="M665.178 226.951C621.661 230.781 570.588 243.686 570.588 287.203C570.588 312.662 593.469 323.616 625.151 327.76L655.073 331.609C670.327 333.977 679.714 336.641 679.714 341.674C679.714 347.002 669.74 349.075 648.913 349.075C626.325 349.075 601.976 342.562 589.069 331.904L550.641 354.699C562.961 378.086 604.616 390.52 648.325 390.52C702.302 390.52 747.771 374.238 747.771 332.201C747.771 304.669 720.783 292.236 687.048 287.203L655.659 282.762C640.992 280.394 634.538 278.618 634.538 274.473C634.538 269.145 646.566 266.776 662.113 266.776C682.061 266.776 714.623 276.249 724.597 285.427L761.265 263.52C747.184 243.389 705.772 223.377 665.178 226.951Z" fill="#BFB9B7"/>
<path d="M472.676 306.445C470.329 322.135 458.888 331.312 444.22 331.312C426.62 331.312 415.766 319.175 416.059 298.748L340.081 318.879C338.028 364.765 374.99 392 439.234 392C505.237 392 549.24 361.508 557.161 310.293L578.868 172H493.797L472.676 306.445Z" fill="#BFB9B7"/>
<path d="M1000 6C1275.74 6 1525.15 38.4191 1705.44 90.7012C1795.62 116.854 1868.16 147.881 1918.02 182.067C1968.08 216.386 1994 252.963 1994 290C1994 327.037 1968.08 363.614 1918.02 397.933C1868.16 432.119 1795.62 463.146 1705.44 489.299C1525.15 541.581 1275.74 574 1000 574C724.259 574 474.848 541.581 294.564 489.299C204.383 463.146 131.839 432.119 81.9775 397.933C31.9241 363.614 6 327.037 6 290C6 252.963 31.9241 216.386 81.9775 182.067C131.839 147.881 204.383 116.854 294.564 90.7012C474.848 38.4191 724.259 6 1000 6Z" stroke="url(#paint0_linear_2514_1715)" stroke-width="12"/>
<defs>
<linearGradient id="paint0_linear_2514_1715" x1="1000" y1="0" x2="1000" y2="580" gradientUnits="userSpaceOnUse">
<stop stop-color="#A6392E"/>
<stop offset="0.04" stop-color="#572947"/>
<stop offset="0.12" stop-color="#573B58"/>
<stop offset="0.17" stop-color="#574762"/>
<stop offset="0.201923" stop-color="#58687C"/>
<stop offset="0.3125" stop-color="#6CB1B4"/>
<stop offset="0.471154" stop-color="#98BDBD"/>
<stop offset="0.557692" stop-color="#BFB9B7"/>
<stop offset="1" stop-color="#BFB9B7"/>
</linearGradient>
</defs>
</svg>
